SplineFontDB: 3.0
FontName: KAN-KaveriBold
FullName: KAN Kaveri Bold
FamilyName: KAN Kaveri
Weight: Bold
Copyright: Copyright (c) 2009-2015, NLCI (http://www.nlci.in/fonts/)
Version: 1.0 Wed May 17 15:35:12 1995
ItalicAngle: 0
UnderlinePosition: -290
UnderlineWidth: 20
Ascent: 800
Descent: 200
InvalidEm: 0
LayerCount: 2
Layer: 0 0 "Back" 1
Layer: 1 0 "Fore" 0
XUID: [1021 983 496268599 8370529]
FSType: 0
OS2Version: 0
OS2_WeightWidthSlopeOnly: 0
OS2_UseTypoMetrics: 1
CreationTime: 1250825684
ModificationTime: 1533087663
PfmFamily: 81
TTFWeight: 700
TTFWidth: 5
LineGap: 0
VLineGap: 0
Panose: 2 0 0 3 0 0 0 0 0 0
OS2TypoAscent: -72
OS2TypoAOffset: 1
OS2TypoDescent: -196
OS2TypoDOffset: 1
OS2TypoLinegap: 0
OS2WinAscent: -229
OS2WinAOffset: 1
OS2WinDescent: -103
OS2WinDOffset: 1
HheadAscent: -229
HheadAOffset: 1
HheadDescent: 103
HheadDOffset: 1
OS2SubXSize: 700
OS2SubYSize: 650
OS2SubXOff: 0
OS2SubYOff: 143
OS2SupXSize: 700
OS2SupYSize: 650
OS2SupXOff: 0
OS2SupYOff: 453
OS2StrikeYSize: 50
OS2StrikeYPos: 259
OS2Vendor: 'Alts'
OS2UnicodeRanges: 00000000.00000000.00000000.00000000
Lookup: 262 0 0 "blwm" { "blwm-2sub"  } []
MarkAttachClasses: 1
DEI: 91125
TtTable: prep
NPUSHB
 1
 1
SCANTYPE
PUSHW_1
 511
SCANCTRL
EndTTInstrs
ShortTable: maxp 16
  1
  0
  319
  188
  5
  167
  6
  2
  8
  64
  10
  0
  3
  417
  4
  2
EndShort
LangName: 1033 "" "" "Bold" "NLCI:KAN Kaveri Bold" "" "1.0 Wed May 17 15:35:12 1995"
Encoding: Original
Compacted: 1
UnicodeInterp: none
NameList: Adobe Glyph List
DisplaySize: -48
AntiAlias: 1
FitToEm: 1
WinInfo: 0 36 12
BeginPrivate: 0
EndPrivate
AnchorClass2: "Sub" "blwm-2sub" "Nukta"""  "s"""  "V""" 
BeginChars: 572 313

StartChar: .notdef
Encoding: 0 -1 0
Width: 500
Flags: HW
LayerCount: 2
Fore
SplineSet
31 0 m 1
 31 604 l 1
 469 604 l 1
 469 0 l 1
 31 0 l 1
438 31 m 1
 438 573 l 1
 62 573 l 1
 62 31 l 1
 438 31 l 1
EndSplineSet
EndChar

StartChar: exclam
Encoding: 4 33 4
Width: 348
VWidth: 500
Flags: HW
LayerCount: 2
Fore
SplineSet
203 213 m 0
 147.5 213 l 0
 91 620.5 l 0
 91 634.833333333 93.25 647.25 97.75 657.75 c 0
 102.25 668.25 108.25 676.833333333 115.75 683.5 c 0
 123.25 690.166666667 132.083333333 695.166666667 142.25 698.5 c 0
 152.416666667 701.833333333 163.333333333 703.5 175 703.5 c 0
 186.333333333 703.5 197.083333333 701.916666667 207.25 698.75 c 0
 217.416666667 695.583333333 226.25 690.666666667 233.75 684 c 0
 241.25 677.333333333 247.166666667 668.75 251.5 658.25 c 0
 255.833333333 647.75 258 635.166666667 258 620.5 c 0
 203 213 l 0
257 71.5 m 0
 257 59.8333333333 254.75 48.8333333333 250.25 38.5 c 0
 245.75 28.1666666667 239.75 19.25 232.25 11.75 c 0
 224.75 4.25 216.083333333 -1.66666666667 206.25 -6 c 0
 196.416666667 -10.3333333333 186 -12.5 175 -12.5 c 0
 166.666666667 -12.5 157.666666667 -10.9166666667 148 -7.75 c 0
 138.333333333 -4.58333333333 129.333333333 0.333333333333 121 7 c 0
 112.666666667 13.6666666667 105.75 22.3333333333 100.25 33 c 0
 94.75 43.6666666667 92 56.5 92 71.5 c 0
 92 84.8333333333 94.5 96.5833333333 99.5 106.75 c 0
 104.5 116.916666667 111 125.333333333 119 132 c 0
 127 138.666666667 135.916666667 143.75 145.75 147.25 c 0
 155.583333333 150.75 165.333333333 152.5 175 152.5 c 0
 184.333333333 152.5 193.916666667 150.666666667 203.75 147 c 0
 213.583333333 143.333333333 222.416666667 138 230.25 131 c 0
 238.083333333 124 244.5 115.5 249.5 105.5 c 0
 254.5 95.5 257 84.1666666667 257 71.5 c 0
EndSplineSet
EndChar

StartChar: quotedbl
Encoding: 5 34 5
Width: 401
VWidth: 500
Flags: HW
LayerCount: 2
Fore
SplineSet
281.5 427 m 0
 241.5 666.5 l 0
 241.5 685.5 246.083333333 701 255.25 713 c 0
 264.416666667 725 279.333333333 731 300 731 c 0
 321 731 336.333333333 725 346 713 c 0
 355.666666667 701 360.5 685.5 360.5 666.5 c 0
 319.5 427 l 0
 281.5 427 l 0
81 427 m 0
 41 666.5 l 0
 41 685.5 45.5833333333 701 54.75 713 c 0
 63.9166666667 725 78.8333333333 731 99.5 731 c 0
 120.166666667 731 135.166666667 725 144.5 713 c 0
 153.833333333 701 158.5 685.5 158.5 666.5 c 0
 119 427 l 0
 81 427 l 0
EndSplineSet
EndChar

StartChar: numbersign
Encoding: 6 35 6
Width: 759
VWidth: 500
Flags: HW
LayerCount: 2
Fore
SplineSet
539.5 424 m 0
 495.5 289 l 0
 654.5 289 l 0
 654.5 224.5 l 0
 473 224.5 l 0
 395.5 -24.5 l 0
 324.5 -7 l 0
 400.5 224.5 l 0
 272.5 224.5 l 0
 192.5 -24.5 l 0
 124 -6 l 0
 200.5 224.5 l 0
 63.5 224.5 l 0
 63.5 289 l 0
 221 289 l 0
 265 424 l 0
 113.5 424 l 0
 113.5 491.5 l 0
 286.5 491.5 l 0
 365.5 727 l 0
 434 708.5 l 0
 358.5 491.5 l 0
 491.5 491.5 l 0
 567.5 727 l 0
 638 707.5 l 0
 561 491.5 l 0
 695.5 491.5 l 0
 695.5 424 l 0
 539.5 424 l 0
339 424 m 0
 294 289 l 0
 421 289 l 0
 468 424 l 0
 339 424 l 0
EndSplineSet
EndChar

StartChar: dollar
Encoding: 7 36 7
Width: 601
VWidth: 500
Flags: HW
LayerCount: 2
Fore
SplineSet
547 210 m 0
 547 180.666666667 541.583333333 154.166666667 530.75 130.5 c 0
 519.916666667 106.833333333 504.666666667 86.1666666667 485 68.5 c 0
 465.333333333 50.8333333333 441.916666667 36.3333333333 414.75 25 c 0
 387.583333333 13.6666666667 357.833333333 5.66666666667 325.5 1 c 0
 325.5 -104.5 l 0
 265 -104.5 l 0
 265 0 l 0
 241.333333333 1 217.333333333 3 193 6 c 0
 172 8.66666666667 149.333333333 12.1666666667 125 16.5 c 0
 100.666666667 20.8333333333 77.5 26.6666666667 55.5 34 c 0
 55.5 211 l 0
 128 211 l 0
 149.5 91 l 0
 160.166666667 84.3333333333 172.166666667 79.1666666667 185.5 75.5 c 0
 198.833333333 71.8333333333 211.333333333 69.1666666667 223 67.5 c 0
 236.666666667 65.5 250.666666667 64.1666666667 265 63.5 c 0
 265 289 l 0
 252.333333333 292.666666667 238.5 297 223.5 302 c 0
 208.5 307 193.416666667 313 178.25 320 c 0
 163.083333333 327 148.5 335.416666667 134.5 345.25 c 0
 120.5 355.083333333 108.083333333 366.75 97.25 380.25 c 0
 86.4166666667 393.75 77.75 409.416666667 71.25 427.25 c 0
 64.75 445.083333333 61.5 465.5 61.5 488.5 c 0
 61.5 511.833333333 64.4166666667 532.5 70.25 550.5 c 0
 76.0833333333 568.5 83.75 584.333333333 93.25 598 c 0
 102.75 611.666666667 113.583333333 623.25 125.75 632.75 c 0
 137.916666667 642.25 150.333333333 650.166666667 163 656.5 c 0
 193 671.5 227 680.666666667 265 684 c 0
 265 760 l 0
 325.5 760 l 0
 325.5 684 l 0
 346.5 684 367.916666667 682.416666667 389.75 679.25 c 0
 411.583333333 676.083333333 431.5 672.666666667 449.5 669 c 0
 470.5 664.666666667 491 659.833333333 511 654.5 c 0
 511 483.5 l 0
 440.5 483.5 l 0
 421 597 l 0
 420.333333333 599.333333333 415.75 601.916666667 407.25 604.75 c 0
 398.75 607.583333333 389.083333333 610.25 378.25 612.75 c 0
 367.416666667 615.25 356.916666667 617.333333333 346.75 619 c 0
 336.583333333 620.666666667 329.5 621.5 325.5 621.5 c 0
 325.5 410.5 l 0
 336.833333333 407.5 350.166666667 403.75 365.5 399.25 c 0
 380.833333333 394.75 396.666666667 389.083333333 413 382.25 c 0
 429.333333333 375.416666667 445.5 367.083333333 461.5 357.25 c 0
 477.5 347.416666667 491.833333333 335.583333333 504.5 321.75 c 0
 517.166666667 307.916666667 527.416666667 291.833333333 535.25 273.5 c 0
 543.083333333 255.166666667 547 234 547 210 c 0
265 618.5 m 0
 251.333333333 616.5 239 612 228 605 c 0
 218.666666667 598.666666667 210.25 589.333333333 202.75 577 c 0
 195.25 564.666666667 191.5 547.5 191.5 525.5 c 0
 191.5 504.5 195.25 487.5 202.75 474.5 c 0
 210.25 461.5 218.666666667 451.333333333 228 444 c 0
 239 435.333333333 251.333333333 429 265 425 c 0
 265 618.5 l 0
417 173 m 0
 417 190 413.833333333 204.333333333 407.5 216 c 0
 401.166666667 227.666666667 393.416666667 237.333333333 384.25 245 c 0
 375.083333333 252.666666667 365.166666667 258.75 354.5 263.25 c 0
 343.833333333 267.75 334.166666667 271.166666667 325.5 273.5 c 0
 325.5 66.5 l 0
 342.5 68.8333333333 357.666666667 74.1666666667 371 82.5 c 0
 376.666666667 85.8333333333 382.25 90.1666666667 387.75 95.5 c 0
 393.25 100.833333333 398.166666667 107.083333333 402.5 114.25 c 0
 406.833333333 121.416666667 410.333333333 129.833333333 413 139.5 c 0
 415.666666667 149.166666667 417 160.333333333 417 173 c 0
EndSplineSet
EndChar

StartChar: percent
Encoding: 8 37 8
Width: 915
VWidth: 500
Flags: HW
LayerCount: 2
Fore
SplineSet
886 197.5 m 0
 886 164.166666667 882.25 134.333333333 874.75 108 c 0
 867.25 81.6666666667 856.166666667 59.25 841.5 40.75 c 0
 826.833333333 22.25 808.5 8.08333333333 786.5 -1.75 c 0
 764.5 -11.5833333333 738.833333333 -16.5 709.5 -16.5 c 0
 680.5 -16.5 655.083333333 -11.5833333333 633.25 -1.75 c 0
 611.416666667 8.08333333333 593.25 22.25 578.75 40.75 c 0
 564.25 59.25 553.416666667 81.6666666667 546.25 108 c 0
 539.083333333 134.333333333 535.5 164.166666667 535.5 197.5 c 0
 535.5 230.833333333 539.083333333 260.75 546.25 287.25 c 0
 553.416666667 313.75 564.25 336.166666667 578.75 354.5 c 0
 593.25 372.833333333 611.416666667 386.916666667 633.25 396.75 c 0
 655.083333333 406.583333333 680.5 411.5 709.5 411.5 c 0
 738.833333333 411.5 764.5 406.583333333 786.5 396.75 c 0
 808.5 386.916666667 826.833333333 372.833333333 841.5 354.5 c 0
 856.166666667 336.166666667 867.25 313.75 874.75 287.25 c 0
 882.25 260.75 886 230.833333333 886 197.5 c 0
281.5 0 m 0
 209 0 l 0
 634 687 l 0
 707.5 687 l 0
 281.5 0 l 0
381 489.5 m 0
 381 456.166666667 377.333333333 426.25 370 399.75 c 0
 362.666666667 373.25 351.75 350.75 337.25 332.25 c 0
 322.75 313.75 304.5 299.5 282.5 289.5 c 0
 260.5 279.5 235 274.5 206 274.5 c 0
 176.666666667 274.5 151 279.5 129 289.5 c 0
 107 299.5 88.5833333333 313.75 73.75 332.25 c 0
 58.9166666667 350.75 47.8333333333 373.25 40.5 399.75 c 0
 33.1666666667 426.25 29.5 456.166666667 29.5 489.5 c 0
 29.5 522.833333333 33.1666666667 552.666666667 40.5 579 c 0
 47.8333333333 605.333333333 58.9166666667 627.75 73.75 646.25 c 0
 88.5833333333 664.75 107 678.916666667 129 688.75 c 0
 151 698.583333333 176.666666667 703.5 206 703.5 c 0
 235 703.5 260.5 698.583333333 282.5 688.75 c 0
 304.5 678.916666667 322.75 664.75 337.25 646.25 c 0
 351.75 627.75 362.666666667 605.333333333 370 579 c 0
 377.333333333 552.666666667 381 522.833333333 381 489.5 c 0
774 197.5 m 0
 774 228.833333333 772.416666667 255.166666667 769.25 276.5 c 0
 766.083333333 297.833333333 761.666666667 314.916666667 756 327.75 c 0
 750.333333333 340.583333333 743.5 349.75 735.5 355.25 c 0
 727.5 360.75 718.833333333 363.5 709.5 363.5 c 0
 700.5 363.5 691.75 360.75 683.25 355.25 c 0
 674.75 349.75 667.333333333 340.583333333 661 327.75 c 0
 654.666666667 314.916666667 649.583333333 297.833333333 645.75 276.5 c 0
 641.916666667 255.166666667 640 228.833333333 640 197.5 c 0
 640 165.833333333 641.916666667 139.416666667 645.75 118.25 c 0
 649.583333333 97.0833333333 654.666666667 80.0833333333 661 67.25 c 0
 667.333333333 54.4166666667 674.75 45.25 683.25 39.75 c 0
 691.75 34.25 700.5 31.5 709.5 31.5 c 0
 718.833333333 31.5 727.5 34.25 735.5 39.75 c 0
 743.5 45.25 750.333333333 54.4166666667 756 67.25 c 0
 761.666666667 80.0833333333 766.083333333 97.0833333333 769.25 118.25 c 0
 772.416666667 139.416666667 774 165.833333333 774 197.5 c 0
270.5 489.5 m 0
 270.5 520.833333333 268.833333333 547.166666667 265.5 568.5 c 0
 262.166666667 589.833333333 257.666666667 606.916666667 252 619.75 c 0
 246.333333333 632.583333333 239.5 641.75 231.5 647.25 c 0
 223.5 652.75 215 655.5 206 655.5 c 0
 196.333333333 655.5 187.166666667 652.75 178.5 647.25 c 0
 169.833333333 641.75 162.083333333 632.583333333 155.25 619.75 c 0
 148.416666667 606.916666667 143 589.833333333 139 568.5 c 0
 135 547.166666667 133 520.833333333 133 489.5 c 0
 133 457.833333333 135 431.333333333 139 410 c 0
 143 388.666666667 148.416666667 371.5 155.25 358.5 c 0
 162.083333333 345.5 169.833333333 336.25 178.5 330.75 c 0
 187.166666667 325.25 196.333333333 322.5 206 322.5 c 0
 215 322.5 223.5 325.25 231.5 330.75 c 0
 239.5 336.25 246.333333333 345.5 252 358.5 c 0
 257.666666667 371.5 262.166666667 388.666666667 265.5 410 c 0
 268.833333333 431.333333333 270.5 457.833333333 270.5 489.5 c 0
EndSplineSet
EndChar

StartChar: ampersand
Encoding: 9 38 9
Width: 752
VWidth: 500
Flags: HW
LayerCount: 2
Fore
SplineSet
386 537.5 m 0
 386 551.5 384.166666667 564.666666667 380.5 577 c 0
 376.833333333 589.333333333 371.5 600.083333333 364.5 609.25 c 0
 357.5 618.416666667 349 625.666666667 339 631 c 0
 329 636.333333333 317.666666667 639 305 639 c 0
 293.333333333 639 282.5 637 272.5 633 c 0
 262.5 629 253.833333333 623.5 246.5 616.5 c 0
 239.166666667 609.5 233.416666667 601.083333333 229.25 591.25 c 0
 225.083333333 581.416666667 223 570.666666667 223 559 c 0
 223 547.666666667 224.75 536.416666667 228.25 525.25 c 0
 231.75 514.083333333 237.416666667 502.5 245.25 490.5 c 0
 253.083333333 478.5 263.166666667 465.666666667 275.5 452 c 0
 287.833333333 438.333333333 302.833333333 423.5 320.5 407.5 c 0
 330.833333333 416.833333333 340.083333333 426.166666667 348.25 435.5 c 0
 356.416666667 444.833333333 363.333333333 454.583333333 369 464.75 c 0
 374.666666667 474.916666667 378.916666667 485.916666667 381.75 497.75 c 0
 384.583333333 509.583333333 386 522.833333333 386 537.5 c 0
225.5 328.5 m 0
 216.166666667 322.166666667 208 314.666666667 201 306 c 0
 195 298.333333333 189.5 288.666666667 184.5 277 c 0
 179.5 265.333333333 177 251.5 177 235.5 c 0
 177 206.5 181.416666667 181.833333333 190.25 161.5 c 0
 199.083333333 141.166666667 210.666666667 124.666666667 225 112 c 0
 239.333333333 99.3333333333 255.5 90.1666666667 273.5 84.5 c 0
 291.5 78.8333333333 309.5 76 327.5 76 c 0
 344.833333333 76 359.75 78.0833333333 372.25 82.25 c 0
 384.75 86.4166666667 395.166666667 91 403.5 96 c 0
 413.166666667 102 421.333333333 108.833333333 428 116.5 c 0
 225.5 328.5 l 0
513 0 m 0
 513 24.5 l 0
 470 72.5 l 0
 454 56.5 435.5 42.3333333333 414.5 30 c 0
 405.5 24.6666666667 395.5 19.4166666667 384.5 14.25 c 0
 373.5 9.08333333333 361.5 4.5 348.5 0.5 c 0
 335.5 -3.5 321.583333333 -6.66666666667 306.75 -9 c 0
 291.916666667 -11.3333333333 276.333333333 -12.5 260 -12.5 c 0
 227 -12.5 196.916666667 -7.66666666667 169.75 2 c 0
 142.583333333 11.6666666667 119.333333333 25.25 100 42.75 c 0
 80.6666666667 60.25 65.6666666667 81.3333333333 55 106 c 0
 44.3333333333 130.666666667 39 158.166666667 39 188.5 c 0
 39 212.833333333 42.4166666667 234.333333333 49.25 253 c 0
 56.0833333333 271.666666667 65.8333333333 288.166666667 78.5 302.5 c 0
 91.1666666667 316.833333333 106.333333333 329 124 339 c 0
 141.666666667 349 161.166666667 357.5 182.5 364.5 c 0
 181.5 365.166666667 178.833333333 367.166666667 174.5 370.5 c 0
 169.5 374.166666667 163.5 379.25 156.5 385.75 c 0
 149.5 392.25 142 400.083333333 134 409.25 c 0
 126 418.416666667 118.583333333 428.916666667 111.75 440.75 c 0
 104.916666667 452.583333333 99.25 465.666666667 94.75 480 c 0
 90.25 494.333333333 88 509.833333333 88 526.5 c 0
 88 554.833333333 93.9166666667 579.833333333 105.75 601.5 c 0
 117.583333333 623.166666667 133.583333333 641.333333333 153.75 656 c 0
 173.916666667 670.666666667 197.5 681.75 224.5 689.25 c 0
 251.5 696.75 280.166666667 700.5 310.5 700.5 c 0
 323.833333333 700.5 338.083333333 699.5 353.25 697.5 c 0
 368.416666667 695.5 383.5 692 398.5 687 c 0
 413.5 682 427.916666667 675.5 441.75 667.5 c 0
 455.583333333 659.5 467.75 649.583333333 478.25 637.75 c 0
 488.75 625.916666667 497.166666667 611.833333333 503.5 595.5 c 0
 509.833333333 579.166666667 513 560.5 513 539.5 c 0
 513 516.5 509.5 496.5 502.5 479.5 c 0
 495.5 462.5 486.666666667 447.75 476 435.25 c 0
 465.333333333 422.75 453.666666667 412.416666667 441 404.25 c 0
 428.333333333 396.083333333 416.333333333 389.583333333 405 384.75 c 0
 393.666666667 379.916666667 383.75 376.416666667 375.25 374.25 c 0
 366.75 372.083333333 361.5 370.833333333 359.5 370.5 c 0
 517 207 l 0
 525 217.333333333 532.5 228.5 539.5 240.5 c 0
 545.5 250.833333333 551.5 262.916666667 557.5 276.75 c 0
 563.5 290.583333333 568.166666667 305.5 571.5 321.5 c 0
 571.833333333 324.5 570.666666667 328 568 332 c 0
 565.333333333 336 563 338.333333333 561 339 c 0
 508 348 l 0
 508 396.5 l 0
 723 396.5 l 0
 723 348 l 0
 652.5 334 l 0
 644.166666667 307 634.5 283 623.5 262 c 0
 612.5 241 602.166666667 223.166666667 592.5 208.5 c 0
 580.833333333 191.5 569 176.666666667 557 164 c 0
 653.5 60.5 l 0
 736.5 52 l 0
 736.5 0 l 0
 513 0 l 0
EndSplineSet
EndChar

StartChar: quotesingle
Encoding: 10 39 10
Width: 180
VWidth: 500
Flags: HW
LayerCount: 2
Fore
SplineSet
71.5 427 m 0
 31.5 666.5 l 0
 31.5 685.5 36 701 45 713 c 0
 54 725 69 731 90 731 c 0
 110.666666667 731 125.75 725 135.25 713 c 0
 144.75 701 149.5 685.5 149.5 666.5 c 0
 108.5 427 l 0
 71.5 427 l 0
EndSplineSet
EndChar

StartChar: parenleft
Encoding: 11 40 11
Width: 401
VWidth: 500
Flags: HW
LayerCount: 2
Fore
SplineSet
366.5 -145.5 m 0
 316.166666667 -144.166666667 271.916666667 -133 233.75 -112 c 0
 195.583333333 -91 163.666666667 -61.5 138 -23.5 c 0
 112.333333333 14.5 93 60.3333333333 80 114 c 0
 67 167.666666667 60.5 228 60.5 295 c 0
 60.5 361.666666667 67 421.75 80 475.25 c 0
 93 528.75 112.333333333 574.416666667 138 612.25 c 0
 163.666666667 650.083333333 195.583333333 679.416666667 233.75 700.25 c 0
 271.916666667 721.083333333 316.166666667 732.333333333 366.5 734 c 0
 366.5 679 l 0
 330.5 674 301.083333333 661.083333333 278.25 640.25 c 0
 255.416666667 619.416666667 237.5 592.166666667 224.5 558.5 c 0
 211.5 524.833333333 202.583333333 485.583333333 197.75 440.75 c 0
 192.916666667 395.916666667 190.5 347.333333333 190.5 295 c 0
 190.5 242.333333333 192.916666667 193.583333333 197.75 148.75 c 0
 202.583333333 103.916666667 211.5 64.6666666667 224.5 31 c 0
 237.5 -2.66666666667 255.416666667 -30 278.25 -51 c 0
 301.083333333 -72 330.5 -85 366.5 -90 c 0
 366.5 -145.5 l 0
EndSplineSet
EndChar

StartChar: parenright
Encoding: 12 41 12
Width: 401
VWidth: 500
Flags: HW
LayerCount: 2
Fore
SplineSet
341 295 m 0
 341 228 334.5 167.666666667 321.5 114 c 0
 308.5 60.3333333333 289.083333333 14.5 263.25 -23.5 c 0
 237.416666667 -61.5 205.416666667 -91 167.25 -112 c 0
 129.083333333 -133 85 -144.166666667 35 -145.5 c 0
 35 -90 l 0
 70.6666666667 -85 99.9166666667 -72 122.75 -51 c 0
 145.583333333 -30 163.5 -2.66666666667 176.5 31 c 0
 189.5 64.6666666667 198.5 103.916666667 203.5 148.75 c 0
 208.5 193.583333333 211 242.333333333 211 295 c 0
 211 347.333333333 208.5 395.916666667 203.5 440.75 c 0
 198.5 485.583333333 189.5 524.833333333 176.5 558.5 c 0
 163.5 592.166666667 145.583333333 619.416666667 122.75 640.25 c 0
 99.9166666667 661.083333333 70.6666666667 674 35 679 c 0
 35 734 l 0
 85 732.333333333 129.083333333 721.083333333 167.25 700.25 c 0
 205.416666667 679.416666667 237.416666667 650.083333333 263.25 612.25 c 0
 289.083333333 574.416666667 308.5 528.75 321.5 475.25 c 0
 334.5 421.75 341 361.666666667 341 295 c 0
EndSplineSet
EndChar

StartChar: asterisk
Encoding: 13 42 13
Width: 512
VWidth: 500
Flags: HW
LayerCount: 2
Fore
SplineSet
412.5 518 m 0
 280.5 519 l 0
 273.5 534.5 l 0
 382 614.5 l 0
 457.5 584.5 l 0
 412.5 518 l 0
264 546 m 0
 247 546 l 0
 205 674 l 0
 256 735 l 0
 307 674 l 0
 264 546 l 0
381 346 m 0
 303 366.5 l 0
 262 493.5 l 0
 274.5 506 l 0
 384 426 l 0
 381 346 l 0
231.5 519 m 0
 98.5 518 l 0
 54.5 584.5 l 0
 128 614.5 l 0
 237.5 533.5 l 0
 231.5 519 l 0
209 366.5 m 0
 131 346 l 0
 128 426 l 0
 237.5 506 l 0
 250 493.5 l 0
 209 366.5 l 0
EndSplineSet
EndChar

StartChar: plus
Encoding: 14 43 14
Width: 1024
VWidth: 500
Flags: HW
LayerCount: 2
Fore
SplineSet
543.5 275.5 m 0
 543.5 0 l 0
 480.5 0 l 0
 480.5 275.5 l 0
 205 275.5 l 0
 205 339 l 0
 480.5 339 l 0
 480.5 614.5 l 0
 543.5 614.5 l 0
 543.5 339 l 0
 819 339 l 0
 819 275.5 l 0
 543.5 275.5 l 0
EndSplineSet
EndChar

StartChar: comma
Encoding: 15 44 15
Width: 325
VWidth: 500
Flags: HW
LayerCount: 2
Fore
SplineSet
248 60.5 m 0
 248 39.1666666667 245 18.6666666667 239 -1 c 0
 233 -20.6666666667 224.916666667 -39.25 214.75 -56.75 c 0
 204.583333333 -74.25 192.583333333 -90.25 178.75 -104.75 c 0
 164.916666667 -119.25 150.166666667 -131.916666667 134.5 -142.75 c 0
 118.833333333 -153.583333333 102.583333333 -162.25 85.75 -168.75 c 0
 68.9166666667 -175.25 52.3333333333 -179 36 -180 c 0
 36 -130 l 0
 49 -128 62.9166666667 -124.25 77.75 -118.75 c 0
 92.5833333333 -113.25 106.166666667 -105.166666667 118.5 -94.5 c 0
 130.833333333 -83.8333333333 140.833333333 -70.25 148.5 -53.75 c 0
 156.166666667 -37.25 159.5 -17 158.5 7 c 0
 96.5 7 l 0
 90.1666666667 12 85 17.25 81 22.75 c 0
 77 28.25 73.75 33.8333333333 71.25 39.5 c 0
 68.75 45.1666666667 67 50.8333333333 66 56.5 c 0
 65 62.1666666667 64.5 67.5 64.5 72.5 c 0
 64.5 85.5 66.9166666667 97.25 71.75 107.75 c 0
 76.5833333333 118.25 83 127.25 91 134.75 c 0
 99 142.25 108.166666667 148.083333333 118.5 152.25 c 0
 128.833333333 156.416666667 139.5 158.5 150.5 158.5 c 0
 181.5 158.5 205.5 149.666666667 222.5 132 c 0
 239.5 114.333333333 248 90.5 248 60.5 c 0
EndSplineSet
EndChar

StartChar: hyphen
Encoding: 16 45 16
Width: 336
VWidth: 500
Flags: HW
LayerCount: 2
Fore
SplineSet
34 192.5 m 0
 34 301 l 0
 302 301 l 0
 302 192.5 l 0
 34 192.5 l 0
EndSplineSet
EndChar

StartChar: period
Encoding: 17 46 17
Width: 325
VWidth: 500
Flags: HW
LayerCount: 2
Fore
SplineSet
235.5 72.5 m 0
 235.5 60.8333333333 233.333333333 49.8333333333 229 39.5 c 0
 224.666666667 29.1666666667 218.666666667 20.1666666667 211 12.5 c 0
 203.333333333 4.83333333333 194.333333333 -1.25 184 -5.75 c 0
 173.666666667 -10.25 162.5 -12.5 150.5 -12.5 c 0
 138.833333333 -12.5 127.75 -10.25 117.25 -5.75 c 0
 106.75 -1.25 97.5833333333 4.83333333333 89.75 12.5 c 0
 81.9166666667 20.1666666667 75.75 29.1666666667 71.25 39.5 c 0
 66.75 49.8333333333 64.5 60.8333333333 64.5 72.5 c 0
 64.5 84.5 66.75 95.6666666667 71.25 106 c 0
 75.75 116.333333333 81.9166666667 125.416666667 89.75 133.25 c 0
 97.5833333333 141.083333333 106.75 147.25 117.25 151.75 c 0
 127.75 156.25 138.833333333 158.5 150.5 158.5 c 0
 162.5 158.5 173.666666667 156.25 184 151.75 c 0
 194.333333333 147.25 203.333333333 141.083333333 211 133.25 c 0
 218.666666667 125.416666667 224.666666667 116.333333333 229 106 c 0
 233.333333333 95.6666666667 235.5 84.5 235.5 72.5 c 0
EndSplineSet
EndChar

StartChar: slash
Encoding: 18 47 18
Width: 513
VWidth: 500
Flags: HW
LayerCount: 2
Fore
SplineSet
80 -95 m 0
 0 -95 l 0
 432 687 l 0
 513 687 l 0
 80 -95 l 0
EndSplineSet
EndChar

StartChar: zero
Encoding: 19 48 19
Width: 792
VWidth: 500
Flags: HW
LayerCount: 2
Fore
SplineSet
668 157 m 0
 668 528 l 0
 668 538.666666667 663.833333333 548.166666667 655.5 556.5 c 0
 647.166666667 564.833333333 636 569 622 569 c 0
 516 569 l 0
 500.666666667 569 491.833333333 568.833333333 489.5 568.5 c 0
 487.166666667 568.166666667 483 565 477 559 c 0
 467 547 462 537 462 529 c 0
 462 154 l 0
 462 143.333333333 467.5 134.333333333 478.5 127 c 0
 489.5 119.666666667 502.333333333 116 517 116 c 0
 623 116 l 0
 633.666666667 116 644.333333333 120.666666667 655 130 c 0
 663 140 667.333333333 149 668 157 c 0
803 124 m 0
 803 102 796 81.6666666667 782 63 c 0
 774.666666667 54.3333333333 766.666666667 46.1666666667 758 38.5 c 0
 749.333333333 30.8333333333 740.333333333 24.6666666667 731 20 c 0
 705 8 680.333333333 2 657 2 c 0
 473 3 l 0
 432.333333333 3 398 17.3333333333 370 46 c 0
 340.666666667 72 326 105 326 145 c 0
 326 563 l 0
 326 595.666666667 341.666666667 624.333333333 373 649 c 0
 405.666666667 671 443.666666667 682 487 682 c 0
 649 682 l 0
 694.333333333 682 731 668 759 640 c 0
 773.666666667 627.333333333 784.666666667 612.166666667 792 594.5 c 0
 799.333333333 576.833333333 803 557.333333333 803 536 c 0
 803 124 l 0
EndSplineSet
EndChar

StartChar: one
Encoding: 20 49 20
Width: 792
VWidth: 500
Flags: HW
LayerCount: 2
Fore
SplineSet
803 0 m 0
 409 0 l 0
 409 113 l 0
 539 113 l 0
 539 535 l 0
 539 545.666666667 537.5 553.333333333 534.5 558 c 0
 531.5 562.666666667 527.333333333 565.666666667 522 567 c 0
 410 567 l 0
 410 680 l 0
 543 680 l 0
 581 680 611.666666667 668.333333333 635 645 c 0
 661.666666667 621 675 592.666666667 675 560 c 0
 675 111 l 0
 803 111 l 0
 803 0 l 0
EndSplineSet
EndChar

StartChar: two
Encoding: 21 50 21
Width: 792
VWidth: 500
Flags: HW
LayerCount: 2
Fore
SplineSet
803 0 m 0
 311 0 l 0
 311 250 l 0
 311 270 314.666666667 287.166666667 322 301.5 c 0
 329.333333333 315.833333333 341.666666667 328.333333333 359 339 c 0
 392.333333333 363.666666667 430.666666667 376 474 376 c 0
 633 376 l 0
 639 376 646 381 654 391 c 0
 660 401.666666667 663 413.333333333 663 426 c 0
 663 543 l 0
 663 548.333333333 661.333333333 553.666666667 658 559 c 0
 654.666666667 561.666666667 649 563 641 563 c 0
 483 563 l 0
 469 563 458 560.666666667 450 556 c 0
 445.333333333 554.666666667 443 550.333333333 443 543 c 0
 443 445 l 0
 309 445 l 0
 309 575 l 0
 309 605.666666667 322.166666667 630.333333333 348.5 649 c 0
 374.833333333 667.666666667 407 677 445 677 c 0
 660 677 l 0
 698.666666667 677 731.333333333 666 758 644 c 0
 784.666666667 620 798 591.333333333 798 558 c 0
 798 418 l 0
 798 390 791.666666667 364 779 340 c 0
 771 326 763.166666667 314.666666667 755.5 306 c 0
 747.833333333 297.333333333 738.666666667 290 728 284 c 0
 704 269.333333333 679.666666667 262 655 262 c 0
 485 262 l 0
 468.333333333 262 457 260.666666667 451 258 c 0
 446 256 l 0
 446 112 l 0
 804 112 l 0
 803 0 l 0
EndSplineSet
EndChar

StartChar: three
Encoding: 22 51 22
Width: 792
VWidth: 500
Flags: HW
LayerCount: 2
Fore
SplineSet
803 116 m 0
 803 84.6666666667 789.833333333 57.6666666667 763.5 35 c 0
 737.166666667 12.3333333333 707 1 673 1 c 0
 459 2 l 0
 420.333333333 2 386.333333333 11.3333333333 357 30 c 0
 328.333333333 50 314 74.3333333333 314 103 c 0
 314 205 l 0
 448 205 l 0
 448 144 l 0
 448 136 451.5 129 458.5 123 c 0
 465.5 117 475.333333333 114 488 114 c 0
 623 114 l 0
 635 114 645.666666667 117.333333333 655 124 c 0
 664.333333333 130.666666667 669 140 669 152 c 0
 669 262 l 0
 669 272 665 282 657 292 c 0
 649 299.333333333 638 303 624 303 c 0
 571 303 l 0
 571 416 l 0
 615 416 l 0
 627.666666667 416 640.333333333 419.666666667 653 427 c 0
 663 430.333333333 668 434.333333333 668 439 c 0
 668 532 l 0
 668 541.333333333 665 550 659 558 c 0
 653.666666667 562.666666667 646.333333333 565 637 565 c 0
 488 565 l 0
 475.333333333 565 465 562.666666667 457 558 c 0
 451.666666667 553.333333333 449 546.333333333 449 537 c 0
 449 486 l 0
 315 486 l 0
 315 591 l 0
 315 617.666666667 328 638.833333333 354 654.5 c 0
 380 670.166666667 412.333333333 678 451 678 c 0
 675 678 l 0
 712.333333333 678 743.5 666.333333333 768.5 643 c 0
 793.5 619.666666667 806 591.333333333 806 558 c 0
 806 458 l 0
 806 438.666666667 797.666666667 418.333333333 781 397 c 0
 776.333333333 391.666666667 769.833333333 386 761.5 380 c 0
 753.166666667 374 744.333333333 368.333333333 735 363 c 0
 754.333333333 353.666666667 769 342 779 328 c 0
 796.333333333 304.666666667 805 280.666666667 805 256 c 0
 803 116 l 0
EndSplineSet
EndChar

StartChar: four
Encoding: 23 52 23
Width: 792
VWidth: 500
Flags: HW
LayerCount: 2
Fore
SplineSet
803 159 m 0
 704 159 l 0
 704 0 l 0
 569 0 l 0
 569 159 l 0
 386 159 l 0
 354.666666667 159 327.333333333 167.666666667 304 185 c 0
 291.333333333 193 282.333333333 202.333333333 277 213 c 0
 271.666666667 223.666666667 269 235.333333333 269 248 c 0
 269 270.666666667 276.333333333 302 291 342 c 0
 414 679 l 0
 551 679 l 0
 417 331 l 0
 407.666666667 304.333333333 403 285.666666667 403 275 c 0
 402 271 l 0
 571 271 l 0
 571 681 l 0
 706 681 l 0
 706 271 l 0
 805 271 l 0
 803 159 l 0
EndSplineSet
EndChar

StartChar: five
Encoding: 24 53 24
Width: 792
VWidth: 500
Flags: HW
LayerCount: 2
Fore
SplineSet
803 116 m 0
 803 84.6666666667 791.333333333 57.6666666667 768 35 c 0
 744.666666667 12.3333333333 717.333333333 1 686 1 c 0
 391 1 l 0
 361.666666667 1 336.166666667 10.6666666667 314.5 30 c 0
 292.833333333 49.3333333333 282 72 282 98 c 0
 282 218 l 0
 417 218 l 0
 416 140 l 0
 417.333333333 130 419.666666667 124.333333333 423 123 c 0
 433 117.666666667 441 115 447 115 c 0
 647 115 l 0
 650.333333333 115 654.333333333 117.666666667 659 123 c 0
 663.666666667 131.666666667 666 141.333333333 666 152 c 0
 666 301 l 0
 666 311 653 316 627 316 c 0
 279 316 l 0
 279 681 l 0
 787 681 l 0
 787 568 l 0
 415 568 l 0
 415 431 l 0
 662 431 l 0
 702 431 735.166666667 419.333333333 761.5 396 c 0
 787.833333333 372.666666667 801 344 801 310 c 0
 803 116 l 0
EndSplineSet
EndChar

StartChar: six
Encoding: 25 54 25
Width: 792
VWidth: 500
Flags: HW
LayerCount: 2
Fore
SplineSet
669 155 m 0
 669 286 l 0
 669 294 664.166666667 301.5 654.5 308.5 c 0
 644.833333333 315.5 632.333333333 319 617 319 c 0
 433 319 l 0
 433 166 l 0
 433 152 439 140.166666667 451 130.5 c 0
 463 120.833333333 475.333333333 116 488 116 c 0
 616 116 l 0
 630 116 642.333333333 119.833333333 653 127.5 c 0
 663.666666667 135.166666667 669 144.333333333 669 155 c 0
803 130 m 0
 803 94 789.666666667 64 763 40 c 0
 750.333333333 29.3333333333 735.166666667 20.3333333333 717.5 13 c 0
 699.833333333 5.66666666667 682.333333333 2 665 2 c 0
 450 3 l 0
 409.333333333 3 373.666666667 14.1666666667 343 36.5 c 0
 312.333333333 58.8333333333 297 85.6666666667 297 117 c 0
 297 563 l 0
 297 595.666666667 312.333333333 624.333333333 343 649 c 0
 373.666666667 671 409.333333333 682 450 682 c 0
 777 682 l 0
 777 569 l 0
 474 569 l 0
 460 569 449.5 566 442.5 560 c 0
 435.5 554 432 546 432 536 c 0
 432 433 l 0
 650 433 l 0
 695.333333333 433 732.333333333 420.5 761 395.5 c 0
 789.666666667 370.5 804 340 804 304 c 0
 803 130 l 0
EndSplineSet
EndChar

StartChar: seven
Encoding: 26 55 26
Width: 792
VWidth: 500
Flags: HW
LayerCount: 2
Fore
SplineSet
802 553 m 0
 549 0 l 0
 412 0 l 0
 668 558 l 0
 664 566 l 0
 661.333333333 567.333333333 656.333333333 568 649 568 c 0
 426 568 l 0
 426 503 l 0
 291 503 l 0
 291 682 l 0
 674 682 l 0
 711.333333333 682 742 669.666666667 766 645 c 0
 790.666666667 621 802.666666667 590.333333333 802 553 c 0
EndSplineSet
EndChar

StartChar: eight
Encoding: 27 56 27
Width: 792
VWidth: 500
Flags: HW
LayerCount: 2
Fore
SplineSet
669 152 m 0
 669 163 l 0
 669 184.333333333 659 201 639 213 c 0
 564 270 l 0
 471 213 l 0
 456.333333333 202.333333333 449 192.333333333 449 183 c 0
 449 144 l 0
 449 136 452.833333333 129 460.5 123 c 0
 468.166666667 117 479.333333333 114 494 114 c 0
 624 114 l 0
 636 114 646.666666667 117.333333333 656 124 c 0
 665.333333333 130.666666667 669.666666667 140 669 152 c 0
669 541 m 0
 669 549 666.666666667 556 662 562 c 0
 657.333333333 565.333333333 652 567 646 567 c 0
 478 567 l 0
 467.333333333 567 459 566.333333333 453 565 c 0
 449 561 l 0
 449 541 452 528.333333333 458 523 c 0
 561 442 l 0
 653 510 l 0
 663.666666667 514.666666667 669 525 669 541 c 0
803 98 m 0
 803 72 790 49 764 29 c 0
 737.333333333 10.3333333333 707 1 673 1 c 0
 459 2 l 0
 420.333333333 2 386.333333333 11.3333333333 357 30 c 0
 328.333333333 50 314 74.3333333333 314 103 c 0
 314 222 l 0
 314 237.333333333 328.333333333 257.333333333 357 282 c 0
 471 361 l 0
 372 436 l 0
 333.333333333 472 314 499.666666667 314 519 c 0
 314 590 l 0
 314 616.666666667 327 637.833333333 353 653.5 c 0
 379 669.166666667 411.333333333 677 450 677 c 0
 674 677 l 0
 710 677 740 669.333333333 764 654 c 0
 790.666666667 638.666666667 804 617.666666667 804 591 c 0
 804 492 l 0
 804 468 788.333333333 446 757 426 c 0
 641 348 l 0
 720 304 l 0
 776 262 804 228.666666667 804 204 c 0
 803 98 l 0
EndSplineSet
EndChar

StartChar: nine
Encoding: 28 57 28
Width: 792
VWidth: 500
Flags: HW
LayerCount: 2
Fore
SplineSet
666 363 m 0
 666 533 l 0
 666 542.333333333 661.666666667 550.166666667 653 556.5 c 0
 644.333333333 562.833333333 631.333333333 566 614 566 c 0
 476 566 l 0
 460.666666667 566 449.333333333 563.333333333 442 558 c 0
 434.666666667 552.666666667 431 544.666666667 431 534 c 0
 431 402 l 0
 431 392.666666667 436 385.333333333 446 380 c 0
 458 370 471.333333333 365 486 365 c 0
 666 363 l 0
803 138 m 0
 803 100.666666667 786.5 68.3333333333 753.5 41 c 0
 720.5 13.6666666667 681.333333333 0 636 0 c 0
 324 0 l 0
 324 113 l 0
 591 113 l 0
 612.333333333 113 630.666666667 117.666666667 646 127 c 0
 660 137 667 146.666666667 667 156 c 0
 667 251 l 0
 448 251 l 0
 407.333333333 251 371.666666667 262.833333333 341 286.5 c 0
 310.333333333 310.166666667 295 337.333333333 295 368 c 0
 295 573 l 0
 295 591.666666667 302.333333333 610.666666667 317 630 c 0
 331 644.666666667 350.5 656.666666667 375.5 666 c 0
 400.5 675.333333333 427.666666667 680 457 680 c 0
 647 680 l 0
 673.666666667 680 699.333333333 674.166666667 724 662.5 c 0
 748.666666667 650.833333333 767 635.666666667 779 617 c 0
 793.666666667 598.333333333 801 576.666666667 801 552 c 0
 803 138 l 0
EndSplineSet
EndChar

StartChar: colon
Encoding: 29 58 29
Width: 325
VWidth: 500
Flags: HW
LayerCount: 2
Fore
SplineSet
235.5 72.5 m 0
 235.5 60.8333333333 233.333333333 49.8333333333 229 39.5 c 0
 224.666666667 29.1666666667 218.666666667 20.1666666667 211 12.5 c 0
 203.333333333 4.83333333333 194.333333333 -1.25 184 -5.75 c 0
 173.666666667 -10.25 162.5 -12.5 150.5 -12.5 c 0
 138.833333333 -12.5 127.75 -10.25 117.25 -5.75 c 0
 106.75 -1.25 97.5833333333 4.83333333333 89.75 12.5 c 0
 81.9166666667 20.1666666667 75.75 29.1666666667 71.25 39.5 c 0
 66.75 49.8333333333 64.5 60.8333333333 64.5 72.5 c 0
 64.5 84.5 66.75 95.6666666667 71.25 106 c 0
 75.75 116.333333333 81.9166666667 125.416666667 89.75 133.25 c 0
 97.5833333333 141.083333333 106.75 147.25 117.25 151.75 c 0
 127.75 156.25 138.833333333 158.5 150.5 158.5 c 0
 162.5 158.5 173.666666667 156.25 184 151.75 c 0
 194.333333333 147.25 203.333333333 141.083333333 211 133.25 c 0
 218.666666667 125.416666667 224.666666667 116.333333333 229 106 c 0
 233.333333333 95.6666666667 235.5 84.5 235.5 72.5 c 0
235.5 426 m 0
 235.5 414 233.333333333 402.833333333 229 392.5 c 0
 224.666666667 382.166666667 218.666666667 373.166666667 211 365.5 c 0
 203.333333333 357.833333333 194.333333333 351.833333333 184 347.5 c 0
 173.666666667 343.166666667 162.5 341 150.5 341 c 0
 138.833333333 341 127.75 343.166666667 117.25 347.5 c 0
 106.75 351.833333333 97.5833333333 357.833333333 89.75 365.5 c 0
 81.9166666667 373.166666667 75.75 382.166666667 71.25 392.5 c 0
 66.75 402.833333333 64.5 414 64.5 426 c 0
 64.5 437.666666667 66.75 448.75 71.25 459.25 c 0
 75.75 469.75 81.9166666667 478.916666667 89.75 486.75 c 0
 97.5833333333 494.583333333 106.75 500.75 117.25 505.25 c 0
 127.75 509.75 138.833333333 512 150.5 512 c 0
 162.5 512 173.666666667 509.75 184 505.25 c 0
 194.333333333 500.75 203.333333333 494.583333333 211 486.75 c 0
 218.666666667 478.916666667 224.666666667 469.75 229 459.25 c 0
 233.333333333 448.75 235.5 437.666666667 235.5 426 c 0
EndSplineSet
EndChar

StartChar: semicolon
Encoding: 30 59 30
Width: 325
VWidth: 500
Flags: HW
LayerCount: 2
Fore
SplineSet
248 60.5 m 0
 248 39.1666666667 245 18.6666666667 239 -1 c 0
 233 -20.6666666667 224.916666667 -39.25 214.75 -56.75 c 0
 204.583333333 -74.25 192.583333333 -90.25 178.75 -104.75 c 0
 164.916666667 -119.25 150.166666667 -131.916666667 134.5 -142.75 c 0
 118.833333333 -153.583333333 102.583333333 -162.25 85.75 -168.75 c 0
 68.9166666667 -175.25 52.3333333333 -179 36 -180 c 0
 36 -130 l 0
 49 -128 62.9166666667 -124.25 77.75 -118.75 c 0
 92.5833333333 -113.25 106.166666667 -105.166666667 118.5 -94.5 c 0
 130.833333333 -83.8333333333 140.833333333 -70.25 148.5 -53.75 c 0
 156.166666667 -37.25 159.5 -17 158.5 7 c 0
 96.5 7 l 0
 90.1666666667 12 85 17.25 81 22.75 c 0
 77 28.25 73.75 33.8333333333 71.25 39.5 c 0
 68.75 45.1666666667 67 50.8333333333 66 56.5 c 0
 65 62.1666666667 64.5 67.5 64.5 72.5 c 0
 64.5 85.5 66.9166666667 97.25 71.75 107.75 c 0
 76.5833333333 118.25 83 127.25 91 134.75 c 0
 99 142.25 108.166666667 148.083333333 118.5 152.25 c 0
 128.833333333 156.416666667 139.5 158.5 150.5 158.5 c 0
 181.5 158.5 205.5 149.666666667 222.5 132 c 0
 239.5 114.333333333 248 90.5 248 60.5 c 0
235.5 426 m 0
 235.5 414 233.333333333 402.833333333 229 392.5 c 0
 224.666666667 382.166666667 218.666666667 373.166666667 211 365.5 c 0
 203.333333333 357.833333333 194.333333333 351.833333333 184 347.5 c 0
 173.666666667 343.166666667 162.5 341 150.5 341 c 0
 138.833333333 341 127.75 343.166666667 117.25 347.5 c 0
 106.75 351.833333333 97.5833333333 357.833333333 89.75 365.5 c 0
 81.9166666667 373.166666667 75.75 382.166666667 71.25 392.5 c 0
 66.75 402.833333333 64.5 414 64.5 426 c 0
 64.5 437.666666667 66.75 448.75 71.25 459.25 c 0
 75.75 469.75 81.9166666667 478.916666667 89.75 486.75 c 0
 97.5833333333 494.583333333 106.75 500.75 117.25 505.25 c 0
 127.75 509.75 138.833333333 512 150.5 512 c 0
 162.5 512 173.666666667 509.75 184 505.25 c 0
 194.333333333 500.75 203.333333333 494.583333333 211 486.75 c 0
 218.666666667 478.916666667 224.666666667 469.75 229 459.25 c 0
 233.333333333 448.75 235.5 437.666666667 235.5 426 c 0
EndSplineSet
EndChar

StartChar: less
Encoding: 31 60 31
Width: 1024
VWidth: 500
Flags: HW
LayerCount: 2
Fore
SplineSet
205 275.5 m 0
 205 339 l 0
 819 574.5 l 0
 819 511 l 0
 270.5 307 l 0
 819 103.5 l 0
 819 40 l 0
 205 275.5 l 0
EndSplineSet
EndChar

StartChar: equal
Encoding: 32 61 32
Width: 1024
VWidth: 500
Flags: HW
LayerCount: 2
Fore
SplineSet
205 368.5 m 0
 205 432 l 0
 819 432 l 0
 819 368.5 l 0
 205 368.5 l 0
205 182.5 m 0
 205 246 l 0
 819 246 l 0
 819 182.5 l 0
 205 182.5 l 0
EndSplineSet
EndChar

StartChar: greater
Encoding: 33 62 33
Width: 1024
VWidth: 500
Flags: HW
LayerCount: 2
Fore
SplineSet
205 40 m 0
 205 103.5 l 0
 753.5 307 l 0
 205 511 l 0
 205 574.5 l 0
 819 339 l 0
 819 275.5 l 0
 205 40 l 0
EndSplineSet
EndChar

StartChar: question
Encoding: 34 63 34
Width: 534
VWidth: 500
Flags: HW
LayerCount: 2
Fore
SplineSet
469 509 m 0
 469 487.333333333 465.833333333 467.583333333 459.5 449.75 c 0
 453.166666667 431.916666667 444.75 415.75 434.25 401.25 c 0
 423.75 386.75 411.916666667 374 398.75 363 c 0
 385.583333333 352 372 342.333333333 358 334 c 0
 325.333333333 314.666666667 288.333333333 300 247 290 c 0
 247 203 l 0
 177 203 l 0
 177 339 l 0
 204.666666667 346.333333333 229.333333333 357.5 251 372.5 c 0
 260.333333333 378.833333333 269.416666667 386.333333333 278.25 395 c 0
 287.083333333 403.666666667 295 413.666666667 302 425 c 0
 309 436.333333333 314.666666667 449.083333333 319 463.25 c 0
 323.333333333 477.416666667 325.5 493.333333333 325.5 511 c 0
 325.5 530.333333333 322.75 547.916666667 317.25 563.75 c 0
 311.75 579.583333333 303.416666667 593.25 292.25 604.75 c 0
 281.083333333 616.25 267.083333333 625.166666667 250.25 631.5 c 0
 233.416666667 637.833333333 213.833333333 641 191.5 641 c 0
 145.5 518 l 0
 145.166666667 517.666666667 144.333333333 517.333333333 143 517 c 0
 142 516.666666667 140.75 516.416666667 139.25 516.25 c 0
 137.75 516.083333333 135.666666667 516 133 516 c 0
 126.333333333 516 118 516.416666667 108 517.25 c 0
 98 518.083333333 88.3333333333 520.666666667 79 525 c 0
 69.6666666667 529.333333333 61.6666666667 535.833333333 55 544.5 c 0
 48.3333333333 553.166666667 45 565.5 45 581.5 c 0
 45 603.833333333 51.0833333333 622.75 63.25 638.25 c 0
 75.4166666667 653.75 90.8333333333 666.333333333 109.5 676 c 0
 128.166666667 685.666666667 148.833333333 692.666666667 171.5 697 c 0
 194.166666667 701.333333333 215.833333333 703.5 236.5 703.5 c 0
 269.5 703.5 300.166666667 698.916666667 328.5 689.75 c 0
 356.833333333 680.583333333 381.416666667 667.583333333 402.25 650.75 c 0
 423.083333333 633.916666667 439.416666667 613.5 451.25 589.5 c 0
 463.083333333 565.5 469 538.666666667 469 509 c 0
296 66.5 m 0
 296 55.1666666667 293.75 44.6666666667 289.25 35 c 0
 284.75 25.3333333333 278.666666667 17 271 10 c 0
 263.333333333 3 254.416666667 -2.5 244.25 -6.5 c 0
 234.083333333 -10.5 223.333333333 -12.5 212 -12.5 c 0
 201 -12.5 190.75 -10.25 181.25 -5.75 c 0
 171.75 -1.25 163.5 4.83333333333 156.5 12.5 c 0
 149.5 20.1666666667 144 29 140 39 c 0
 136 49 134 59.5 134 70.5 c 0
 134 81.8333333333 136.083333333 92.4166666667 140.25 102.25 c 0
 144.416666667 112.083333333 150 120.75 157 128.25 c 0
 164 135.75 172.333333333 141.666666667 182 146 c 0
 191.666666667 150.333333333 202 152.5 213 152.5 c 0
 225.333333333 152.5 236.583333333 150.166666667 246.75 145.5 c 0
 256.916666667 140.833333333 265.666666667 134.583333333 273 126.75 c 0
 280.333333333 118.916666667 286 109.75 290 99.25 c 0
 294 88.75 296 77.8333333333 296 66.5 c 0
EndSplineSet
EndChar

StartChar: at
Encoding: 35 64 35
Width: 958
VWidth: 500
Flags: HW
LayerCount: 2
Fore
SplineSet
583.5 397.5 m 0
 584.5 401.5 584.25 406.583333333 582.75 412.75 c 0
 581.25 418.916666667 578.666666667 424.833333333 575 430.5 c 0
 571.333333333 436.166666667 566.333333333 441.083333333 560 445.25 c 0
 553.666666667 449.416666667 546.166666667 451.5 537.5 451.5 c 0
 516.833333333 451.5 497.416666667 446 479.25 435 c 0
 461.083333333 424 445.166666667 408.75 431.5 389.25 c 0
 417.833333333 369.75 407 346.5 399 319.5 c 0
 391 292.5 387 263.166666667 387 231.5 c 0
 387 212.166666667 388.916666667 195.75 392.75 182.25 c 0
 396.583333333 168.75 401.666666667 157.75 408 149.25 c 0
 414.333333333 140.75 421.333333333 134.583333333 429 130.75 c 0
 436.666666667 126.916666667 444.5 125 452.5 125 c 0
 463.5 125 473.416666667 127.083333333 482.25 131.25 c 0
 491.083333333 135.416666667 499.083333333 140.666666667 506.25 147 c 0
 513.416666667 153.333333333 520 160.166666667 526 167.5 c 0
 532 174.833333333 537.5 181.5 542.5 187.5 c 0
 583.5 397.5 l 0
899 377 m 0
 899 343 895.25 311.416666667 887.75 282.25 c 0
 880.25 253.083333333 870.083333333 226.416666667 857.25 202.25 c 0
 844.416666667 178.083333333 829.416666667 156.583333333 812.25 137.75 c 0
 795.083333333 118.916666667 776.666666667 103.083333333 757 90.25 c 0
 737.333333333 77.4166666667 717.083333333 67.6666666667 696.25 61 c 0
 675.416666667 54.3333333333 655 51 635 51 c 0
 619.333333333 51 606.25 53 595.75 57 c 0
 585.25 61 576.583333333 66.25 569.75 72.75 c 0
 562.916666667 79.25 557.75 86.8333333333 554.25 95.5 c 0
 550.75 104.166666667 548.333333333 113.333333333 547 123 c 0
 536.333333333 114 525.5 105.25 514.5 96.75 c 0
 503.5 88.25 492.166666667 80.6666666667 480.5 74 c 0
 468.833333333 67.3333333333 456.833333333 62 444.5 58 c 0
 432.166666667 54 419.5 52 406.5 52 c 0
 383.166666667 52 362.666666667 56.25 345 64.75 c 0
 327.333333333 73.25 312.5 85.0833333333 300.5 100.25 c 0
 288.5 115.416666667 279.416666667 133.333333333 273.25 154 c 0
 267.083333333 174.666666667 264 197.333333333 264 222 c 0
 264 260.333333333 271.083333333 296.416666667 285.25 330.25 c 0
 299.416666667 364.083333333 318.666666667 393.75 343 419.25 c 0
 367.333333333 444.75 395.916666667 464.916666667 428.75 479.75 c 0
 461.583333333 494.583333333 496.5 502 533.5 502 c 0
 541.5 502 549.583333333 501 557.75 499 c 0
 565.916666667 497 574 494.416666667 582 491.25 c 0
 590 488.083333333 597.75 484.666666667 605.25 481 c 0
 612.75 477.333333333 619.833333333 474 626.5 471 c 0
 640 496.5 l 0
 726 496.5 l 0
 721 477.5 l 0
 718.666666667 467.5 715.75 455.166666667 712.25 440.5 c 0
 708.75 425.833333333 704.916666667 409.5 700.75 391.5 c 0
 696.583333333 373.5 692.333333333 355.333333333 688 337 c 0
 678 294 666.833333333 245.833333333 654.5 192.5 c 0
 651.833333333 181.166666667 649.833333333 170.833333333 648.5 161.5 c 0
 647.166666667 152.166666667 647.166666667 144.166666667 648.5 137.5 c 0
 649.833333333 130.833333333 652.75 125.666666667 657.25 122 c 0
 661.75 118.333333333 668.666666667 116.5 678 116.5 c 0
 684.666666667 116.5 692.916666667 119.083333333 702.75 124.25 c 0
 712.583333333 129.416666667 722.75 137 733.25 147 c 0
 743.75 157 754.166666667 169.416666667 764.5 184.25 c 0
 774.833333333 199.083333333 784.083333333 216.083333333 792.25 235.25 c 0
 800.416666667 254.416666667 807.083333333 275.75 812.25 299.25 c 0
 817.416666667 322.75 820 348.333333333 820 376 c 0
 820 408.333333333 816.166666667 437.583333333 808.5 463.75 c 0
 800.833333333 489.916666667 790.5 513.166666667 777.5 533.5 c 0
 764.5 553.833333333 749.083333333 571.416666667 731.25 586.25 c 0
 713.416666667 601.083333333 694.5 613.333333333 674.5 623 c 0
 654.5 632.666666667 633.666666667 639.833333333 612 644.5 c 0
 590.333333333 649.166666667 569 651.5 548 651.5 c 0
 512 651.5 477.583333333 647.083333333 444.75 638.25 c 0
 411.916666667 629.416666667 381.25 616.916666667 352.75 600.75 c 0
 324.25 584.583333333 298.333333333 564.833333333 275 541.5 c 0
 251.666666667 518.166666667 231.666666667 491.916666667 215 462.75 c 0
 198.333333333 433.583333333 185.5 401.916666667 176.5 367.75 c 0
 167.5 333.583333333 163 297.333333333 163 259 c 0
 163 206.333333333 171.166666667 157.916666667 187.5 113.75 c 0
 203.833333333 69.5833333333 227 31.3333333333 257 -1 c 0
 287 -33.3333333333 323.166666667 -58.5 365.5 -76.5 c 0
 407.833333333 -94.5 455 -103.5 507 -103.5 c 0
 534 -103.5 559.666666667 -101.25 584 -96.75 c 0
 608.333333333 -92.25 631.833333333 -86.1666666667 654.5 -78.5 c 0
 677.166666667 -70.8333333333 699.416666667 -61.75 721.25 -51.25 c 0
 743.083333333 -40.75 764.833333333 -29.5 786.5 -17.5 c 0
 808 -68.5 l 0
 785 -80.5 761.166666667 -92.0833333333 736.5 -103.25 c 0
 711.833333333 -114.416666667 686.166666667 -124.25 659.5 -132.75 c 0
 632.833333333 -141.25 604.75 -148.083333333 575.25 -153.25 c 0
 545.75 -158.416666667 514.833333333 -161 482.5 -161 c 0
 442.5 -161 404.333333333 -156.75 368 -148.25 c 0
 331.666666667 -139.75 297.833333333 -127.333333333 266.5 -111 c 0
 235.166666667 -94.6666666667 206.75 -74.8333333333 181.25 -51.5 c 0
 155.75 -28.1666666667 134 -1.58333333333 116 28.25 c 0
 98 58.0833333333 84.0833333333 90.75 74.25 126.25 c 0
 64.4166666667 161.75 59.5 199.833333333 59.5 240.5 c 0
 59.5 290.166666667 65.5 336.166666667 77.5 378.5 c 0
 89.5 420.833333333 106.25 459.166666667 127.75 493.5 c 0
 149.25 527.833333333 174.833333333 558.083333333 204.5 584.25 c 0
 234.166666667 610.416666667 266.583333333 632.333333333 301.75 650 c 0
 336.916666667 667.666666667 374.25 681 413.75 690 c 0
 453.25 699 493.5 703.5 534.5 703.5 c 0
 589.833333333 703.5 640 696.166666667 685 681.5 c 0
 730 666.833333333 768.333333333 645.583333333 800 617.75 c 0
 831.666666667 589.916666667 856.083333333 555.75 873.25 515.25 c 0
 890.416666667 474.75 899 428.666666667 899 377 c 0
EndSplineSet
EndChar

StartChar: A
Encoding: 36 65 36
Width: 702
VWidth: 500
Flags: HW
LayerCount: 2
Fore
SplineSet
414.5 0 m 0
 414.5 52 l 0
 475 59.5 l 0
 478.333333333 60.1666666667 481.166666667 62.3333333333 483.5 66 c 0
 485.833333333 69.6666666667 486.166666667 73.3333333333 484.5 77 c 0
 429 239.5 l 0
 210 239.5 l 0
 153.5 81 l 0
 151.5 75.6666666667 152.5 70.8333333333 156.5 66.5 c 0
 160.5 62.1666666667 164.333333333 59.8333333333 168 59.5 c 0
 225.5 52 l 0
 225.5 0 l 0
 5 0 l 0
 5 52 l 0
 62.5 60.5 l 0
 292 703.5 l 0
 408.5 703.5 l 0
 636 79 l 0
 638.666666667 72.6666666667 641.25 68.25 643.75 65.75 c 0
 646.25 63.25 651.166666667 61.1666666667 658.5 59.5 c 0
 697.5 52 l 0
 697.5 0 l 0
 414.5 0 l 0
315.5 546 m 0
 229.5 300 l 0
 403.5 300 l 0
 315.5 546 l 0
EndSplineSet
EndChar

StartChar: B
Encoding: 37 66 37
Width: 654
VWidth: 500
Flags: HW
LayerCount: 2
Fore
SplineSet
426 512 m 0
 426 527 424.333333333 541.583333333 421 555.75 c 0
 417.666666667 569.916666667 411.25 582.5 401.75 593.5 c 0
 392.25 604.5 378.916666667 613.333333333 361.75 620 c 0
 344.583333333 626.666666667 322.333333333 630 295 630 c 0
 290 630 l 0
 289 630 287.25 629.916666667 284.75 629.75 c 0
 282.25 629.583333333 278.583333333 629.333333333 273.75 629 c 0
 268.916666667 628.666666667 262 628.166666667 253 627.5 c 0
 253 384 l 0
 256.666666667 383.666666667 260.333333333 383.5 264 383.5 c 0
 267 383.166666667 269.833333333 383 272.5 383 c 0
 278.5 383 l 0
 307.833333333 383 332 386.333333333 351 393 c 0
 370 399.666666667 385.083333333 408.75 396.25 420.25 c 0
 407.416666667 431.75 415.166666667 445.416666667 419.5 461.25 c 0
 423.833333333 477.083333333 426 494 426 512 c 0
463 192.5 m 0
 463 236.5 450.333333333 269.166666667 425 290.5 c 0
 399.666666667 311.833333333 359.333333333 322.5 304 322.5 c 0
 285.5 322.5 l 0
 278.166666667 322.5 267.333333333 322.166666667 253 321.5 c 0
 253 60.5 l 0
 260.666666667 60.1666666667 267.833333333 59.8333333333 274.5 59.5 c 0
 280.166666667 59.1666666667 285.583333333 58.9166666667 290.75 58.75 c 0
 295.916666667 58.5833333333 299.333333333 58.5 301 58.5 c 0
 327 58.5 350.083333333 60.8333333333 370.25 65.5 c 0
 390.416666667 70.1666666667 407.416666667 77.8333333333 421.25 88.5 c 0
 435.083333333 99.1666666667 445.5 113 452.5 130 c 0
 459.5 147 463 167.833333333 463 192.5 c 0
616.5 199.5 m 0
 616.5 167.5 613 140.416666667 606 118.25 c 0
 599 96.0833333333 589.583333333 77.5833333333 577.75 62.75 c 0
 565.916666667 47.9166666667 552.083333333 36.3333333333 536.25 28 c 0
 520.416666667 19.6666666667 503.75 13.4166666667 486.25 9.25 c 0
 468.75 5.08333333333 450.916666667 2.5 432.75 1.5 c 0
 414.583333333 0.5 397 0 380 0 c 0
 28.5 0 l 0
 28.5 52 l 0
 84 57.5 l 0
 90.3333333333 58.1666666667 95.6666666667 60.4166666667 100 64.25 c 0
 104.333333333 68.0833333333 106.5 73.3333333333 106.5 80 c 0
 106.5 607 l 0
 106.5 613.666666667 104.333333333 619 100 623 c 0
 95.6666666667 627 90.3333333333 629.333333333 84 630 c 0
 28.5 635 l 0
 28.5 687 l 0
 358.5 687 l 0
 370.833333333 687 384.75 686.416666667 400.25 685.25 c 0
 415.75 684.083333333 431.583333333 681.583333333 447.75 677.75 c 0
 463.916666667 673.916666667 479.666666667 668.5 495 661.5 c 0
 510.333333333 654.5 524.083333333 645.083333333 536.25 633.25 c 0
 548.416666667 621.416666667 558.166666667 606.916666667 565.5 589.75 c 0
 572.833333333 572.583333333 576.5 552.166666667 576.5 528.5 c 0
 576.5 507.833333333 573.666666667 489.666666667 568 474 c 0
 562.333333333 458.333333333 555 444.666666667 546 433 c 0
 537 421.333333333 527 411.5 516 403.5 c 0
 505 395.5 494.083333333 388.833333333 483.25 383.5 c 0
 472.416666667 378.166666667 462.333333333 374.083333333 453 371.25 c 0
 443.666666667 368.416666667 436.5 366.5 431.5 365.5 c 0
 443.833333333 365.166666667 457.083333333 364 471.25 362 c 0
 485.416666667 360 499.333333333 356.583333333 513 351.75 c 0
 526.666666667 346.916666667 539.75 340.5 552.25 332.5 c 0
 564.75 324.5 575.75 314.416666667 585.25 302.25 c 0
 594.75 290.083333333 602.333333333 275.583333333 608 258.75 c 0
 613.666666667 241.916666667 616.5 222.166666667 616.5 199.5 c 0
EndSplineSet
EndChar

StartChar: C
Encoding: 38 67 38
Width: 651
VWidth: 500
Flags: HW
LayerCount: 2
Fore
SplineSet
614.5 24.5 m 0
 608.166666667 21.8333333333 598.25 18.25 584.75 13.75 c 0
 571.25 9.25 555 4.75 536 0.25 c 0
 517 -4.25 495.75 -8.16666666667 472.25 -11.5 c 0
 448.75 -14.8333333333 423.833333333 -16.5 397.5 -16.5 c 0
 362.5 -16.5 329.333333333 -12.5 298 -4.5 c 0
 266.666666667 3.5 237.666666667 15 211 30 c 0
 184.333333333 45 160.333333333 63.1666666667 139 84.5 c 0
 117.666666667 105.833333333 99.5 129.916666667 84.5 156.75 c 0
 69.5 183.583333333 58 212.75 50 244.25 c 0
 42 275.75 38 309 38 344 c 0
 38 397.333333333 47.25 446 65.75 490 c 0
 84.25 534 109.666666667 571.833333333 142 603.5 c 0
 174.333333333 635.166666667 212.5 659.75 256.5 677.25 c 0
 300.5 694.75 347.833333333 703.5 398.5 703.5 c 0
 417.833333333 703.5 435.5 702.666666667 451.5 701 c 0
 467.5 699.333333333 483.583333333 696.75 499.75 693.25 c 0
 515.916666667 689.75 533.083333333 685.333333333 551.25 680 c 0
 569.416666667 674.666666667 590.5 668.166666667 614.5 660.5 c 0
 614.5 486.5 l 0
 534.5 486.5 l 0
 512 601 l 0
 512 602.666666667 510.666666667 605.416666667 508 609.25 c 0
 505.333333333 613.083333333 502.166666667 615.833333333 498.5 617.5 c 0
 495.833333333 618.833333333 491.75 620.416666667 486.25 622.25 c 0
 480.75 624.083333333 474.583333333 625.833333333 467.75 627.5 c 0
 460.916666667 629.166666667 453.833333333 630.666666667 446.5 632 c 0
 439.166666667 633.333333333 432.333333333 634 426 634 c 0
 391 634 359.416666667 627.083333333 331.25 613.25 c 0
 303.083333333 599.416666667 279.166666667 579.75 259.5 554.25 c 0
 239.833333333 528.75 224.75 498.083333333 214.25 462.25 c 0
 203.75 426.416666667 198.5 386.333333333 198.5 342 c 0
 198.5 318 200.333333333 294.166666667 204 270.5 c 0
 207.666666667 246.833333333 213.416666667 224.166666667 221.25 202.5 c 0
 229.083333333 180.833333333 239.25 160.75 251.75 142.25 c 0
 264.25 123.75 279.166666667 107.666666667 296.5 94 c 0
 313.833333333 80.3333333333 333.916666667 69.5833333333 356.75 61.75 c 0
 379.583333333 53.9166666667 405.333333333 50 434 50 c 0
 446.666666667 50 458.333333333 51.5833333333 469 54.75 c 0
 479.666666667 57.9166666667 487.833333333 60.8333333333 493.5 63.5 c 0
 496.166666667 64.5 499.5 67.25 503.5 71.75 c 0
 507.5 76.25 510 80 511 83 c 0
 533.5 204 l 0
 614.5 204 l 0
 614.5 24.5 l 0
EndSplineSet
EndChar

StartChar: D
Encoding: 39 68 39
Width: 741
VWidth: 500
Flags: HW
LayerCount: 2
Fore
SplineSet
703.5 351 m 0
 703.5 292.333333333 695.083333333 241.083333333 678.25 197.25 c 0
 661.416666667 153.416666667 637.416666667 116.833333333 606.25 87.5 c 0
 575.083333333 58.1666666667 537.5 36.25 493.5 21.75 c 0
 449.5 7.25 400.333333333 0 346 0 c 0
 26.5 0 l 0
 26.5 52 l 0
 83 57.5 l 0
 89 58.1666666667 94.4166666667 60.4166666667 99.25 64.25 c 0
 104.083333333 68.0833333333 106.5 73.3333333333 106.5 80 c 0
 106.5 607 l 0
 106.5 613.666666667 104.083333333 619 99.25 623 c 0
 94.4166666667 627 89 629.333333333 83 630 c 0
 26.5 635 l 0
 26.5 687 l 0
 340 687 l 0
 398.333333333 687 450.083333333 678.833333333 495.25 662.5 c 0
 540.416666667 646.166666667 578.416666667 623.25 609.25 593.75 c 0
 640.083333333 564.25 663.5 528.916666667 679.5 487.75 c 0
 695.5 446.583333333 703.5 401 703.5 351 c 0
538.5 340 m 0
 538.5 379.333333333 535.5 413.75 529.5 443.25 c 0
 523.5 472.75 515.25 498.083333333 504.75 519.25 c 0
 494.25 540.416666667 481.833333333 558 467.5 572 c 0
 453.166666667 586 437.833333333 597.083333333 421.5 605.25 c 0
 405.166666667 613.416666667 388.166666667 619.166666667 370.5 622.5 c 0
 352.833333333 625.833333333 335.166666667 627.5 317.5 627.5 c 0
 253 627.5 l 0
 253 60.5 l 0
 338 62.5 l 0
 352.666666667 62.8333333333 367.833333333 64.8333333333 383.5 68.5 c 0
 399.166666667 72.1666666667 414.416666667 78.1666666667 429.25 86.5 c 0
 444.083333333 94.8333333333 458.083333333 105.916666667 471.25 119.75 c 0
 484.416666667 133.583333333 496 150.75 506 171.25 c 0
 516 191.75 523.916666667 215.916666667 529.75 243.75 c 0
 535.583333333 271.583333333 538.5 303.666666667 538.5 340 c 0
EndSplineSet
EndChar

StartChar: E
Encoding: 40 69 40
Width: 612
VWidth: 500
Flags: HW
LayerCount: 2
Fore
SplineSet
26.5 0 m 0
 26.5 52 l 0
 83 57.5 l 0
 89 58.1666666667 94.4166666667 60.4166666667 99.25 64.25 c 0
 104.083333333 68.0833333333 106.5 73.3333333333 106.5 80 c 0
 106.5 607 l 0
 106.5 613.666666667 104.083333333 619 99.25 623 c 0
 94.4166666667 627 89 629.333333333 83 630 c 0
 26.5 635 l 0
 26.5 687 l 0
 549 687 l 0
 549 523.5 l 0
 475 523.5 l 0
 459 608.5 l 0
 457.666666667 613.5 455.416666667 617.916666667 452.25 621.75 c 0
 449.083333333 625.583333333 445.166666667 627.5 440.5 627.5 c 0
 250 627.5 l 0
 250 387 l 0
 371.5 387 l 0
 376.166666667 387 380.083333333 389.166666667 383.25 393.5 c 0
 386.416666667 397.833333333 388.333333333 401.833333333 389 405.5 c 0
 398.5 475 l 0
 462 475 l 0
 462 234.5 l 0
 398.5 234.5 l 0
 389 304 l 0
 388.333333333 307.666666667 386.416666667 311.666666667 383.25 316 c 0
 380.083333333 320.333333333 376.166666667 322.5 371.5 322.5 c 0
 250 322.5 l 0
 250 61.5 l 0
 473 61.5 l 0
 477.333333333 61.5 481.333333333 63.8333333333 485 68.5 c 0
 488.666666667 73.1666666667 490.833333333 77.3333333333 491.5 81 c 0
 507 187.5 l 0
 581.5 187.5 l 0
 581.5 0 l 0
 26.5 0 l 0
EndSplineSet
EndChar

StartChar: F
Encoding: 41 70 41
Width: 572
VWidth: 500
Flags: HW
LayerCount: 2
Fore
SplineSet
471 512 m 0
 456.5 605 l 0
 455.5 610.333333333 453.416666667 614.916666667 450.25 618.75 c 0
 447.083333333 622.583333333 443.166666667 624.5 438.5 624.5 c 0
 253 624.5 l 0
 253 372.5 l 0
 380 372.5 l 0
 384.666666667 372.5 388.583333333 374.666666667 391.75 379 c 0
 394.916666667 383.333333333 396.833333333 387.333333333 397.5 391 c 0
 407.5 461 l 0
 471 461 l 0
 471 219 l 0
 407.5 219 l 0
 397.5 289 l 0
 396.833333333 292.666666667 394.75 296.583333333 391.25 300.75 c 0
 387.75 304.916666667 384 307 380 307 c 0
 253 307 l 0
 253 80 l 0
 253 73.3333333333 255.166666667 68.0833333333 259.5 64.25 c 0
 263.833333333 60.4166666667 269.166666667 58.1666666667 275.5 57.5 c 0
 342 52 l 0
 342 0 l 0
 27.5 0 l 0
 27.5 52 l 0
 83 57.5 l 0
 89 58.1666666667 94.4166666667 60.4166666667 99.25 64.25 c 0
 104.083333333 68.0833333333 106.5 73.3333333333 106.5 80 c 0
 106.5 607 l 0
 106.5 613.666666667 104.083333333 619 99.25 623 c 0
 94.4166666667 627 89 629.333333333 83 630 c 0
 24.5 635 l 0
 24.5 687 l 0
 545 687 l 0
 545 512 l 0
 471 512 l 0
EndSplineSet
EndChar

StartChar: G
Encoding: 42 71 42
Width: 733
VWidth: 500
Flags: HW
LayerCount: 2
Fore
SplineSet
657.5 282.5 m 0
 651.166666667 281.833333333 645.666666667 279.583333333 641 275.75 c 0
 636.333333333 271.916666667 634 266.666666667 634 260 c 0
 634 31.5 l 0
 613.666666667 22.5 591.166666667 14.5 566.5 7.5 c 0
 545.166666667 1.5 520.083333333 -4 491.25 -9 c 0
 462.416666667 -14 430.833333333 -16.5 396.5 -16.5 c 0
 345.166666667 -16.5 297.666666667 -7.91666666667 254 9.25 c 0
 210.333333333 26.4166666667 172.5 50.8333333333 140.5 82.5 c 0
 108.5 114.166666667 83.4166666667 152.166666667 65.25 196.5 c 0
 47.0833333333 240.833333333 38 290.333333333 38 345 c 0
 38 400.333333333 47.1666666667 450.166666667 65.5 494.5 c 0
 83.8333333333 538.833333333 109.25 576.5 141.75 607.5 c 0
 174.25 638.5 212.916666667 662.25 257.75 678.75 c 0
 302.583333333 695.25 351.5 703.5 404.5 703.5 c 0
 438.166666667 703.5 469 701.416666667 497 697.25 c 0
 525 693.083333333 549.333333333 688.5 570 683.5 c 0
 594 677.5 615.666666667 670.833333333 635 663.5 c 0
 635 486.5 l 0
 555 486.5 l 0
 534.5 597 l 0
 533.833333333 600.666666667 531.666666667 604.75 528 609.25 c 0
 524.333333333 613.75 520.333333333 616.833333333 516 618.5 c 0
 500 624.5 485.166666667 628.916666667 471.5 631.75 c 0
 457.833333333 634.583333333 448.166666667 636 442.5 636 c 0
 412.833333333 636 386.083333333 632.25 362.25 624.75 c 0
 338.416666667 617.25 317.416666667 606.916666667 299.25 593.75 c 0
 281.083333333 580.583333333 265.5 565 252.5 547 c 0
 239.5 529 228.833333333 509.333333333 220.5 488 c 0
 212.166666667 466.666666667 206.083333333 444.25 202.25 420.75 c 0
 198.416666667 397.25 196.5 373.333333333 196.5 349 c 0
 196.5 305 202 265.25 213 229.75 c 0
 224 194.25 240.083333333 163.916666667 261.25 138.75 c 0
 282.416666667 113.583333333 308.5 94.25 339.5 80.75 c 0
 370.5 67.25 406.166666667 60.5 446.5 60.5 c 0
 451.166666667 60.5 456.916666667 60.25 463.75 59.75 c 0
 470.583333333 59.25 480.166666667 59.5 492.5 60.5 c 0
 492.5 260 l 0
 492.5 266.666666667 490.166666667 272.083333333 485.5 276.25 c 0
 480.833333333 280.416666667 475.333333333 282.5 469 282.5 c 0
 400.5 287.5 l 0
 400.5 340 l 0
 709.5 340 l 0
 709.5 287.5 l 0
 657.5 282.5 l 0
EndSplineSet
EndChar

StartChar: H
Encoding: 43 72 43
Width: 787
VWidth: 500
Flags: HW
LayerCount: 2
Fore
SplineSet
459 0 m 0
 459 52 l 0
 512 57.5 l 0
 518.333333333 58.1666666667 523.666666667 60.4166666667 528 64.25 c 0
 532.333333333 68.0833333333 534.5 73.3333333333 534.5 80 c 0
 534.5 327.5 l 0
 253 327.5 l 0
 253 80 l 0
 253 73.3333333333 255.166666667 68.0833333333 259.5 64.25 c 0
 263.833333333 60.4166666667 269.166666667 58.1666666667 275.5 57.5 c 0
 329.5 52 l 0
 329.5 0 l 0
 30.5 0 l 0
 30.5 52 l 0
 84 57.5 l 0
 90.3333333333 58.1666666667 95.6666666667 60.4166666667 100 64.25 c 0
 104.333333333 68.0833333333 106.5 73.3333333333 106.5 80 c 0
 106.5 607 l 0
 106.5 613.666666667 104.333333333 619 100 623 c 0
 95.6666666667 627 90.3333333333 629.333333333 84 630 c 0
 30.5 635 l 0
 30.5 687 l 0
 329.5 687 l 0
 329.5 635 l 0
 275.5 630 l 0
 269.166666667 629.333333333 263.833333333 627 259.5 623 c 0
 255.166666667 619 253 613.666666667 253 607 c 0
 253 393 l 0
 534.5 393 l 0
 534.5 607 l 0
 534.5 613.666666667 532.333333333 619 528 623 c 0
 523.666666667 627 518.333333333 629.333333333 512 630 c 0
 459 635 l 0
 459 687 l 0
 756.5 687 l 0
 756.5 635 l 0
 703.5 630 l 0
 697.833333333 629.333333333 692.666666667 627 688 623 c 0
 683.333333333 619 681 613.666666667 681 607 c 0
 681 80 l 0
 681 73.3333333333 683.166666667 68.0833333333 687.5 64.25 c 0
 691.833333333 60.4166666667 697.166666667 58.1666666667 703.5 57.5 c 0
 756.5 52 l 0
 756.5 0 l 0
 459 0 l 0
EndSplineSet
EndChar

StartChar: I
Encoding: 44 73 44
Width: 367
VWidth: 500
Flags: HW
LayerCount: 2
Fore
SplineSet
23.5 0 m 0
 23.5 52 l 0
 87 57.5 l 0
 93.3333333333 58.1666666667 98.6666666667 60.4166666667 103 64.25 c 0
 107.333333333 68.0833333333 109.5 73.3333333333 109.5 80 c 0
 109.5 607 l 0
 109.5 613.666666667 107.333333333 619 103 623 c 0
 98.6666666667 627 93.3333333333 629.333333333 87 630 c 0
 23.5 635 l 0
 23.5 687 l 0
 343 687 l 0
 343 635 l 0
 279.5 630 l 0
 273.833333333 629.333333333 268.5 627 263.5 623 c 0
 258.5 619 256 613.666666667 256 607 c 0
 256 80 l 0
 256 73.3333333333 258.5 68.0833333333 263.5 64.25 c 0
 268.5 60.4166666667 273.833333333 58.1666666667 279.5 57.5 c 0
 343 52 l 0
 343 0 l 0
 23.5 0 l 0
EndSplineSet
EndChar

StartChar: J
Encoding: 45 74 45
Width: 524
VWidth: 500
Flags: HW
LayerCount: 2
Fore
SplineSet
439.5 630 m 0
 433.166666667 629.333333333 427.833333333 627 423.5 623 c 0
 419.166666667 619 417 613.666666667 417 607 c 0
 417 248 l 0
 417 208.333333333 412.333333333 172.333333333 403 140 c 0
 393.666666667 107.666666667 379.25 79.8333333333 359.75 56.5 c 0
 340.25 33.1666666667 315.416666667 15.1666666667 285.25 2.5 c 0
 255.083333333 -10.1666666667 219 -16.5 177 -16.5 c 0
 163 -16.5 148.666666667 -15.5 134 -13.5 c 0
 119.333333333 -11.5 105.25 -9.08333333333 91.75 -6.25 c 0
 78.25 -3.41666666667 65.6666666667 -0.333333333333 54 3 c 0
 42.3333333333 6.33333333333 32.5 9.5 24.5 12.5 c 0
 24.5 199.5 l 0
 104.5 199.5 l 0
 128 62.5 l 0
 129 59.1666666667 130.666666667 56.1666666667 133 53.5 c 0
 135 51.1666666667 137.666666667 49.1666666667 141 47.5 c 0
 144.333333333 45.8333333333 148.833333333 45 154.5 45 c 0
 173.5 45 190.25 48.5 204.75 55.5 c 0
 219.25 62.5 231.5 74 241.5 90 c 0
 251.5 106 259 127.166666667 264 153.5 c 0
 269 179.833333333 271.5 212.333333333 271.5 251 c 0
 271.5 607 l 0
 271.5 613.666666667 269.166666667 619 264.5 623 c 0
 259.833333333 627 254.666666667 629.333333333 249 630 c 0
 185.5 635 l 0
 185.5 687 l 0
 502 687 l 0
 502 635 l 0
 439.5 630 l 0
EndSplineSet
EndChar

StartChar: K
Encoding: 46 75 46
Width: 698
VWidth: 500
Flags: HW
LayerCount: 2
Fore
SplineSet
476 0 m 0
 476 38 l 0
 309 300 l 0
 253 300 l 0
 253 80 l 0
 253 73.3333333333 255.166666667 68.0833333333 259.5 64.25 c 0
 263.833333333 60.4166666667 269.166666667 58.1666666667 275.5 57.5 c 0
 329.5 52 l 0
 329.5 0 l 0
 29.5 0 l 0
 29.5 52 l 0
 84 57.5 l 0
 90.3333333333 58.1666666667 95.6666666667 60.4166666667 100 64.25 c 0
 104.333333333 68.0833333333 106.5 73.3333333333 106.5 80 c 0
 106.5 607 l 0
 106.5 613.666666667 104.333333333 619 100 623 c 0
 95.6666666667 627 90.3333333333 629.333333333 84 630 c 0
 29.5 635 l 0
 29.5 687 l 0
 329.5 687 l 0
 329.5 635 l 0
 275.5 630 l 0
 269.166666667 629.333333333 263.833333333 627 259.5 623 c 0
 255.166666667 619 253 613.666666667 253 607 c 0
 253 349 l 0
 281.5 349 l 0
 502 617.5 l 0
 503.666666667 619.5 504.083333333 622.083333333 503.25 625.25 c 0
 502.416666667 628.416666667 500.166666667 630 496.5 630 c 0
 438.5 635 l 0
 438.5 687 l 0
 673 687 l 0
 673 635 l 0
 665.666666667 634.333333333 657.833333333 633.666666667 649.5 633 c 0
 642.5 632.333333333 634.75 631.583333333 626.25 630.75 c 0
 617.75 629.916666667 609.333333333 629.166666667 601 628.5 c 0
 410.5 401.5 l 0
 625.5 58.5 l 0
 698.5 52 l 0
 698.5 0 l 0
 476 0 l 0
EndSplineSet
EndChar

StartChar: L
Encoding: 47 76 47
Width: 567
VWidth: 500
Flags: HW
LayerCount: 2
Fore
SplineSet
27.5 0 m 0
 27.5 52 l 0
 84 57.5 l 0
 90.3333333333 58.1666666667 95.6666666667 60.4166666667 100 64.25 c 0
 104.333333333 68.0833333333 106.5 73.3333333333 106.5 80 c 0
 106.5 607 l 0
 106.5 613.666666667 104.333333333 619 100 623 c 0
 95.6666666667 627 90.3333333333 629.333333333 84 630 c 0
 27.5 635 l 0
 27.5 687 l 0
 333 687 l 0
 333 635 l 0
 275.5 630 l 0
 269.166666667 629.333333333 263.833333333 627 259.5 623 c 0
 255.166666667 619 253 613.666666667 253 607 c 0
 253 62.5 l 0
 431 62.5 l 0
 434.666666667 62.5 437.916666667 63.3333333333 440.75 65 c 0
 443.583333333 66.6666666667 446.083333333 68.75 448.25 71.25 c 0
 450.416666667 73.75 452.083333333 76.3333333333 453.25 79 c 0
 454.416666667 81.6666666667 455.166666667 84 455.5 86 c 0
 469 204 l 0
 551 204 l 0
 551 0 l 0
 27.5 0 l 0
EndSplineSet
EndChar

StartChar: M
Encoding: 48 77 48
Width: 924
VWidth: 500
Flags: HW
LayerCount: 2
Fore
SplineSet
598 0 m 0
 598 52 l 0
 648 57.5 l 0
 653.666666667 58.1666666667 658.833333333 60.4166666667 663.5 64.25 c 0
 668.166666667 68.0833333333 670.5 73.3333333333 670.5 80 c 0
 670.5 617.5 l 0
 465 0 l 0
 386 0 l 0
 184.5 613.5 l 0
 184.5 80 l 0
 184.5 73.3333333333 186.833333333 68.0833333333 191.5 64.25 c 0
 196.166666667 60.4166666667 201.333333333 58.1666666667 207 57.5 c 0
 262 52 l 0
 262 0 l 0
 25.5 0 l 0
 25.5 52 l 0
 83 57.5 l 0
 89 58.1666666667 94.4166666667 60.4166666667 99.25 64.25 c 0
 104.083333333 68.0833333333 106.5 73.3333333333 106.5 80 c 0
 106.5 607 l 0
 106.5 613.666666667 104.083333333 619 99.25 623 c 0
 94.4166666667 627 89 629.333333333 83 630 c 0
 25.5 635 l 0
 25.5 687 l 0
 319.5 687 l 0
 319.5 658.5 l 0
 464 220 l 0
 607 658.5 l 0
 607 687 l 0
 898 687 l 0
 898 635 l 0
 839.5 630 l 0
 833.5 629.333333333 828.25 627 823.75 623 c 0
 819.25 619 817 613.666666667 817 607 c 0
 817 80 l 0
 817 73.3333333333 819.25 68.0833333333 823.75 64.25 c 0
 828.25 60.4166666667 833.5 58.1666666667 839.5 57.5 c 0
 898 52 l 0
 898 0 l 0
 598 0 l 0
EndSplineSet
EndChar

StartChar: N
Encoding: 49 78 49
Width: 762
VWidth: 500
Flags: HW
LayerCount: 2
Fore
SplineSet
677 630 m 0
 671.333333333 629.333333333 666.166666667 627 661.5 623 c 0
 656.833333333 619 654.5 613.666666667 654.5 607 c 0
 654.5 0 l 0
 529.5 0 l 0
 184.5 541.5 l 0
 184.5 80 l 0
 184.5 73.3333333333 186.833333333 68.0833333333 191.5 64.25 c 0
 196.166666667 60.4166666667 201.333333333 58.1666666667 207 57.5 c 0
 264 52 l 0
 264 0 l 0
 27.5 0 l 0
 27.5 52 l 0
 84 57.5 l 0
 90.3333333333 58.1666666667 95.6666666667 60.4166666667 100 64.25 c 0
 104.333333333 68.0833333333 106.5 73.3333333333 106.5 80 c 0
 106.5 607 l 0
 106.5 613.666666667 104.333333333 619 100 623 c 0
 95.6666666667 627 90.3333333333 629.333333333 84 630 c 0
 28.5 635 l 0
 28.5 687 l 0
 281.5 687 l 0
 281.5 659.5 l 0
 576.5 197.5 l 0
 576.5 607 l 0
 576.5 613.666666667 574.083333333 619 569.25 623 c 0
 564.416666667 627 559 629.333333333 553 630 c 0
 494.5 635 l 0
 494.5 687 l 0
 732 687 l 0
 732 635 l 0
 677 630 l 0
EndSplineSet
EndChar

StartChar: O
Encoding: 50 79 50
Width: 774
VWidth: 500
Flags: HW
LayerCount: 2
Fore
SplineSet
737.5 340 m 0
 737.5 291 729.25 244.916666667 712.75 201.75 c 0
 696.25 158.583333333 672.833333333 120.833333333 642.5 88.5 c 0
 612.166666667 56.1666666667 575.833333333 30.5833333333 533.5 11.75 c 0
 491.166666667 -7.08333333333 444.333333333 -16.5 393 -16.5 c 0
 342 -16.5 294.75 -8.41666666667 251.25 7.75 c 0
 207.75 23.9166666667 170.25 47.5 138.75 78.5 c 0
 107.25 109.5 82.5833333333 147.666666667 64.75 193 c 0
 46.9166666667 238.333333333 38 290 38 348 c 0
 38 398.333333333 45.8333333333 445.25 61.5 488.75 c 0
 77.1666666667 532.25 99.75 569.833333333 129.25 601.5 c 0
 158.75 633.166666667 194.916666667 658.083333333 237.75 676.25 c 0
 280.583333333 694.416666667 329.333333333 703.5 384 703.5 c 0
 419.333333333 703.5 452.666666667 699.083333333 484 690.25 c 0
 515.333333333 681.416666667 544.083333333 669.083333333 570.25 653.25 c 0
 596.416666667 637.416666667 619.833333333 618.416666667 640.5 596.25 c 0
 661.166666667 574.083333333 678.666666667 549.5 693 522.5 c 0
 707.333333333 495.5 718.333333333 466.583333333 726 435.75 c 0
 733.666666667 404.916666667 737.5 373 737.5 340 c 0
572.5 336 m 0
 572.5 376 568.75 414.083333333 561.25 450.25 c 0
 553.75 486.416666667 542.5 518.166666667 527.5 545.5 c 0
 512.5 572.833333333 493.75 594.583333333 471.25 610.75 c 0
 448.75 626.916666667 422.666666667 635 393 635 c 0
 369.333333333 635 348.166666667 631 329.5 623 c 0
 310.833333333 615 294.416666667 604.083333333 280.25 590.25 c 0
 266.083333333 576.416666667 254 560.166666667 244 541.5 c 0
 234 522.833333333 225.833333333 502.75 219.5 481.25 c 0
 213.166666667 459.75 208.583333333 437.416666667 205.75 414.25 c 0
 202.916666667 391.083333333 201.5 368 201.5 345 c 0
 201.5 320.666666667 203.083333333 296.5 206.25 272.5 c 0
 209.416666667 248.5 214.166666667 225.5 220.5 203.5 c 0
 226.833333333 181.5 235 161 245 142 c 0
 255 123 266.666666667 106.583333333 280 92.75 c 0
 293.333333333 78.9166666667 308.583333333 68 325.75 60 c 0
 342.916666667 52 362 48 383 48 c 0
 405.666666667 48 426.166666667 52.0833333333 444.5 60.25 c 0
 462.833333333 68.4166666667 479 79.5 493 93.5 c 0
 507 107.5 519 123.833333333 529 142.5 c 0
 539 161.166666667 547.25 181.166666667 553.75 202.5 c 0
 560.25 223.833333333 565 245.916666667 568 268.75 c 0
 571 291.583333333 572.5 314 572.5 336 c 0
EndSplineSet
EndChar

StartChar: P
Encoding: 51 80 51
Width: 626
VWidth: 500
Flags: HW
LayerCount: 2
Fore
SplineSet
436 474 m 0
 436 498 433 519.333333333 427 538 c 0
 421 556.666666667 412.5 572.416666667 401.5 585.25 c 0
 390.5 598.083333333 377.333333333 607.833333333 362 614.5 c 0
 346.666666667 621.166666667 329.5 624.5 310.5 624.5 c 0
 253 624.5 l 0
 253 315.5 l 0
 257 315.166666667 260.25 314.916666667 262.75 314.75 c 0
 265.25 314.583333333 267.333333333 314.5 269 314.5 c 0
 280.5 314.5 l 0
 304.166666667 314.833333333 325.583333333 317.833333333 344.75 323.5 c 0
 363.916666667 329.166666667 380.25 338.333333333 393.75 351 c 0
 407.25 363.666666667 417.666666667 380.083333333 425 400.25 c 0
 432.333333333 420.416666667 436 445 436 474 c 0
589 479 m 0
 589 449.666666667 585.416666667 423.75 578.25 401.25 c 0
 571.083333333 378.75 561.166666667 359.083333333 548.5 342.25 c 0
 535.833333333 325.416666667 520.916666667 311.25 503.75 299.75 c 0
 486.583333333 288.25 468.083333333 279 448.25 272 c 0
 428.416666667 265 407.583333333 259.916666667 385.75 256.75 c 0
 363.916666667 253.583333333 342.166666667 252 320.5 252 c 0
 310.833333333 252 300.666666667 251.916666667 290 251.75 c 0
 279.333333333 251.583333333 267 252.333333333 253 254 c 0
 253 80 l 0
 253 73.3333333333 255.166666667 68.0833333333 259.5 64.25 c 0
 263.833333333 60.4166666667 269.166666667 58.1666666667 275.5 57.5 c 0
 340 52 l 0
 340 0 l 0
 26.5 0 l 0
 26.5 52 l 0
 83 57.5 l 0
 89 58.1666666667 94.4166666667 60.4166666667 99.25 64.25 c 0
 104.083333333 68.0833333333 106.5 73.3333333333 106.5 80 c 0
 106.5 607 l 0
 106.5 613.666666667 104.083333333 619 99.25 623 c 0
 94.4166666667 627 89 629.333333333 83 630 c 0
 23.5 635 l 0
 23.5 687 l 0
 310.5 687 l 0
 333.5 687 356.333333333 686.083333333 379 684.25 c 0
 401.666666667 682.416666667 423.333333333 678.75 444 673.25 c 0
 464.666666667 667.75 483.833333333 660.25 501.5 650.75 c 0
 519.166666667 641.25 534.5 628.75 547.5 613.25 c 0
 560.5 597.75 570.666666667 579 578 557 c 0
 585.333333333 535 589 509 589 479 c 0
EndSplineSet
EndChar

StartChar: Q
Encoding: 52 81 52
Width: 774
VWidth: 500
Flags: HW
LayerCount: 2
Fore
SplineSet
703.5 -165 m 0
 668.166666667 -173 636 -178.916666667 607 -182.75 c 0
 578 -186.583333333 549.666666667 -188.5 522 -188.5 c 0
 485.333333333 -188.5 454 -184.25 428 -175.75 c 0
 402 -167.25 380.833333333 -155.25 364.5 -139.75 c 0
 348.166666667 -124.25 336.166666667 -105.5 328.5 -83.5 c 0
 320.833333333 -61.5 316.833333333 -37 316.5 -10 c 0
 275.166666667 -2.66666666667 237.416666667 10.5833333333 203.25 29.75 c 0
 169.083333333 48.9166666667 139.75 73.6666666667 115.25 104 c 0
 90.75 134.333333333 71.75 169.916666667 58.25 210.75 c 0
 44.75 251.583333333 38 297.333333333 38 348 c 0
 38 398.333333333 45.8333333333 445.25 61.5 488.75 c 0
 77.1666666667 532.25 99.75 569.833333333 129.25 601.5 c 0
 158.75 633.166666667 194.916666667 658.083333333 237.75 676.25 c 0
 280.583333333 694.416666667 329.333333333 703.5 384 703.5 c 0
 419.333333333 703.5 452.666666667 699.083333333 484 690.25 c 0
 515.333333333 681.416666667 544.083333333 669.083333333 570.25 653.25 c 0
 596.416666667 637.416666667 619.833333333 618.416666667 640.5 596.25 c 0
 661.166666667 574.083333333 678.666666667 549.5 693 522.5 c 0
 707.333333333 495.5 718.333333333 466.583333333 726 435.75 c 0
 733.666666667 404.916666667 737.5 373 737.5 340 c 0
 737.5 297.333333333 731.166666667 256.833333333 718.5 218.5 c 0
 705.833333333 180.166666667 687.833333333 145.583333333 664.5 114.75 c 0
 641.166666667 83.9166666667 612.916666667 57.8333333333 579.75 36.5 c 0
 546.583333333 15.1666666667 509.666666667 0.333333333333 469 -8 c 0
 468.333333333 -26.6666666667 471.75 -43.0833333333 479.25 -57.25 c 0
 486.75 -71.4166666667 496.916666667 -83.4166666667 509.75 -93.25 c 0
 522.583333333 -103.083333333 537.583333333 -110.5 554.75 -115.5 c 0
 571.916666667 -120.5 589.833333333 -123 608.5 -123 c 0
 618.5 -123 631.166666667 -122.25 646.5 -120.75 c 0
 661.833333333 -119.25 680.833333333 -115.833333333 703.5 -110.5 c 0
 703.5 -165 l 0
572.5 336 m 0
 572.5 376 568.75 414.083333333 561.25 450.25 c 0
 553.75 486.416666667 542.5 518.166666667 527.5 545.5 c 0
 512.5 572.833333333 493.75 594.583333333 471.25 610.75 c 0
 448.75 626.916666667 422.666666667 635 393 635 c 0
 369.333333333 635 348.166666667 631 329.5 623 c 0
 310.833333333 615 294.416666667 604.083333333 280.25 590.25 c 0
 266.083333333 576.416666667 254 560.166666667 244 541.5 c 0
 234 522.833333333 225.833333333 502.75 219.5 481.25 c 0
 213.166666667 459.75 208.583333333 437.416666667 205.75 414.25 c 0
 202.916666667 391.083333333 201.5 368 201.5 345 c 0
 201.5 320.666666667 203.083333333 296.5 206.25 272.5 c 0
 209.416666667 248.5 214.166666667 225.5 220.5 203.5 c 0
 226.833333333 181.5 235 161 245 142 c 0
 255 123 266.666666667 106.583333333 280 92.75 c 0
 293.333333333 78.9166666667 308.583333333 68 325.75 60 c 0
 342.916666667 52 362 48 383 48 c 0
 405.666666667 48 426.166666667 52.0833333333 444.5 60.25 c 0
 462.833333333 68.4166666667 479 79.5 493 93.5 c 0
 507 107.5 519 123.833333333 529 142.5 c 0
 539 161.166666667 547.25 181.166666667 553.75 202.5 c 0
 560.25 223.833333333 565 245.916666667 568 268.75 c 0
 571 291.583333333 572.5 314 572.5 336 c 0
EndSplineSet
EndChar

StartChar: R
Encoding: 53 82 53
Width: 721
VWidth: 500
Flags: HW
LayerCount: 2
Fore
SplineSet
438.5 497.5 m 0
 438.5 540.833333333 425.5 573 399.5 594 c 0
 373.5 615 335.5 625.5 285.5 625.5 c 0
 282.833333333 625.833333333 279.666666667 626 276 626 c 0
 265.5 626 l 0
 261.5 626 257.333333333 625.833333333 253 625.5 c 0
 253 363.5 l 0
 261.666666667 362.833333333 268.75 362.333333333 274.25 362 c 0
 279.75 361.666666667 283.833333333 361.5 286.5 361.5 c 0
 302.5 361.5 319.416666667 363.083333333 337.25 366.25 c 0
 355.083333333 369.416666667 371.5 375.916666667 386.5 385.75 c 0
 401.5 395.583333333 413.916666667 409.416666667 423.75 427.25 c 0
 433.583333333 445.083333333 438.5 468.5 438.5 497.5 c 0
721 0 m 0
 698.333333333 -2.66666666667 678.916666667 -6.08333333333 662.75 -10.25 c 0
 646.583333333 -14.4166666667 632.166666667 -16.5 619.5 -16.5 c 0
 586.5 -16.5 559 -11.9166666667 537 -2.75 c 0
 515 6.41666666667 496.75 18.4166666667 482.25 33.25 c 0
 467.75 48.0833333333 456 65 447 84 c 0
 438 103 429.916666667 122.416666667 422.75 142.25 c 0
 415.583333333 162.083333333 408.5 181.5 401.5 200.5 c 0
 394.5 219.5 385.666666667 236.416666667 375 251.25 c 0
 364.333333333 266.083333333 351 278.083333333 335 287.25 c 0
 319 296.416666667 298.5 301 273.5 301 c 0
 253 301 l 0
 253 80 l 0
 253 73.3333333333 255.166666667 68.0833333333 259.5 64.25 c 0
 263.833333333 60.4166666667 269.166666667 58.1666666667 275.5 57.5 c 0
 332 52 l 0
 332 0 l 0
 28.5 0 l 0
 28.5 52 l 0
 83 57.5 l 0
 89 58.1666666667 94.4166666667 60.4166666667 99.25 64.25 c 0
 104.083333333 68.0833333333 106.5 73.3333333333 106.5 80 c 0
 106.5 607 l 0
 106.5 613.666666667 104.083333333 619 99.25 623 c 0
 94.4166666667 627 89 629.333333333 83 630 c 0
 28.5 635 l 0
 28.5 687 l 0
 368.5 687 l 0
 381.166666667 687 395.5 686.166666667 411.5 684.5 c 0
 427.5 682.833333333 443.75 679.75 460.25 675.25 c 0
 476.75 670.75 492.916666667 664.5 508.75 656.5 c 0
 524.583333333 648.5 538.666666667 638.25 551 625.75 c 0
 563.333333333 613.25 573.25 598.083333333 580.75 580.25 c 0
 588.25 562.416666667 592 541.333333333 592 517 c 0
 592 494 588.916666667 473.833333333 582.75 456.5 c 0
 576.583333333 439.166666667 568.416666667 424.083333333 558.25 411.25 c 0
 548.083333333 398.416666667 536.583333333 387.583333333 523.75 378.75 c 0
 510.916666667 369.916666667 497.833333333 362.75 484.5 357.25 c 0
 471.166666667 351.75 458.333333333 347.5 446 344.5 c 0
 433.666666667 341.5 422.833333333 339.333333333 413.5 338 c 0
 435.833333333 333.666666667 454.833333333 327.25 470.5 318.75 c 0
 486.166666667 310.25 499.333333333 300.333333333 510 289 c 0
 520.666666667 277.666666667 529.416666667 265.333333333 536.25 252 c 0
 543.083333333 238.666666667 548.916666667 224.916666667 553.75 210.75 c 0
 558.583333333 196.583333333 562.916666667 182.5 566.75 168.5 c 0
 570.583333333 154.5 575 141.166666667 580 128.5 c 0
 585 115.833333333 590.916666667 104.25 597.75 93.75 c 0
 604.583333333 83.25 613.333333333 74.4166666667 624 67.25 c 0
 634.666666667 60.0833333333 647.833333333 55.0833333333 663.5 52.25 c 0
 679.166666667 49.4166666667 698.333333333 49.3333333333 721 52 c 0
 721 0 l 0
EndSplineSet
EndChar

StartChar: S
Encoding: 54 83 54
Width: 549
VWidth: 500
Flags: HW
LayerCount: 2
Fore
SplineSet
511 200.5 m 0
 511 164.5 503.5 132.916666667 488.5 105.75 c 0
 473.5 78.5833333333 453.416666667 56 428.25 38 c 0
 403.083333333 20 374 6.41666666667 341 -2.75 c 0
 308 -11.9166666667 273.5 -16.5 237.5 -16.5 c 0
 210.5 -16.5 185.083333333 -14.5 161.25 -10.5 c 0
 137.416666667 -6.5 116.333333333 -2 98 3 c 0
 76.6666666667 8.66666666667 56.6666666667 15.1666666667 38 22.5 c 0
 38 210 l 0
 119 210 l 0
 136 86 l 0
 136.666666667 82 138.666666667 78.4166666667 142 75.25 c 0
 145.333333333 72.0833333333 147.833333333 70.5 149.5 70.5 c 0
 157.5 67.1666666667 165.833333333 64.1666666667 174.5 61.5 c 0
 182.166666667 59.1666666667 190.666666667 57.1666666667 200 55.5 c 0
 209.333333333 53.8333333333 218.833333333 53 228.5 53 c 0
 243.5 53 258.833333333 54.8333333333 274.5 58.5 c 0
 290.166666667 62.1666666667 304.416666667 67.8333333333 317.25 75.5 c 0
 330.083333333 83.1666666667 340.5 93.1666666667 348.5 105.5 c 0
 356.5 117.833333333 360.5 132.5 360.5 149.5 c 0
 360.5 170.833333333 355.5 189.25 345.5 204.75 c 0
 335.5 220.25 322.5 234.25 306.5 246.75 c 0
 290.5 259.25 272.416666667 270.75 252.25 281.25 c 0
 232.083333333 291.75 211.833333333 302.5 191.5 313.5 c 0
 173.5 323.166666667 156.083333333 333.583333333 139.25 344.75 c 0
 122.416666667 355.916666667 107.5 368.666666667 94.5 383 c 0
 81.5 397.333333333 71.1666666667 413.666666667 63.5 432 c 0
 55.8333333333 450.333333333 52 471.5 52 495.5 c 0
 52 528.833333333 58.6666666667 558.416666667 72 584.25 c 0
 85.3333333333 610.083333333 103.333333333 631.833333333 126 649.5 c 0
 148.666666667 667.166666667 174.916666667 680.583333333 204.75 689.75 c 0
 234.583333333 698.916666667 266 703.5 299 703.5 c 0
 325 703.5 349.666666667 701.333333333 373 697 c 0
 396.333333333 692.666666667 417 688 435 683 c 0
 455.666666667 677 474.833333333 670.166666667 492.5 662.5 c 0
 492.5 494.5 l 0
 413.5 494.5 l 0
 396.5 604 l 0
 396.166666667 605.333333333 395.25 606.833333333 393.75 608.5 c 0
 392.25 610.166666667 390.666666667 611.833333333 389 613.5 c 0
 387 615.166666667 384.666666667 616.833333333 382 618.5 c 0
 378.333333333 621.5 373.5 624.166666667 367.5 626.5 c 0
 362.5 628.5 356.166666667 630.416666667 348.5 632.25 c 0
 340.833333333 634.083333333 331.5 635 320.5 635 c 0
 303.5 635 287.416666667 633 272.25 629 c 0
 257.083333333 625 243.75 619.166666667 232.25 611.5 c 0
 220.75 603.833333333 211.583333333 594.166666667 204.75 582.5 c 0
 197.916666667 570.833333333 194.5 557.5 194.5 542.5 c 0
 194.5 524.5 198.333333333 508.583333333 206 494.75 c 0
 213.666666667 480.916666667 223.916666667 468.5 236.75 457.5 c 0
 249.583333333 446.5 264.333333333 436.5 281 427.5 c 0
 297.666666667 418.5 315 409.5 333 400.5 c 0
 354.333333333 389.833333333 375.583333333 378.666666667 396.75 367 c 0
 417.916666667 355.333333333 437 341.916666667 454 326.75 c 0
 471 311.583333333 484.75 293.833333333 495.25 273.5 c 0
 505.75 253.166666667 511 228.833333333 511 200.5 c 0
EndSplineSet
EndChar

StartChar: T
Encoding: 55 84 55
Width: 623
VWidth: 500
Flags: HW
LayerCount: 2
Fore
SplineSet
532.5 499.5 m 0
 514 613.5 l 0
 513 621.5 508.166666667 625.5 499.5 625.5 c 0
 385 625.5 l 0
 385 80 l 0
 385 73.3333333333 387.25 68.0833333333 391.75 64.25 c 0
 396.25 60.4166666667 401.5 58.1666666667 407.5 57.5 c 0
 468 52 l 0
 468 0 l 0
 155.5 0 l 0
 155.5 52 l 0
 215 57.5 l 0
 221.333333333 58.1666666667 226.833333333 60.4166666667 231.5 64.25 c 0
 236.166666667 68.0833333333 238.5 73.3333333333 238.5 80 c 0
 238.5 625.5 l 0
 124 625.5 l 0
 114.666666667 625.5 109.5 621.5 108.5 613.5 c 0
 90 499.5 l 0
 16.5 499.5 l 0
 16.5 687 l 0
 607 687 l 0
 607 499.5 l 0
 532.5 499.5 l 0
EndSplineSet
EndChar

StartChar: U
Encoding: 56 85 56
Width: 746
VWidth: 500
Flags: HW
LayerCount: 2
Fore
SplineSet
665.5 630 m 0
 659.833333333 629.333333333 654.666666667 627 650 623 c 0
 645.333333333 619 643 613.666666667 643 607 c 0
 643 260 l 0
 643 209.666666667 637.333333333 166.916666667 626 131.75 c 0
 614.666666667 96.5833333333 597.5 68 574.5 46 c 0
 551.5 24 522.416666667 8.08333333333 487.25 -1.75 c 0
 452.083333333 -11.5833333333 410.5 -16.5 362.5 -16.5 c 0
 274.5 -16.5 209 7.08333333333 166 54.25 c 0
 123 101.416666667 101.5 170 101.5 260 c 0
 101.5 607 l 0
 101.5 613.666666667 99.0833333333 619 94.25 623 c 0
 89.4166666667 627 84 629.333333333 78 630 c 0
 22.5 635 l 0
 22.5 687 l 0
 325.5 687 l 0
 325.5 635 l 0
 270.5 630 l 0
 264.833333333 629.333333333 259.666666667 627 255 623 c 0
 250.333333333 619 248 613.666666667 248 607 c 0
 248 252 l 0
 248 188 261.5 141.416666667 288.5 112.25 c 0
 315.5 83.0833333333 357.166666667 68.5 413.5 68.5 c 0
 440.5 68.5 463.5 72.9166666667 482.5 81.75 c 0
 501.5 90.5833333333 517.166666667 103 529.5 119 c 0
 541.833333333 135 550.833333333 154.25 556.5 176.75 c 0
 562.166666667 199.25 565 224.333333333 565 252 c 0
 565 607 l 0
 565 613.666666667 562.833333333 619 558.5 623 c 0
 554.166666667 627 548.833333333 629.333333333 542.5 630 c 0
 484.5 635 l 0
 484.5 687 l 0
 720 687 l 0
 720 635 l 0
 665.5 630 l 0
EndSplineSet
EndChar

StartChar: V
Encoding: 57 86 57
Width: 723
VWidth: 500
Flags: HW
LayerCount: 2
Fore
SplineSet
648 626.5 m 0
 412.5 -16.5 l 0
 315.5 -16.5 l 0
 76 625.5 l 0
 10 635 l 0
 10 687 l 0
 302 687 l 0
 302 635 l 0
 244.5 627.5 l 0
 238.5 626.5 234.916666667 623.583333333 233.75 618.75 c 0
 232.583333333 613.916666667 232.833333333 609.333333333 234.5 605 c 0
 396.5 159.5 l 0
 553 606 l 0
 554 610.333333333 553.75 614.75 552.25 619.25 c 0
 550.75 623.75 546.166666667 626.5 538.5 627.5 c 0
 483.5 635 l 0
 483.5 687 l 0
 712.5 687 l 0
 712.5 635 l 0
 648 626.5 l 0
EndSplineSet
EndChar

StartChar: W
Encoding: 58 87 58
Width: 989
VWidth: 500
Flags: HW
LayerCount: 2
Fore
SplineSet
916.5 626.5 m 0
 755.5 -16.5 l 0
 658.5 -16.5 l 0
 498.5 516 l 0
 342 -16.5 l 0
 243.5 -16.5 l 0
 72.5 626.5 l 0
 10 635 l 0
 10 687 l 0
 289 687 l 0
 289 635 l 0
 228.5 628.5 l 0
 222.166666667 627.833333333 218.75 625.166666667 218.25 620.5 c 0
 217.75 615.833333333 218 611.333333333 219 607 c 0
 327.5 201.5 l 0
 471 687 l 0
 581.5 687 l 0
 730 190.5 l 0
 832.5 607 l 0
 833.5 611.333333333 833.166666667 615.75 831.5 620.25 c 0
 829.833333333 624.75 825.333333333 627.5 818 628.5 c 0
 752.5 635 l 0
 752.5 687 l 0
 979 687 l 0
 979 635 l 0
 916.5 626.5 l 0
EndSplineSet
EndChar

StartChar: X
Encoding: 59 88 59
Width: 687
VWidth: 500
Flags: HW
LayerCount: 2
Fore
SplineSet
369.5 0 m 0
 369.5 52 l 0
 432 56.5 l 0
 436.666666667 57.1666666667 439.75 59.8333333333 441.25 64.5 c 0
 442.75 69.1666666667 441.333333333 74.6666666667 437 81 c 0
 322.5 261 l 0
 184.5 82 l 0
 181.833333333 79 180.333333333 76.0833333333 180 73.25 c 0
 179.666666667 70.4166666667 180 67.8333333333 181 65.5 c 0
 182 63.1666666667 183.416666667 61.3333333333 185.25 60 c 0
 187.083333333 58.6666666667 188.833333333 57.8333333333 190.5 57.5 c 0
 252 52 l 0
 252 0 l 0
 10 0 l 0
 10 52 l 0
 76 60.5 l 0
 279.5 327.5 l 0
 88 625.5 l 0
 23.5 635 l 0
 23.5 687 l 0
 323.5 687 l 0
 323.5 635 l 0
 269.5 630 l 0
 265.833333333 630 263 627.5 261 622.5 c 0
 259 617.5 260 611.666666667 264 605 c 0
 366.5 443.5 l 0
 492.5 606 l 0
 497.166666667 611.666666667 498.5 617.25 496.5 622.75 c 0
 494.5 628.25 491.166666667 631 486.5 631 c 0
 432 635 l 0
 432 687 l 0
 665.5 687 l 0
 665.5 635 l 0
 601 625.5 l 0
 409.5 377 l 0
 612.5 60.5 l 0
 677 52 l 0
 677 0 l 0
 369.5 0 l 0
EndSplineSet
EndChar

StartChar: Y
Encoding: 60 89 60
Width: 679
VWidth: 500
Flags: HW
LayerCount: 2
Fore
SplineSet
609.5 625.5 m 0
 420 297 l 0
 420 80 l 0
 420 73.3333333333 422.166666667 68.0833333333 426.5 64.25 c 0
 430.833333333 60.4166666667 436.166666667 58.1666666667 442.5 57.5 c 0
 505 52 l 0
 505 0 l 0
 187.5 0 l 0
 187.5 52 l 0
 250 57.5 l 0
 255.666666667 58.1666666667 261 60.4166666667 266 64.25 c 0
 271 68.0833333333 273.5 73.3333333333 273.5 80 c 0
 273.5 268.5 l 0
 76 625.5 l 0
 10 635 l 0
 10 687 l 0
 301 687 l 0
 301 635 l 0
 247 630 l 0
 243.333333333 630 240.583333333 627.5 238.75 622.5 c 0
 236.916666667 617.5 237.833333333 611.666666667 241.5 605 c 0
 370.5 362.5 l 0
 510 606 l 0
 513.666666667 612.333333333 514.916666667 618.083333333 513.75 623.25 c 0
 512.583333333 628.416666667 509.666666667 631 505 631 c 0
 442.5 635 l 0
 442.5 687 l 0
 668.5 687 l 0
 668.5 635 l 0
 609.5 625.5 l 0
EndSplineSet
EndChar

StartChar: Z
Encoding: 61 90 61
Width: 595
VWidth: 500
Flags: HW
LayerCount: 2
Fore
SplineSet
38 0 m 0
 38 60.5 l 0
 389 624.5 l 0
 163 624.5 l 0
 154.333333333 624.5 149.5 620.5 148.5 612.5 c 0
 130 500.5 l 0
 55.5 500.5 l 0
 55.5 687 l 0
 552 687 l 0
 552 626.5 l 0
 201.5 63.5 l 0
 446.5 63.5 l 0
 454.833333333 63.5 460 67.3333333333 462 75 c 0
 482.5 201.5 l 0
 557 201.5 l 0
 557 0 l 0
 38 0 l 0
EndSplineSet
EndChar

StartChar: bracketleft
Encoding: 62 91 62
Width: 561
VWidth: 500
Flags: HW
LayerCount: 2
Fore
SplineSet
240 -135 m 0
 240 725 l 0
 524 725 l 0
 524 663.5 l 0
 367 663.5 l 0
 367 -76 l 0
 524 -76 l 0
 524 -135 l 0
 240 -135 l 0
EndSplineSet
EndChar

StartChar: backslash
Encoding: 63 92 63
Width: 506
VWidth: 500
Flags: HW
LayerCount: 2
Fore
SplineSet
426 -95 m 0
 0 687 l 0
 80 687 l 0
 506 -95 l 0
 426 -95 l 0
EndSplineSet
EndChar

StartChar: bracketright
Encoding: 64 93 64
Width: 603
VWidth: 500
Flags: HW
LayerCount: 2
Fore
SplineSet
37 -135 m 0
 37 -76 l 0
 193.5 -76 l 0
 193.5 663.5 l 0
 37 663.5 l 0
 37 725 l 0
 320.5 725 l 0
 320.5 -135 l 0
 37 -135 l 0
EndSplineSet
EndChar

StartChar: asciicircum
Encoding: 65 94 65
Width: 348
VWidth: 500
Flags: HW
LayerCount: 2
Fore
SplineSet
368 282 m 0
 323.5 330.75 l 0
 279 282 l 0
 236.5 282 l 0
 293.25 369.75 l 0
 353.75 369.75 l 0
 410.5 282 l 0
 368 282 l 0
EndSplineSet
EndChar

StartChar: underscore
Encoding: 66 95 66
Width: 348
VWidth: 500
Flags: HW
LayerCount: 2
Fore
SplineSet
0 -170 m 0
 0 -87.5 l 0
 348 -87.5 l 0
 348 -170 l 0
 0 -170 l 0
EndSplineSet
EndChar

StartChar: grave
Encoding: 67 96 67
Width: 383
VWidth: 500
Flags: HW
LayerCount: 2
Fore
SplineSet
326.5 282 m 0
 243.5 327.25 l 0
 241.666666667 328.25 240 329.625 238.5 331.375 c 0
 237 333.125 235.666666667 335 234.5 337 c 0
 233.333333333 339 232.416666667 341.041666667 231.75 343.125 c 0
 231.083333333 345.208333333 230.75 347.083333333 230.75 348.75 c 0
 230.75 351.75 231.25 354.875 232.25 358.125 c 0
 233.25 361.375 234.875 364.291666667 237.125 366.875 c 0
 239.375 369.458333333 242.375 371.583333333 246.125 373.25 c 0
 249.875 374.916666667 254.5 375.75 260 375.75 c 0
 263.5 375.75 266.583333333 375.5 269.25 375 c 0
 271.916666667 374.5 274.458333333 373.625 276.875 372.375 c 0
 279.291666667 371.125 281.708333333 369.458333333 284.125 367.375 c 0
 286.541666667 365.291666667 289.25 362.666666667 292.25 359.5 c 0
 362.25 282 l 0
 326.5 282 l 0
EndSplineSet
EndChar

StartChar: a
Encoding: 68 97 68
Width: 566
VWidth: 500
Flags: HW
LayerCount: 2
Fore
SplineSet
345 264 m 0
 312 257.333333333 284.75 250.5 263.25 243.5 c 0
 241.75 236.5 224.666666667 228.5 212 219.5 c 0
 199.333333333 210.5 190.5 200.25 185.5 188.75 c 0
 180.5 177.25 178 163.833333333 178 148.5 c 0
 178 137.833333333 179.75 127.916666667 183.25 118.75 c 0
 186.75 109.583333333 191.75 101.583333333 198.25 94.75 c 0
 204.75 87.9166666667 212.5 82.5 221.5 78.5 c 0
 230.5 74.5 240.333333333 72.5 251 72.5 c 0
 262 72.5 273.083333333 73.6666666667 284.25 76 c 0
 295.416666667 78.3333333333 305.5 80.8333333333 314.5 83.5 c 0
 325.166666667 86.8333333333 335.333333333 90.6666666667 345 95 c 0
 345 264 l 0
358.5 0 m 0
 345 51 l 0
 327.333333333 39 308.833333333 28.3333333333 289.5 19 c 0
 272.5 11 253.5 3.75 232.5 -2.75 c 0
 211.5 -9.25 189.666666667 -12.5 167 -12.5 c 0
 148.333333333 -12.5 130.916666667 -9.41666666667 114.75 -3.25 c 0
 98.5833333333 2.91666666667 84.4166666667 11.75 72.25 23.25 c 0
 60.0833333333 34.75 50.5 48.6666666667 43.5 65 c 0
 36.5 81.3333333333 33 99.6666666667 33 120 c 0
 33 135.333333333 34.25 149.5 36.75 162.5 c 0
 39.25 175.5 44.25 187.583333333 51.75 198.75 c 0
 59.25 209.916666667 70 220.583333333 84 230.75 c 0
 98 240.916666667 116.583333333 250.833333333 139.75 260.5 c 0
 162.916666667 270.166666667 191.333333333 279.833333333 225 289.5 c 0
 258.666666667 299.166666667 299 309.166666667 346 319.5 c 0
 346 332 l 0
 346 337 346.166666667 341.5 346.5 345.5 c 0
 346.5 350.166666667 346.666666667 354.833333333 347 359.5 c 0
 347.333333333 369.166666667 346.333333333 379.583333333 344 390.75 c 0
 341.666666667 401.916666667 337 412.25 330 421.75 c 0
 323 431.25 313.166666667 439.083333333 300.5 445.25 c 0
 287.833333333 451.416666667 271.333333333 454.5 251 454.5 c 0
 244 454.5 237.75 454.333333333 232.25 454 c 0
 226.75 453.666666667 222.166666667 453.166666667 218.5 452.5 c 0
 214.166666667 451.833333333 210.333333333 451.166666667 207 450.5 c 0
 207 353.5 l 0
 101.5 353.5 l 0
 92.8333333333 352.833333333 85.1666666667 353.666666667 78.5 356 c 0
 72.8333333333 358 67.5833333333 361.5 62.75 366.5 c 0
 57.9166666667 371.5 55.5 379.333333333 55.5 390 c 0
 55.5 409 62.25 426 75.75 441 c 0
 89.25 456 106.916666667 468.75 128.75 479.25 c 0
 150.583333333 489.75 175.083333333 497.833333333 202.25 503.5 c 0
 229.416666667 509.166666667 256.5 512 283.5 512 c 0
 312.833333333 512 339.666666667 509.833333333 364 505.5 c 0
 388.333333333 501.166666667 409.25 492.75 426.75 480.25 c 0
 444.25 467.75 457.75 450.166666667 467.25 427.5 c 0
 476.75 404.833333333 481.5 375 481.5 338 c 0
 481.5 75 l 0
 481.5 68.6666666667 483.666666667 63.25 488 58.75 c 0
 492.333333333 54.25 497.666666667 51.6666666667 504 51 c 0
 549 48 l 0
 549 0 l 0
 358.5 0 l 0
EndSplineSet
EndChar

StartChar: b
Encoding: 69 98 69
Width: 612
VWidth: 500
Flags: HW
LayerCount: 2
Fore
SplineSet
431 250 m 0
 431 277.666666667 427.833333333 302.416666667 421.5 324.25 c 0
 415.166666667 346.083333333 405.833333333 364.666666667 393.5 380 c 0
 381.166666667 395.333333333 365.75 407 347.25 415 c 0
 328.75 423 307.5 427 283.5 427 c 0
 277.166666667 427 270.916666667 426.666666667 264.75 426 c 0
 258.583333333 425.333333333 252.833333333 424.666666667 247.5 424 c 0
 229.5 421 l 0
 229.5 57.5 l 0
 235.5 57.5 239.75 57.3333333333 242.25 57 c 0
 244.75 56.6666666667 247.666666667 56.5 251 56.5 c 0
 279.333333333 56.5 304.666666667 59.75 327 66.25 c 0
 349.333333333 72.75 368.166666667 83.5833333333 383.5 98.75 c 0
 398.833333333 113.916666667 410.583333333 133.833333333 418.75 158.5 c 0
 426.916666667 183.166666667 431 213.666666667 431 250 c 0
579.5 280.5 m 0
 579.5 241.166666667 572.833333333 204.416666667 559.5 170.25 c 0
 546.166666667 136.083333333 526.75 106.416666667 501.25 81.25 c 0
 475.75 56.0833333333 444.416666667 36.25 407.25 21.75 c 0
 370.083333333 7.25 327.5 0 279.5 0 c 0
 92 0 l 0
 92 664.5 l 0
 20.5 664.5 l 0
 20.5 706.5 l 0
 177 758 l 0
 229.5 758 l 0
 229.5 465 l 0
 243.833333333 473.666666667 259 481.5 275 488.5 c 0
 289 494.166666667 304.833333333 499.5 322.5 504.5 c 0
 340.166666667 509.5 358.666666667 512 378 512 c 0
 405.333333333 512 431.25 506.833333333 455.75 496.5 c 0
 480.25 486.166666667 501.666666667 471.083333333 520 451.25 c 0
 538.333333333 431.416666667 552.833333333 407.166666667 563.5 378.5 c 0
 574.166666667 349.833333333 579.5 317.166666667 579.5 280.5 c 0
EndSplineSet
EndChar

StartChar: c
Encoding: 70 99 70
Width: 514
VWidth: 500
Flags: HW
LayerCount: 2
Fore
SplineSet
482.5 45 m 0
 473.833333333 41 463.25 35.8333333333 450.75 29.5 c 0
 438.25 23.1666666667 423.75 16.8333333333 407.25 10.5 c 0
 390.75 4.16666666667 372 -1.25 351 -5.75 c 0
 330 -10.25 306.5 -12.5 280.5 -12.5 c 0
 240.5 -12.5 205.166666667 -5.66666666667 174.5 8 c 0
 143.833333333 21.6666666667 118 40.0833333333 97 63.25 c 0
 76 86.4166666667 60.0833333333 113.166666667 49.25 143.5 c 0
 38.4166666667 173.833333333 33 205.833333333 33 239.5 c 0
 33 279.833333333 39.9166666667 316.75 53.75 350.25 c 0
 67.5833333333 383.75 86.4166666667 412.5 110.25 436.5 c 0
 134.083333333 460.5 162 479.083333333 194 492.25 c 0
 226 505.416666667 260.333333333 512 297 512 c 0
 324 512 348.333333333 509.25 370 503.75 c 0
 391.666666667 498.25 410.25 490.5 425.75 480.5 c 0
 441.25 470.5 453.166666667 458.583333333 461.5 444.75 c 0
 469.833333333 430.916666667 474 415.833333333 474 399.5 c 0
 474 387.833333333 471.916666667 377.333333333 467.75 368 c 0
 463.583333333 358.666666667 458.166666667 350.583333333 451.5 343.75 c 0
 444.833333333 336.916666667 437.166666667 331.666666667 428.5 328 c 0
 419.833333333 324.333333333 410.833333333 322.5 401.5 322.5 c 0
 390.833333333 322.5 381.916666667 323.166666667 374.75 324.5 c 0
 367.583333333 325.833333333 361.5 327.583333333 356.5 329.75 c 0
 351.5 331.916666667 347.166666667 334.25 343.5 336.75 c 0
 339.833333333 339.25 336.333333333 341.666666667 333 344 c 0
 333 459 l 0
 328.666666667 459 325.25 459.166666667 322.75 459.5 c 0
 320.25 459.833333333 317.166666667 460 313.5 460 c 0
 297.833333333 460 282.25 456 266.75 448 c 0
 251.25 440 237.333333333 428.083333333 225 412.25 c 0
 212.666666667 396.416666667 202.666666667 376.583333333 195 352.75 c 0
 187.333333333 328.916666667 183.5 301.166666667 183.5 269.5 c 0
 183.5 239.5 187.083333333 212.416666667 194.25 188.25 c 0
 201.416666667 164.083333333 211.666666667 143.5 225 126.5 c 0
 238.333333333 109.5 254.666666667 96.4166666667 274 87.25 c 0
 293.333333333 78.0833333333 315 73.5 339 73.5 c 0
 354.666666667 73.5 370.333333333 75.6666666667 386 80 c 0
 401.666666667 84.3333333333 416.083333333 89.3333333333 429.25 95 c 0
 442.416666667 100.666666667 453.75 106.25 463.25 111.75 c 0
 472.75 117.25 479.166666667 121.333333333 482.5 124 c 0
 482.5 45 l 0
EndSplineSet
EndChar

StartChar: d
Encoding: 71 100 71
Width: 623
VWidth: 500
Flags: HW
LayerCount: 2
Fore
SplineSet
395.5 0 m 0
 395.5 59.5 l 0
 391.5 57.5 384.333333333 52.5833333333 374 44.75 c 0
 363.666666667 36.9166666667 351.166666667 28.75 336.5 20.25 c 0
 321.833333333 11.75 305.666666667 4.16666666667 288 -2.5 c 0
 270.333333333 -9.16666666667 252.166666667 -12.5 233.5 -12.5 c 0
 202.166666667 -12.5 174.083333333 -6.16666666667 149.25 6.5 c 0
 124.416666667 19.1666666667 103.416666667 36.6666666667 86.25 59 c 0
 69.0833333333 81.3333333333 55.9166666667 107.833333333 46.75 138.5 c 0
 37.5833333333 169.166666667 33 202.5 33 238.5 c 0
 33 282.5 39.6666666667 321.5 53 355.5 c 0
 66.3333333333 389.5 84.8333333333 418.083333333 108.5 441.25 c 0
 132.166666667 464.416666667 160.333333333 482 193 494 c 0
 225.666666667 506 261.333333333 512 300 512 c 0
 309.666666667 512 320.083333333 511.333333333 331.25 510 c 0
 342.416666667 508.666666667 352.833333333 507.166666667 362.5 505.5 c 0
 373.5 503.833333333 384.5 501.833333333 395.5 499.5 c 0
 395.5 664.5 l 0
 319.5 664.5 l 0
 319.5 706.5 l 0
 479 758 l 0
 531.5 758 l 0
 531.5 75 l 0
 531.5 68.6666666667 533.666666667 63.25 538 58.75 c 0
 542.333333333 54.25 547.666666667 51.6666666667 554 51 c 0
 597 48 l 0
 597 0 l 0
 395.5 0 l 0
395.5 432 m 0
 387.5 435.333333333 379.166666667 438.333333333 370.5 441 c 0
 363.166666667 443.333333333 355.25 445.5 346.75 447.5 c 0
 338.25 449.5 330.166666667 450.5 322.5 450.5 c 0
 298.833333333 450.5 278.166666667 445.666666667 260.5 436 c 0
 242.833333333 426.333333333 228.25 413 216.75 396 c 0
 205.25 379 196.666666667 359 191 336 c 0
 185.333333333 313 182.5 288.333333333 182.5 262 c 0
 182.5 235 185.25 210.5 190.75 188.5 c 0
 196.25 166.5 204.5 147.583333333 215.5 131.75 c 0
 226.5 115.916666667 240.333333333 103.666666667 257 95 c 0
 273.666666667 86.3333333333 293.166666667 82 315.5 82 c 0
 324.833333333 82 334.25 82.9166666667 343.75 84.75 c 0
 353.25 86.5833333333 361.833333333 88.8333333333 369.5 91.5 c 0
 378.5 94.5 387.166666667 97.8333333333 395.5 101.5 c 0
 395.5 432 l 0
EndSplineSet
EndChar

StartChar: e
Encoding: 72 101 72
Width: 541
VWidth: 500
Flags: HW
LayerCount: 2
Fore
SplineSet
510 48 m 0
 492.333333333 36.3333333333 472.5 26.1666666667 450.5 17.5 c 0
 431.5 9.83333333333 408.833333333 2.91666666667 382.5 -3.25 c 0
 356.166666667 -9.41666666667 326.666666667 -12.5 294 -12.5 c 0
 250.333333333 -12.5 212.25 -5.83333333333 179.75 7.5 c 0
 147.25 20.8333333333 120.083333333 39.0833333333 98.25 62.25 c 0
 76.4166666667 85.4166666667 60.0833333333 112.5 49.25 143.5 c 0
 38.4166666667 174.5 33 207.833333333 33 243.5 c 0
 33 282.166666667 39.0833333333 317.916666667 51.25 350.75 c 0
 63.4166666667 383.583333333 80.75 411.916666667 103.25 435.75 c 0
 125.75 459.583333333 152.916666667 478.25 184.75 491.75 c 0
 216.583333333 505.25 252 512 291 512 c 0
 331 512 364.916666667 505.416666667 392.75 492.25 c 0
 420.583333333 479.083333333 443.166666667 461.583333333 460.5 439.75 c 0
 477.833333333 417.916666667 490.416666667 393 498.25 365 c 0
 506.083333333 337 510 308.166666667 510 278.5 c 0
 510 254 l 0
 174 254 l 0
 174 226 177.5 200.833333333 184.5 178.5 c 0
 191.5 156.166666667 201.75 137.166666667 215.25 121.5 c 0
 228.75 105.833333333 245.333333333 93.75 265 85.25 c 0
 284.666666667 76.75 307 72.5 332 72.5 c 0
 358 72.5 381.75 75.4166666667 403.25 81.25 c 0
 424.75 87.0833333333 443.5 93.6666666667 459.5 101 c 0
 477.833333333 109.666666667 494.666666667 119.333333333 510 130 c 0
 510 48 l 0
363.5 334 m 0
 363.5 350.333333333 362 365.666666667 359 380 c 0
 356 394.333333333 351.083333333 406.75 344.25 417.25 c 0
 337.416666667 427.75 328.666666667 436.083333333 318 442.25 c 0
 307.333333333 448.416666667 294.5 451.5 279.5 451.5 c 0
 260.5 451.5 244.583333333 447.25 231.75 438.75 c 0
 218.916666667 430.25 208.583333333 419.25 200.75 405.75 c 0
 192.916666667 392.25 187.333333333 377.166666667 184 360.5 c 0
 180.666666667 343.833333333 179 327.5 179 311.5 c 0
 363.5 311.5 l 0
 363.5 334 l 0
EndSplineSet
EndChar

StartChar: f
Encoding: 73 102 73
Width: 355
VWidth: 500
Flags: HW
LayerCount: 2
Fore
SplineSet
430 676 m 0
 430 668 428.25 660.5 424.75 653.5 c 0
 421.25 646.5 416.583333333 640.083333333 410.75 634.25 c 0
 404.916666667 628.416666667 398.166666667 623.333333333 390.5 619 c 0
 382.833333333 614.666666667 374.833333333 611.166666667 366.5 608.5 c 0
 265 703.5 l 0
 260 695.833333333 255.416666667 687.75 251.25 679.25 c 0
 247.083333333 670.75 243.666666667 660.583333333 241 648.75 c 0
 238.333333333 636.916666667 236.25 622.833333333 234.75 606.5 c 0
 233.25 590.166666667 232.5 570.333333333 232.5 547 c 0
 232.5 487.5 l 0
 344 487.5 l 0
 344 422 l 0
 233.5 422 l 0
 233.5 75 l 0
 233.5 68.6666666667 235.583333333 63.0833333333 239.75 58.25 c 0
 243.916666667 53.4166666667 249.333333333 51 256 51 c 0
 318.5 48 l 0
 318.5 0 l 0
 21.5 0 l 0
 21.5 48 l 0
 73.5 51 l 0
 79.8333333333 51.6666666667 85.25 54.25 89.75 58.75 c 0
 94.25 63.25 96.5 68.6666666667 96.5 75 c 0
 96.5 422 l 0
 29.5 422 l 0
 29.5 463 l 0
 95 496.5 l 0
 95 523.5 98.75 549 106.25 573 c 0
 113.75 597 124.833333333 620.333333333 139.5 643 c 0
 149.5 659.666666667 161.25 675 174.75 689 c 0
 188.25 703 203.166666667 715.166666667 219.5 725.5 c 0
 235.833333333 735.833333333 253.416666667 743.833333333 272.25 749.5 c 0
 291.083333333 755.166666667 311 758 332 758 c 0
 342 758 352.75 756.416666667 364.25 753.25 c 0
 375.75 750.083333333 386.416666667 745.25 396.25 738.75 c 0
 406.083333333 732.25 414.166666667 723.75 420.5 713.25 c 0
 426.833333333 702.75 430 690.333333333 430 676 c 0
EndSplineSet
EndChar

StartChar: g
Encoding: 74 103 74
Width: 568
VWidth: 500
Flags: HW
LayerCount: 2
Fore
SplineSet
469 420 m 0
 472.666666667 412.666666667 476 404.833333333 479 396.5 c 0
 481.666666667 389.166666667 484.083333333 380.916666667 486.25 371.75 c 0
 488.416666667 362.583333333 489.5 352.666666667 489.5 342 c 0
 489.5 319 485.666666667 298.75 478 281.25 c 0
 470.333333333 263.75 460.083333333 248.583333333 447.25 235.75 c 0
 434.416666667 222.916666667 419.666666667 212.166666667 403 203.5 c 0
 386.333333333 194.833333333 368.916666667 188 350.75 183 c 0
 332.583333333 178 314.333333333 174.666666667 296 173 c 0
 277.666666667 171.333333333 260.5 171 244.5 172 c 0
 238.5 168 233.083333333 163.833333333 228.25 159.5 c 0
 223.416666667 155.166666667 219.666666667 150.583333333 217 145.75 c 0
 214.333333333 140.916666667 212.916666667 135.666666667 212.75 130 c 0
 212.583333333 124.333333333 214 117.833333333 217 110.5 c 0
 273 105.833333333 320.75 99.3333333333 360.25 91 c 0
 399.75 82.6666666667 432 72.3333333333 457 60 c 0
 482 47.6666666667 500.166666667 33.0833333333 511.5 16.25 c 0
 522.833333333 -0.583333333333 528.5 -19.6666666667 528.5 -41 c 0
 528.5 -60.6666666667 524.75 -79.1666666667 517.25 -96.5 c 0
 509.75 -113.833333333 499.5 -129.75 486.5 -144.25 c 0
 473.5 -158.75 458.166666667 -171.75 440.5 -183.25 c 0
 422.833333333 -194.75 403.75 -204.416666667 383.25 -212.25 c 0
 362.75 -220.083333333 341.333333333 -226.083333333 319 -230.25 c 0
 296.666666667 -234.416666667 274.333333333 -236.5 252 -236.5 c 0
 225 -236.5 198.416666667 -233.416666667 172.25 -227.25 c 0
 146.083333333 -221.083333333 122.666666667 -211.5 102 -198.5 c 0
 81.3333333333 -185.5 64.6666666667 -169 52 -149 c 0
 39.3333333333 -129 33 -105.333333333 33 -78 c 0
 33 -56.6666666667 37 -38.9166666667 45 -24.75 c 0
 53 -10.5833333333 62.5 0.75 73.5 9.25 c 0
 84.5 17.75 95.75 23.5 107.25 26.5 c 0
 118.75 29.5 128 30.5 135 29.5 c 0
 130.333333333 38.8333333333 127 48.5833333333 125 58.75 c 0
 123 68.9166666667 122 77.3333333333 122 84 c 0
 122 92.6666666667 123.166666667 100.916666667 125.5 108.75 c 0
 127.833333333 116.583333333 131.333333333 124.25 136 131.75 c 0
 140.666666667 139.25 146.583333333 146.833333333 153.75 154.5 c 0
 160.916666667 162.166666667 169.333333333 170.333333333 179 179 c 0
 170 181 158.416666667 185.166666667 144.25 191.5 c 0
 130.083333333 197.833333333 116.25 207.083333333 102.75 219.25 c 0
 89.25 231.416666667 77.5833333333 246.75 67.75 265.25 c 0
 57.9166666667 283.75 53 306.333333333 53 333 c 0
 53 363.666666667 58.9166666667 390.25 70.75 412.75 c 0
 82.5833333333 435.25 98.75 453.833333333 119.25 468.5 c 0
 139.75 483.166666667 163.75 494.083333333 191.25 501.25 c 0
 218.75 508.416666667 248.166666667 512 279.5 512 c 0
 295.5 512 310.583333333 510.833333333 324.75 508.5 c 0
 338.916666667 506.166666667 352.083333333 503.416666667 364.25 500.25 c 0
 376.416666667 497.083333333 387.583333333 493.666666667 397.75 490 c 0
 407.916666667 486.333333333 417.333333333 483.166666667 426 480.5 c 0
 559 480.5 l 0
 559 420 l 0
 469 420 l 0
354.5 344 m 0
 354.5 358 352.916666667 372.083333333 349.75 386.25 c 0
 346.583333333 400.416666667 341.75 413.083333333 335.25 424.25 c 0
 328.75 435.416666667 320.666666667 444.5 311 451.5 c 0
 301.333333333 458.5 290.166666667 462 277.5 462 c 0
 262.166666667 462 249.166666667 458.583333333 238.5 451.75 c 0
 227.833333333 444.916666667 219.25 435.833333333 212.75 424.5 c 0
 206.25 413.166666667 201.583333333 400.416666667 198.75 386.25 c 0
 195.916666667 372.083333333 194.5 357.666666667 194.5 343 c 0
 194.5 328 196.083333333 313.083333333 199.25 298.25 c 0
 202.416666667 283.416666667 207.25 270.25 213.75 258.75 c 0
 220.25 247.25 228.666666667 237.916666667 239 230.75 c 0
 249.333333333 223.583333333 261.5 220 275.5 220 c 0
 289.5 220 301.416666667 223.583333333 311.25 230.75 c 0
 321.083333333 237.916666667 329.25 247.416666667 335.75 259.25 c 0
 342.25 271.083333333 347 284.416666667 350 299.25 c 0
 353 314.083333333 354.5 329 354.5 344 c 0
396.5 -70.5 m 0
 396.5 -58.5 392.833333333 -48.1666666667 385.5 -39.5 c 0
 378.166666667 -30.8333333333 368.666666667 -23.4166666667 357 -17.25 c 0
 345.333333333 -11.0833333333 332.166666667 -6 317.5 -2 c 0
 302.833333333 2 288.166666667 5.25 273.5 7.75 c 0
 258.833333333 10.25 245 12.0833333333 232 13.25 c 0
 219 14.4166666667 208.166666667 15.5 199.5 16.5 c 0
 196.166666667 11.5 192.666666667 6.33333333333 189 1 c 0
 185.333333333 -4.33333333333 181.916666667 -10.1666666667 178.75 -16.5 c 0
 175.583333333 -22.8333333333 173 -29.9166666667 171 -37.75 c 0
 169 -45.5833333333 168 -54.1666666667 168 -63.5 c 0
 167.666666667 -79.8333333333 170.833333333 -95.0833333333 177.5 -109.25 c 0
 184.166666667 -123.416666667 192.833333333 -135.75 203.5 -146.25 c 0
 214.166666667 -156.75 226.25 -165 239.75 -171 c 0
 253.25 -177 266.833333333 -180 280.5 -180 c 0
 294.166666667 -180 307.916666667 -177.416666667 321.75 -172.25 c 0
 335.583333333 -167.083333333 348 -159.75 359 -150.25 c 0
 370 -140.75 379 -129.25 386 -115.75 c 0
 393 -102.25 396.5 -87.1666666667 396.5 -70.5 c 0
EndSplineSet
EndChar

StartChar: h
Encoding: 75 104 75
Width: 641
VWidth: 500
Flags: HW
LayerCount: 2
Fore
SplineSet
356.5 0 m 0
 356.5 48 l 0
 389 51 l 0
 395.333333333 51.6666666667 400.666666667 54.25 405 58.75 c 0
 409.333333333 63.25 411.5 68.6666666667 411.5 75 c 0
 411.5 316.5 l 0
 411.5 324.833333333 410.583333333 334.833333333 408.75 346.5 c 0
 406.916666667 358.166666667 403 369.25 397 379.75 c 0
 391 390.25 382.333333333 399.25 371 406.75 c 0
 359.666666667 414.25 344.5 418 325.5 418 c 0
 315.166666667 418 304.416666667 417.25 293.25 415.75 c 0
 282.083333333 414.25 271.666666667 412.666666667 262 411 c 0
 251 409 240.166666667 406.833333333 229.5 404.5 c 0
 229.5 75 l 0
 229.5 68.6666666667 231.666666667 63.25 236 58.75 c 0
 240.333333333 54.25 245.666666667 51.6666666667 252 51 c 0
 287.5 48 l 0
 287.5 0 l 0
 27.5 0 l 0
 27.5 48 l 0
 69.5 51 l 0
 75.8333333333 51.6666666667 81.1666666667 54.25 85.5 58.75 c 0
 89.8333333333 63.25 92 68.6666666667 92 75 c 0
 92 664.5 l 0
 19.5 664.5 l 0
 19.5 706.5 l 0
 176 758 l 0
 229.5 758 l 0
 229.5 448.5 l 0
 248.5 460.166666667 268.333333333 470.666666667 289 480 c 0
 297.666666667 484 306.916666667 487.916666667 316.75 491.75 c 0
 326.583333333 495.583333333 336.583333333 499 346.75 502 c 0
 356.916666667 505 367.25 507.416666667 377.75 509.25 c 0
 388.25 511.083333333 398.5 512 408.5 512 c 0
 428.5 512 445.916666667 509.416666667 460.75 504.25 c 0
 475.583333333 499.083333333 488.25 492.25 498.75 483.75 c 0
 509.25 475.25 517.75 465.416666667 524.25 454.25 c 0
 530.75 443.083333333 535.833333333 431.5 539.5 419.5 c 0
 543.166666667 407.5 545.666666667 395.583333333 547 383.75 c 0
 548.333333333 371.916666667 549 361 549 351 c 0
 549 75 l 0
 549 68.6666666667 551.166666667 63.25 555.5 58.75 c 0
 559.833333333 54.25 565.166666667 51.6666666667 571.5 51 c 0
 614.5 48 l 0
 614.5 0 l 0
 356.5 0 l 0
EndSplineSet
EndChar

StartChar: i
Encoding: 76 105 76
Width: 341
VWidth: 500
Flags: HW
LayerCount: 2
Fore
SplineSet
253 679 m 0
 253 668 250.916666667 657.666666667 246.75 648 c 0
 242.583333333 638.333333333 236.833333333 629.833333333 229.5 622.5 c 0
 222.166666667 615.166666667 213.666666667 609.416666667 204 605.25 c 0
 194.333333333 601.083333333 184 599 173 599 c 0
 162 599 151.666666667 601.083333333 142 605.25 c 0
 132.333333333 609.416666667 124 615.166666667 117 622.5 c 0
 110 629.833333333 104.416666667 638.333333333 100.25 648 c 0
 96.0833333333 657.666666667 94 668 94 679 c 0
 94 690 96.0833333333 700.333333333 100.25 710 c 0
 104.416666667 719.666666667 110 728 117 735 c 0
 124 742 132.333333333 747.583333333 142 751.75 c 0
 151.666666667 755.916666667 162 758 173 758 c 0
 184 758 194.333333333 755.916666667 204 751.75 c 0
 213.666666667 747.583333333 222.166666667 742 229.5 735 c 0
 236.833333333 728 242.583333333 719.666666667 246.75 710 c 0
 250.916666667 700.333333333 253 690 253 679 c 0
33 0 m 0
 33 48 l 0
 80 51 l 0
 86 51.6666666667 91.25 54.25 95.75 58.75 c 0
 100.25 63.25 102.5 68.6666666667 102.5 75 c 0
 102.5 419 l 0
 37 419 l 0
 37 461 l 0
 186.5 512 l 0
 238.5 512 l 0
 238.5 75 l 0
 238.5 68.6666666667 240.916666667 63.25 245.75 58.75 c 0
 250.583333333 54.25 256 51.6666666667 262 51 c 0
 311.5 48 l 0
 311.5 0 l 0
 33 0 l 0
EndSplineSet
EndChar

StartChar: j
Encoding: 77 106 77
Width: 332
VWidth: 500
Flags: HW
LayerCount: 2
Fore
SplineSet
249 679 m 0
 249 668 246.916666667 657.666666667 242.75 648 c 0
 238.583333333 638.333333333 233 629.833333333 226 622.5 c 0
 219 615.166666667 210.666666667 609.416666667 201 605.25 c 0
 191.333333333 601.083333333 181 599 170 599 c 0
 159 599 148.666666667 601.083333333 139 605.25 c 0
 129.333333333 609.416666667 120.833333333 615.166666667 113.5 622.5 c 0
 106.166666667 629.833333333 100.416666667 638.333333333 96.25 648 c 0
 92.0833333333 657.666666667 90 668 90 679 c 0
 90 690 92.0833333333 700.333333333 96.25 710 c 0
 100.416666667 719.666666667 106.166666667 728 113.5 735 c 0
 120.833333333 742 129.333333333 747.583333333 139 751.75 c 0
 148.666666667 755.916666667 159 758 170 758 c 0
 181 758 191.333333333 755.916666667 201 751.75 c 0
 210.666666667 747.583333333 219 742 226 735 c 0
 233 728 238.583333333 719.666666667 242.75 710 c 0
 246.916666667 700.333333333 249 690 249 679 c 0
238.5 48 m 0
 238.5 10.6666666667 234 -25.5 225 -60.5 c 0
 216 -95.5 201.833333333 -126.5 182.5 -153.5 c 0
 163.833333333 -178.833333333 140.333333333 -199 112 -214 c 0
 83.6666666667 -229 49.6666666667 -236.5 10 -236.5 c 0
 -3.66666666667 -236.5 -16.6666666667 -234.833333333 -29 -231.5 c 0
 -41.3333333333 -228.166666667 -52.1666666667 -223.166666667 -61.5 -216.5 c 0
 -70.8333333333 -209.833333333 -78.25 -201.666666667 -83.75 -192 c 0
 -89.25 -182.333333333 -92 -171.166666667 -92 -158.5 c 0
 -92 -149.5 -90.25 -141 -86.75 -133 c 0
 -83.25 -125 -78.5 -117.916666667 -72.5 -111.75 c 0
 -66.5 -105.583333333 -59.5 -100.583333333 -51.5 -96.75 c 0
 -43.5 -92.9166666667 -35.1666666667 -90.6666666667 -26.5 -90 c 0
 73.5 -191.5 l 0
 77.5 -185.166666667 81 -177.583333333 84 -168.75 c 0
 87 -159.916666667 89.5 -150.5 91.5 -140.5 c 0
 93.5 -130.5 95.1666666667 -120.25 96.5 -109.75 c 0
 97.8333333333 -99.25 99 -89 100 -79 c 0
 101.666666667 -55.6666666667 102.5 -31 102.5 -5 c 0
 102.5 419 l 0
 29.5 419 l 0
 29.5 461 l 0
 186.5 512 l 0
 238.5 512 l 0
 238.5 48 l 0
EndSplineSet
EndChar

StartChar: k
Encoding: 78 107 78
Width: 606
VWidth: 500
Flags: HW
LayerCount: 2
Fore
SplineSet
390 0 m 0
 390 42 l 0
 277.5 231.5 l 0
 229.5 231.5 l 0
 229.5 75 l 0
 229.5 68.6666666667 231.583333333 63.25 235.75 58.75 c 0
 239.916666667 54.25 245.333333333 51.6666666667 252 51 c 0
 293 48 l 0
 293 0 l 0
 26.5 0 l 0
 26.5 48 l 0
 69.5 51 l 0
 75.8333333333 51.6666666667 81.1666666667 54.25 85.5 58.75 c 0
 89.8333333333 63.25 92 68.6666666667 92 75 c 0
 92 664.5 l 0
 20.5 664.5 l 0
 20.5 706.5 l 0
 177 758 l 0
 229.5 758 l 0
 229.5 266 l 0
 252 266 l 0
 389 430 l 0
 392.333333333 433.666666667 393.25 437.333333333 391.75 441 c 0
 390.25 444.666666667 387 446.833333333 382 447.5 c 0
 343 451.5 l 0
 343 499.5 l 0
 556 499.5 l 0
 556 451.5 l 0
 488.5 443.5 l 0
 379 318.5 l 0
 536.5 53 l 0
 597 48 l 0
 597 0 l 0
 390 0 l 0
EndSplineSet
EndChar

StartChar: l
Encoding: 79 108 79
Width: 341
VWidth: 500
Flags: HW
LayerCount: 2
Fore
SplineSet
29.5 0 m 0
 29.5 48 l 0
 80 51 l 0
 86.6666666667 51.6666666667 92.0833333333 54.1666666667 96.25 58.5 c 0
 100.416666667 62.8333333333 102.5 68.3333333333 102.5 75 c 0
 102.5 664.5 l 0
 29.5 664.5 l 0
 29.5 706.5 l 0
 186.5 758 l 0
 238.5 758 l 0
 238.5 75 l 0
 238.5 68.3333333333 240.583333333 62.8333333333 244.75 58.5 c 0
 248.916666667 54.1666666667 254.333333333 51.6666666667 261 51 c 0
 312.5 48 l 0
 312.5 0 l 0
 29.5 0 l 0
EndSplineSet
EndChar

StartChar: m
Encoding: 80 109 80
Width: 927
VWidth: 500
Flags: HW
LayerCount: 2
Fore
SplineSet
648 0 m 0
 648 48 l 0
 680 51 l 0
 686 51.6666666667 691.416666667 54.25 696.25 58.75 c 0
 701.083333333 63.25 703.5 68.6666666667 703.5 75 c 0
 703.5 321.5 l 0
 703.5 333.833333333 702 345.833333333 699 357.5 c 0
 696 369.166666667 691.083333333 379.5 684.25 388.5 c 0
 677.416666667 397.5 668.333333333 404.666666667 657 410 c 0
 645.666666667 415.333333333 631.5 418 614.5 418 c 0
 603.5 418 593.083333333 417.083333333 583.25 415.25 c 0
 573.416666667 413.416666667 564.666666667 411.5 557 409.5 c 0
 548.333333333 407.166666667 540.166666667 404.5 532.5 401.5 c 0
 532.5 75 l 0
 532.5 68.6666666667 534.666666667 63.25 539 58.75 c 0
 543.333333333 54.25 548.666666667 51.6666666667 555 51 c 0
 587 48 l 0
 587 0 l 0
 341 0 l 0
 341 48 l 0
 372.5 51 l 0
 378.833333333 51.6666666667 384.25 54.25 388.75 58.75 c 0
 393.25 63.25 395.5 68.6666666667 395.5 75 c 0
 395.5 321.5 l 0
 395.5 333.833333333 393.833333333 345.833333333 390.5 357.5 c 0
 387.166666667 369.166666667 382 379.5 375 388.5 c 0
 368 397.5 358.916666667 404.666666667 347.75 410 c 0
 336.583333333 415.333333333 323 418 307 418 c 0
 293 418 280.75 417.083333333 270.25 415.25 c 0
 259.75 413.416666667 251.166666667 411.5 244.5 409.5 c 0
 236.5 407.166666667 229.833333333 404.5 224.5 401.5 c 0
 224.5 75 l 0
 224.5 68.6666666667 226.833333333 63.25 231.5 58.75 c 0
 236.166666667 54.25 241.666666667 51.6666666667 248 51 c 0
 279.5 48 l 0
 279.5 0 l 0
 27.5 0 l 0
 27.5 48 l 0
 65.5 51 l 0
 71.8333333333 51.6666666667 77.1666666667 54.25 81.5 58.75 c 0
 85.8333333333 63.25 88 68.6666666667 88 75 c 0
 88 418 l 0
 22.5 418 l 0
 22.5 460 l 0
 173 512 l 0
 224.5 512 l 0
 224.5 449.5 l 0
 241.833333333 461.166666667 259.833333333 471.5 278.5 480.5 c 0
 294.5 488.166666667 312.416666667 495.333333333 332.25 502 c 0
 352.083333333 508.666666667 372 512 392 512 c 0
 411.333333333 512 427.833333333 509.416666667 441.5 504.25 c 0
 455.166666667 499.083333333 466.75 492.916666667 476.25 485.75 c 0
 485.75 478.583333333 493.583333333 471 499.75 463 c 0
 505.916666667 455 511.333333333 448.166666667 516 442.5 c 0
 536 455.166666667 556.333333333 466.666666667 577 477 c 0
 586 481.333333333 595.5 485.583333333 605.5 489.75 c 0
 615.5 493.916666667 625.75 497.666666667 636.25 501 c 0
 646.75 504.333333333 657.25 507 667.75 509 c 0
 678.25 511 688.5 512 698.5 512 c 0
 719.166666667 512 737 509.25 752 503.75 c 0
 767 498.25 779.75 491 790.25 482 c 0
 800.75 473 809.166666667 462.916666667 815.5 451.75 c 0
 821.833333333 440.583333333 826.833333333 429.166666667 830.5 417.5 c 0
 834.166666667 405.833333333 836.583333333 394.583333333 837.75 383.75 c 0
 838.916666667 372.916666667 839.5 363.5 839.5 355.5 c 0
 839.5 75 l 0
 839.5 68.6666666667 841.75 63.25 846.25 58.75 c 0
 850.75 54.25 856 51.6666666667 862 51 c 0
 899 48 l 0
 899 0 l 0
 648 0 l 0
EndSplineSet
EndChar

StartChar: n
Encoding: 81 110 81
Width: 640
VWidth: 500
Flags: HW
LayerCount: 2
Fore
SplineSet
351 0 m 0
 351 48 l 0
 389 51 l 0
 395.333333333 51.6666666667 400.666666667 54.25 405 58.75 c 0
 409.333333333 63.25 411.5 68.6666666667 411.5 75 c 0
 411.5 315.5 l 0
 411.5 328.5 410 341.166666667 407 353.5 c 0
 404 365.833333333 399.166666667 376.75 392.5 386.25 c 0
 385.833333333 395.75 377.166666667 403.416666667 366.5 409.25 c 0
 355.833333333 415.083333333 342.833333333 418 327.5 418 c 0
 313.5 418 300.5 417.25 288.5 415.75 c 0
 276.5 414.25 266.166666667 412.666666667 257.5 411 c 0
 247.166666667 409 237.833333333 406.833333333 229.5 404.5 c 0
 229.5 75 l 0
 229.5 68.6666666667 231.833333333 63.25 236.5 58.75 c 0
 241.166666667 54.25 246.666666667 51.6666666667 253 51 c 0
 283.5 48 l 0
 283.5 0 l 0
 33 0 l 0
 33 48 l 0
 69.5 51 l 0
 75.8333333333 51.6666666667 81.1666666667 54.25 85.5 58.75 c 0
 89.8333333333 63.25 92 68.6666666667 92 75 c 0
 92 418 l 0
 21.5 418 l 0
 21.5 460 l 0
 176 512 l 0
 229.5 512 l 0
 229.5 449.5 l 0
 247.166666667 461.166666667 266 471.5 286 480.5 c 0
 303 488.166666667 322.166666667 495.333333333 343.5 502 c 0
 364.833333333 508.666666667 386.5 512 408.5 512 c 0
 437.833333333 512 461.666666667 506.916666667 480 496.75 c 0
 498.333333333 486.583333333 512.5 473.166666667 522.5 456.5 c 0
 532.5 439.833333333 539.25 420.833333333 542.75 399.5 c 0
 546.25 378.166666667 548 356.333333333 548 334 c 0
 548 75 l 0
 548 68.6666666667 550.333333333 63.25 555 58.75 c 0
 559.666666667 54.25 565.166666667 51.6666666667 571.5 51 c 0
 603 48 l 0
 603 0 l 0
 351 0 l 0
EndSplineSet
EndChar

StartChar: o
Encoding: 82 111 82
Width: 598
VWidth: 500
Flags: HW
LayerCount: 2
Fore
SplineSet
566.5 247 m 0
 566.5 208.666666667 560.416666667 173.583333333 548.25 141.75 c 0
 536.083333333 109.916666667 518.333333333 82.5833333333 495 59.75 c 0
 471.666666667 36.9166666667 443.25 19.1666666667 409.75 6.5 c 0
 376.25 -6.16666666667 338.333333333 -12.5 296 -12.5 c 0
 257 -12.5 221.416666667 -6.5 189.25 5.5 c 0
 157.083333333 17.5 129.416666667 34.6666666667 106.25 57 c 0
 83.0833333333 79.3333333333 65.0833333333 106.583333333 52.25 138.75 c 0
 39.4166666667 170.916666667 33 207.333333333 33 248 c 0
 33 290 39.6666666667 327.333333333 53 360 c 0
 66.3333333333 392.666666667 84.9166666667 420.25 108.75 442.75 c 0
 132.583333333 465.25 161 482.416666667 194 494.25 c 0
 227 506.083333333 263.333333333 512 303 512 c 0
 345.333333333 512 382.833333333 505.5 415.5 492.5 c 0
 448.166666667 479.5 475.666666667 461.25 498 437.75 c 0
 520.333333333 414.25 537.333333333 386.333333333 549 354 c 0
 560.666666667 321.666666667 566.5 286 566.5 247 c 0
413.5 248 m 0
 413.5 262.333333333 412.833333333 277.416666667 411.5 293.25 c 0
 410.166666667 309.083333333 407.916666667 324.666666667 404.75 340 c 0
 401.583333333 355.333333333 397.166666667 369.833333333 391.5 383.5 c 0
 385.833333333 397.166666667 378.75 409.166666667 370.25 419.5 c 0
 361.75 429.833333333 351.666666667 438.083333333 340 444.25 c 0
 328.333333333 450.416666667 314.666666667 453.5 299 453.5 c 0
 276 453.5 257.166666667 447.166666667 242.5 434.5 c 0
 227.833333333 421.833333333 216.416666667 405.583333333 208.25 385.75 c 0
 200.083333333 365.916666667 194.416666667 344.166666667 191.25 320.5 c 0
 188.083333333 296.833333333 186.5 274 186.5 252 c 0
 186.5 237.333333333 187.083333333 222 188.25 206 c 0
 189.416666667 190 191.583333333 174.333333333 194.75 159 c 0
 197.916666667 143.666666667 202.166666667 129.166666667 207.5 115.5 c 0
 212.833333333 101.833333333 219.75 89.75 228.25 79.25 c 0
 236.75 68.75 246.833333333 60.4166666667 258.5 54.25 c 0
 270.166666667 48.0833333333 284 45 300 45 c 0
 323.333333333 45 342.333333333 51.25 357 63.75 c 0
 371.666666667 76.25 383.166666667 92.3333333333 391.5 112 c 0
 399.833333333 131.666666667 405.583333333 153.5 408.75 177.5 c 0
 411.916666667 201.5 413.5 225 413.5 248 c 0
EndSplineSet
EndChar

StartChar: p
Encoding: 83 112 83
Width: 618
VWidth: 500
Flags: HW
LayerCount: 2
Fore
SplineSet
585.5 264 m 0
 585.5 222.666666667 579 185 566 151 c 0
 553 117 534.5 87.9166666667 510.5 63.75 c 0
 486.5 39.5833333333 457.5 20.8333333333 423.5 7.5 c 0
 389.5 -5.83333333333 351.333333333 -12.5 309 -12.5 c 0
 298.666666667 -12.5 288.833333333 -12 279.5 -11 c 0
 270.166666667 -10 261.666666667 -8.83333333333 254 -7.5 c 0
 245.333333333 -6.16666666667 237.166666667 -4.33333333333 229.5 -2 c 0
 229.5 -149.5 l 0
 229.5 -156.166666667 231.583333333 -161.75 235.75 -166.25 c 0
 239.916666667 -170.75 245.333333333 -173 252 -173 c 0
 306 -176 l 0
 306 -224.5 l 0
 24.5 -224.5 l 0
 24.5 -176 l 0
 69.5 -173 l 0
 75.8333333333 -173 81.1666666667 -170.75 85.5 -166.25 c 0
 89.8333333333 -161.75 92 -156.166666667 92 -149.5 c 0
 92 418 l 0
 24.5 418 l 0
 24.5 460 l 0
 176 512 l 0
 229.5 512 l 0
 229.5 447.5 l 0
 245.5 459.5 262.666666667 470.166666667 281 479.5 c 0
 296.666666667 487.5 314.166666667 494.916666667 333.5 501.75 c 0
 352.833333333 508.583333333 373 512 394 512 c 0
 414.666666667 512 433.833333333 508.666666667 451.5 502 c 0
 469.166666667 495.333333333 485.083333333 486.25 499.25 474.75 c 0
 513.416666667 463.25 525.916666667 449.583333333 536.75 433.75 c 0
 547.583333333 417.916666667 556.583333333 400.833333333 563.75 382.5 c 0
 570.916666667 364.166666667 576.333333333 344.916666667 580 324.75 c 0
 583.666666667 304.583333333 585.5 284.333333333 585.5 264 c 0
434 249 m 0
 434 271.333333333 431.416666667 292.833333333 426.25 313.5 c 0
 421.083333333 334.166666667 413.25 352.25 402.75 367.75 c 0
 392.25 383.25 378.916666667 395.666666667 362.75 405 c 0
 346.583333333 414.333333333 327.333333333 419 305 419 c 0
 296 419 287.083333333 418.166666667 278.25 416.5 c 0
 269.416666667 414.833333333 261.333333333 413 254 411 c 0
 245.333333333 408.666666667 237.166666667 406.166666667 229.5 403.5 c 0
 229.5 55.5 l 0
 236.166666667 52.8333333333 242.833333333 50.6666666667 249.5 49 c 0
 255.166666667 47.3333333333 261.166666667 45.9166666667 267.5 44.75 c 0
 273.833333333 43.5833333333 279.833333333 43 285.5 43 c 0
 310.166666667 43 331.75 48.3333333333 350.25 59 c 0
 368.75 69.6666666667 384.25 84.25 396.75 102.75 c 0
 409.25 121.25 418.583333333 143.083333333 424.75 168.25 c 0
 430.916666667 193.416666667 434 220.333333333 434 249 c 0
EndSplineSet
EndChar

StartChar: q
Encoding: 84 113 84
Width: 617
VWidth: 500
Flags: HW
LayerCount: 2
Fore
SplineSet
309 -224.5 m 0
 309 -176 l 0
 365.5 -173 l 0
 372.166666667 -173 377.583333333 -170.75 381.75 -166.25 c 0
 385.916666667 -161.75 388 -156.166666667 388 -149.5 c 0
 388 40 l 0
 373.666666667 30 358.333333333 21.1666666667 342 13.5 c 0
 327.666666667 6.83333333333 311.25 0.833333333333 292.75 -4.5 c 0
 274.25 -9.83333333333 254.5 -12.5 233.5 -12.5 c 0
 202.833333333 -12.5 175.083333333 -5.83333333333 150.25 7.5 c 0
 125.416666667 20.8333333333 104.333333333 38.8333333333 87 61.5 c 0
 69.6666666667 84.1666666667 56.3333333333 110.416666667 47 140.25 c 0
 37.6666666667 170.083333333 33 201.5 33 234.5 c 0
 33 282.833333333 41.1666666667 324.5 57.5 359.5 c 0
 73.8333333333 394.5 96.5833333333 423.25 125.75 445.75 c 0
 154.916666667 468.25 189.75 484.916666667 230.25 495.75 c 0
 270.75 506.583333333 315.166666667 512 363.5 512 c 0
 380.833333333 512 399 511.333333333 418 510 c 0
 437 508.666666667 454.5 507.166666667 470.5 505.5 c 0
 489.166666667 503.833333333 507.5 501.833333333 525.5 499.5 c 0
 525.5 -149.5 l 0
 525.5 -156.166666667 527.666666667 -161.75 532 -166.25 c 0
 536.333333333 -170.75 541.666666667 -173 548 -173 c 0
 590 -176 l 0
 590 -224.5 l 0
 309 -224.5 l 0
388 447.5 m 0
 384.666666667 448.166666667 380.833333333 448.833333333 376.5 449.5 c 0
 372.833333333 450.166666667 368.416666667 450.666666667 363.25 451 c 0
 358.083333333 451.333333333 352.666666667 451.5 347 451.5 c 0
 316.666666667 451.5 291 446.583333333 270 436.75 c 0
 249 426.916666667 232 413.333333333 219 396 c 0
 206 378.666666667 196.666666667 358.166666667 191 334.5 c 0
 185.333333333 310.833333333 182.5 285.333333333 182.5 258 c 0
 182.5 230 185.666666667 204.833333333 192 182.5 c 0
 198.333333333 160.166666667 207.5 141.166666667 219.5 125.5 c 0
 231.5 109.833333333 246.166666667 97.8333333333 263.5 89.5 c 0
 280.833333333 81.1666666667 300.5 77 322.5 77 c 0
 330.166666667 77 337.833333333 77.1666666667 345.5 77.5 c 0
 353.166666667 77.8333333333 360.166666667 78.3333333333 366.5 79 c 0
 373.833333333 79.6666666667 381 80.3333333333 388 81 c 0
 388 447.5 l 0
EndSplineSet
EndChar

StartChar: r
Encoding: 85 114 85
Width: 442
VWidth: 500
Flags: HW
LayerCount: 2
Fore
SplineSet
362.5 338 m 0
 360.166666667 341.333333333 357.25 345.333333333 353.75 350 c 0
 350.25 354.666666667 345.916666667 359.166666667 340.75 363.5 c 0
 335.583333333 367.833333333 329.333333333 371.5 322 374.5 c 0
 314.666666667 377.5 306 379 296 379 c 0
 286.333333333 379 277.333333333 378 269 376 c 0
 260.666666667 374 253.666666667 371.833333333 248 369.5 c 0
 241 366.833333333 234.833333333 363.833333333 229.5 360.5 c 0
 229.5 73.5 l 0
 229.5 67.5 231.583333333 62.0833333333 235.75 57.25 c 0
 239.916666667 52.4166666667 245.333333333 50 252 50 c 0
 317.5 47 l 0
 317.5 -1 l 0
 24.5 -1 l 0
 24.5 47 l 0
 69.5 50 l 0
 75.8333333333 50.6666666667 81.1666666667 53.25 85.5 57.75 c 0
 89.8333333333 62.25 92 67.5 92 73.5 c 0
 92 418 l 0
 17.5 418 l 0
 17.5 460 l 0
 176 512 l 0
 229.5 512 l 0
 229.5 403.5 l 0
 235.833333333 411.5 244.416666667 421.666666667 255.25 434 c 0
 266.083333333 446.333333333 277.833333333 458.25 290.5 469.75 c 0
 303.166666667 481.25 316.25 491.166666667 329.75 499.5 c 0
 343.25 507.833333333 355.833333333 512 367.5 512 c 0
 373.5 512 379.666666667 511.5 386 510.5 c 0
 392.333333333 509.5 398.416666667 508.083333333 404.25 506.25 c 0
 410.083333333 504.416666667 415.416666667 502.416666667 420.25 500.25 c 0
 425.083333333 498.083333333 429 495.833333333 432 493.5 c 0
 432 338 l 0
 362.5 338 l 0
EndSplineSet
EndChar

StartChar: s
Encoding: 86 115 86
Width: 455
VWidth: 500
Flags: HW
LayerCount: 2
Fore
SplineSet
407.5 343 m 0
 344 343 l 0
 333 425 l 0
 326.333333333 432.666666667 316 438.833333333 302 443.5 c 0
 288 448.166666667 271.666666667 450.5 253 450.5 c 0
 229 450.5 210.166666667 445.583333333 196.5 435.75 c 0
 182.833333333 425.916666667 176 412 176 394 c 0
 176 384 178.833333333 374.666666667 184.5 366 c 0
 190.166666667 357.333333333 197.833333333 349.166666667 207.5 341.5 c 0
 217.166666667 333.833333333 228.166666667 326.583333333 240.5 319.75 c 0
 252.833333333 312.916666667 265.833333333 306 279.5 299 c 0
 296.5 290.333333333 313.666666667 281.5 331 272.5 c 0
 348.333333333 263.5 363.833333333 253.5 377.5 242.5 c 0
 391.166666667 231.5 402.333333333 219.25 411 205.75 c 0
 419.666666667 192.25 424 176.833333333 424 159.5 c 0
 424 127.166666667 417.833333333 100.083333333 405.5 78.25 c 0
 393.166666667 56.4166666667 377.166666667 38.75 357.5 25.25 c 0
 337.833333333 11.75 315.5 2.08333333333 290.5 -3.75 c 0
 265.5 -9.58333333333 240.333333333 -12.5 215 -12.5 c 0
 189.666666667 -12.5 166.083333333 -11.0833333333 144.25 -8.25 c 0
 122.416666667 -5.41666666667 103.166666667 -2.16666666667 86.5 1.5 c 0
 67.1666666667 5.5 49.3333333333 10.1666666667 33 15.5 c 0
 33 171 l 0
 97.5 171 l 0
 98.1666666667 164 99.1666666667 155.166666667 100.5 144.5 c 0
 101.833333333 133.833333333 103.166666667 123.5 104.5 113.5 c 0
 105.833333333 101.833333333 107.5 89.6666666667 109.5 77 c 0
 110.166666667 75.3333333333 114 72.9166666667 121 69.75 c 0
 128 66.5833333333 136.333333333 63.3333333333 146 60 c 0
 155.666666667 56.6666666667 165.833333333 53.8333333333 176.5 51.5 c 0
 187.166666667 49.1666666667 196.666666667 48 205 48 c 0
 222.333333333 48 236.666666667 50.3333333333 248 55 c 0
 259.333333333 59.6666666667 268.333333333 65.3333333333 275 72 c 0
 281.666666667 78.6666666667 286.333333333 85.75 289 93.25 c 0
 291.666666667 100.75 293 107.5 293 113.5 c 0
 293 127.5 288.583333333 139.583333333 279.75 149.75 c 0
 270.916666667 159.916666667 259.5 169.166666667 245.5 177.5 c 0
 231.5 185.833333333 215.75 193.75 198.25 201.25 c 0
 180.75 208.75 163.5 216.833333333 146.5 225.5 c 0
 132.166666667 232.5 118.5 240.166666667 105.5 248.5 c 0
 92.5 256.833333333 81.0833333333 266.166666667 71.25 276.5 c 0
 61.4166666667 286.833333333 53.5833333333 298.5 47.75 311.5 c 0
 41.9166666667 324.5 39 339.5 39 356.5 c 0
 39 380.166666667 44.0833333333 401.583333333 54.25 420.75 c 0
 64.4166666667 439.916666667 78.6666666667 456.25 97 469.75 c 0
 115.333333333 483.25 137 493.666666667 162 501 c 0
 187 508.333333333 214.5 512 244.5 512 c 0
 269.833333333 512 292.583333333 510.583333333 312.75 507.75 c 0
 332.916666667 504.916666667 350 501.666666667 364 498 c 0
 380.333333333 494 394.833333333 489.5 407.5 484.5 c 0
 407.5 343 l 0
EndSplineSet
EndChar

StartChar: t
Encoding: 87 116 87
Width: 384
VWidth: 500
Flags: HW
LayerCount: 2
Fore
SplineSet
380 22.5 m 0
 364 15.8333333333 347 10 329 5 c 0
 313.666666667 0.333333333333 296.25 -3.75 276.75 -7.25 c 0
 257.25 -10.75 237 -12.5 216 -12.5 c 0
 193.333333333 -12.5 174.083333333 -10 158.25 -5 c 0
 142.416666667 0 129.583333333 7.75 119.75 18.25 c 0
 109.916666667 28.75 102.833333333 41.8333333333 98.5 57.5 c 0
 94.1666666667 73.1666666667 92 91.8333333333 92 113.5 c 0
 92 434 l 0
 24.5 434 l 0
 24.5 475 l 0
 103.5 522 l 0
 158.5 631 l 0
 229.5 631 l 0
 229.5 499.5 l 0
 371.5 499.5 l 0
 371.5 434 l 0
 229.5 434 l 0
 229.5 155.5 l 0
 229.5 122.833333333 236.666666667 99.8333333333 251 86.5 c 0
 265.333333333 73.1666666667 286.166666667 66.5 313.5 66.5 c 0
 321.5 66.5 329.5 66.8333333333 337.5 67.5 c 0
 345.5 68.1666666667 352.666666667 69 359 70 c 0
 366.333333333 71 373.333333333 72.1666666667 380 73.5 c 0
 380 22.5 l 0
EndSplineSet
EndChar

StartChar: u
Encoding: 88 117 88
Width: 635
VWidth: 500
Flags: HW
LayerCount: 2
Fore
SplineSet
405.5 0 m 0
 405.5 56.5 l 0
 388.5 43.5 370.833333333 32 352.5 22 c 0
 336.833333333 13.3333333333 319.5 5.41666666667 300.5 -1.75 c 0
 281.5 -8.91666666667 262.5 -12.5 243.5 -12.5 c 0
 214.5 -12.5 190.25 -8.66666666667 170.75 -1 c 0
 151.25 6.66666666667 135.666666667 17.6666666667 124 32 c 0
 112.333333333 46.3333333333 104.083333333 63.8333333333 99.25 84.5 c 0
 94.4166666667 105.166666667 92 128.5 92 154.5 c 0
 92 419 l 0
 25.5 419 l 0
 25.5 461 l 0
 176 512 l 0
 229.5 512 l 0
 229.5 194.5 l 0
 229.5 181.833333333 230.333333333 168.833333333 232 155.5 c 0
 233.666666667 142.166666667 237.666666667 130 244 119 c 0
 250.333333333 108 259.75 98.9166666667 272.25 91.75 c 0
 284.75 84.5833333333 301.833333333 81 323.5 81 c 0
 334.166666667 81 344.416666667 81.8333333333 354.25 83.5 c 0
 364.083333333 85.1666666667 372.833333333 87.1666666667 380.5 89.5 c 0
 389.166666667 92.1666666667 397.5 95.1666666667 405.5 98.5 c 0
 405.5 419 l 0
 341 419 l 0
 341 461 l 0
 490.5 512 l 0
 542.5 512 l 0
 542.5 75 l 0
 542.5 68.6666666667 544.916666667 63.25 549.75 58.75 c 0
 554.583333333 54.25 560.166666667 51.6666666667 566.5 51 c 0
 611.5 48 l 0
 611.5 0 l 0
 405.5 0 l 0
EndSplineSet
EndChar

StartChar: v
Encoding: 89 118 89
Width: 579
VWidth: 500
Flags: HW
LayerCount: 2
Fore
SplineSet
512 444.5 m 0
 336 0 l 0
 234.5 0 l 0
 70.5 445.5 l 0
 10 451.5 l 0
 10 499.5 l 0
 279.5 499.5 l 0
 279.5 451.5 l 0
 232.5 448.5 l 0
 226.166666667 447.833333333 221.666666667 445.333333333 219 441 c 0
 216.333333333 436.666666667 216 431.666666667 218 426 c 0
 318.5 142.5 l 0
 430 426 l 0
 432 431 431.333333333 435.833333333 428 440.5 c 0
 424.666666667 445.166666667 420.166666667 447.833333333 414.5 448.5 c 0
 371.5 451.5 l 0
 371.5 499.5 l 0
 570.5 499.5 l 0
 570.5 451.5 l 0
 512 444.5 l 0
EndSplineSet
EndChar

StartChar: w
Encoding: 90 119 90
Width: 861
VWidth: 500
Flags: HW
LayerCount: 2
Fore
SplineSet
794.5 444.5 m 0
 657.5 0 l 0
 543.5 0 l 0
 432 363.5 l 0
 314.5 0 l 0
 203 0 l 0
 70.5 445.5 l 0
 10 451.5 l 0
 10 499.5 l 0
 272.5 499.5 l 0
 272.5 451.5 l 0
 228.5 448.5 l 0
 222.833333333 447.833333333 218.416666667 445.333333333 215.25 441 c 0
 212.083333333 436.666666667 211.333333333 431.666666667 213 426 c 0
 293 144.5 l 0
 407.5 499.5 l 0
 520 499.5 l 0
 630 142.5 l 0
 715 426 l 0
 716.666666667 431 716.083333333 435.833333333 713.25 440.5 c 0
 710.416666667 445.166666667 706.166666667 447.833333333 700.5 448.5 c 0
 655.5 451.5 l 0
 655.5 499.5 l 0
 852 499.5 l 0
 852 451.5 l 0
 794.5 444.5 l 0
EndSplineSet
EndChar

StartChar: x
Encoding: 91 120 91
Width: 559
VWidth: 500
Flags: HW
LayerCount: 2
Fore
SplineSet
290 0 m 0
 290 48 l 0
 329.5 52 l 0
 334.833333333 52.6666666667 338.25 54.75 339.75 58.25 c 0
 341.25 61.75 340.666666667 65.5 338 69.5 c 0
 257 180 l 0
 167 69.5 l 0
 164 65.8333333333 163.166666667 62.1666666667 164.5 58.5 c 0
 165.833333333 54.8333333333 169 52.6666666667 174 52 c 0
 210 48 l 0
 210 0 l 0
 10 0 l 0
 10 48 l 0
 71.5 56.5 l 0
 218 233.5 l 0
 66.5 444.5 l 0
 12.5 451.5 l 0
 12.5 499.5 l 0
 264 499.5 l 0
 264 451.5 l 0
 234.5 448.5 l 0
 228.833333333 447.833333333 225.416666667 445.5 224.25 441.5 c 0
 223.083333333 437.5 224.166666667 433.666666667 227.5 430 c 0
 299 331 l 0
 381 430 l 0
 383.666666667 433.666666667 384.416666667 437.5 383.25 441.5 c 0
 382.083333333 445.5 379 447.833333333 374 448.5 c 0
 341 451.5 l 0
 341 499.5 l 0
 531.5 499.5 l 0
 531.5 451.5 l 0
 474 444.5 l 0
 338 276.5 l 0
 495.5 56.5 l 0
 550 48 l 0
 550 0 l 0
 290 0 l 0
EndSplineSet
EndChar

StartChar: y
Encoding: 92 121 92
Width: 579
VWidth: 500
Flags: HW
LayerCount: 2
Fore
SplineSet
516 444.5 m 0
 339 10 l 0
 332.666666667 -5.33333333333 325.666666667 -22 318 -40 c 0
 310.333333333 -58 301.75 -76.0833333333 292.25 -94.25 c 0
 282.75 -112.416666667 272.333333333 -129.916666667 261 -146.75 c 0
 249.666666667 -163.583333333 237 -178.5 223 -191.5 c 0
 208.666666667 -205.5 193.083333333 -216.5 176.25 -224.5 c 0
 159.416666667 -232.5 141 -236.5 121 -236.5 c 0
 111 -236.5 100.583333333 -234.583333333 89.75 -230.75 c 0
 78.9166666667 -226.916666667 69.0833333333 -221.416666667 60.25 -214.25 c 0
 51.4166666667 -207.083333333 44.1666666667 -198.416666667 38.5 -188.25 c 0
 32.8333333333 -178.083333333 30.1666666667 -166.833333333 30.5 -154.5 c 0
 30.5 -145.166666667 32.25 -136.583333333 35.75 -128.75 c 0
 39.25 -120.916666667 43.75 -113.833333333 49.25 -107.5 c 0
 54.75 -101.166666667 61.0833333333 -95.6666666667 68.25 -91 c 0
 75.4166666667 -86.3333333333 82.6666666667 -82.3333333333 90 -79 c 0
 177 -145.5 l 0
 186.333333333 -136.833333333 195.083333333 -126.5 203.25 -114.5 c 0
 211.416666667 -102.5 218.75 -90.0833333333 225.25 -77.25 c 0
 231.75 -64.4166666667 237.416666667 -52 242.25 -40 c 0
 247.083333333 -28 250.666666667 -17.6666666667 253 -9 c 0
 70.5 445.5 l 0
 10 451.5 l 0
 10 499.5 l 0
 279.5 499.5 l 0
 279.5 451.5 l 0
 232.5 448.5 l 0
 226.166666667 447.833333333 221.5 445.333333333 218.5 441 c 0
 215.5 436.666666667 215 431.666666667 217 426 c 0
 322.5 163 l 0
 431 426 l 0
 433 431 432.333333333 435.833333333 429 440.5 c 0
 425.666666667 445.166666667 421.166666667 447.833333333 415.5 448.5 c 0
 370.5 451.5 l 0
 370.5 499.5 l 0
 570.5 499.5 l 0
 570.5 451.5 l 0
 516 444.5 l 0
EndSplineSet
EndChar

StartChar: z
Encoding: 93 122 93
Width: 503
VWidth: 500
Flags: HW
LayerCount: 2
Fore
SplineSet
33 0 m 0
 33 66.5 l 0
 295 441.5 l 0
 140.5 441.5 l 0
 135.166666667 441.5 130.583333333 439.083333333 126.75 434.25 c 0
 122.916666667 429.416666667 121 424.666666667 121 420 c 0
 113.5 341 l 0
 41 341 l 0
 41 499.5 l 0
 455.5 499.5 l 0
 455.5 442.5 l 0
 187.5 60.5 l 0
 363.5 60.5 l 0
 365.833333333 60.5 368.166666667 61.3333333333 370.5 63 c 0
 372.833333333 64.6666666667 375.083333333 66.6666666667 377.25 69 c 0
 379.416666667 71.3333333333 381.25 73.9166666667 382.75 76.75 c 0
 384.25 79.5833333333 385.333333333 82.3333333333 386 85 c 0
 399.5 172 l 0
 470 172 l 0
 470 0 l 0
 33 0 l 0
EndSplineSet
EndChar

StartChar: braceleft
Encoding: 94 123 94
Width: 507
VWidth: 500
Flags: HW
LayerCount: 2
Fore
SplineSet
432 -125 m 0
 412 -125 l 0
 403 -125 392.416666667 -124.75 380.25 -124.25 c 0
 368.083333333 -123.75 355 -122.75 341 -121.25 c 0
 327 -119.75 313.166666667 -117.416666667 299.5 -114.25 c 0
 285.833333333 -111.083333333 272.833333333 -107 260.5 -102 c 0
 248.166666667 -97 237.833333333 -90.6666666667 229.5 -83 c 0
 213.833333333 -69.3333333333 202.5 -53.1666666667 195.5 -34.5 c 0
 188.5 -15.8333333333 183.916666667 3.75 181.75 24.25 c 0
 179.583333333 44.75 178.75 65.5833333333 179.25 86.75 c 0
 179.75 107.916666667 179.833333333 128.166666667 179.5 147.5 c 0
 179.166666667 166.833333333 177.416666667 184.5 174.25 200.5 c 0
 171.083333333 216.5 164.5 229.5 154.5 239.5 c 0
 144.5 249.5 133 256.583333333 120 260.75 c 0
 107 264.916666667 94.6666666667 267.666666667 83 269 c 0
 69.6666666667 270.333333333 56 270.166666667 42 268.5 c 0
 42 329.5 l 0
 56 327.5 69.6666666667 327.166666667 83 328.5 c 0
 94.6666666667 329.5 107 332.083333333 120 336.25 c 0
 133 340.416666667 144.5 347.5 154.5 357.5 c 0
 164.5 367.5 171.083333333 380.583333333 174.25 396.75 c 0
 177.416666667 412.916666667 179.166666667 430.666666667 179.5 450 c 0
 179.833333333 469.333333333 179.75 489.666666667 179.25 511 c 0
 178.75 532.333333333 179.583333333 553.25 181.75 573.75 c 0
 183.916666667 594.25 188.5 613.833333333 195.5 632.5 c 0
 202.5 651.166666667 213.833333333 667.333333333 229.5 681 c 0
 237.833333333 688.666666667 248.166666667 695 260.5 700 c 0
 272.833333333 705 285.833333333 709.083333333 299.5 712.25 c 0
 313.166666667 715.416666667 327 717.75 341 719.25 c 0
 355 720.75 368.083333333 721.75 380.25 722.25 c 0
 392.416666667 722.75 403 723 412 723 c 0
 432 723 l 0
 432 666.5 l 0
 419.666666667 666.5 407.5 665.666666667 395.5 664 c 0
 385.166666667 662.333333333 374.416666667 659.666666667 363.25 656 c 0
 352.083333333 652.333333333 342.666666667 646.666666667 335 639 c 0
 324.666666667 629 317.666666667 616.583333333 314 601.75 c 0
 310.333333333 586.916666667 308.166666667 570.75 307.5 553.25 c 0
 306.833333333 535.75 306.666666667 517.5 307 498.5 c 0
 307.333333333 479.5 306.5 460.75 304.5 442.25 c 0
 302.5 423.75 298.416666667 406 292.25 389 c 0
 286.083333333 372 276 357 262 344 c 0
 251.333333333 333.666666667 240.166666667 325.5 228.5 319.5 c 0
 216.833333333 313.5 206 309 196 306 c 0
 186 303 177.166666667 301 169.5 300 c 0
 163.833333333 299.333333333 159.5 299 156.5 299 c 0
 159.5 298.666666667 163.833333333 298.166666667 169.5 297.5 c 0
 177.166666667 296.5 186 294.416666667 196 291.25 c 0
 206 288.083333333 216.833333333 283.5 228.5 277.5 c 0
 240.166666667 271.5 251.333333333 263.333333333 262 253 c 0
 276 239.666666667 286.083333333 224.583333333 292.25 207.75 c 0
 298.416666667 190.916666667 302.5 173.25 304.5 154.75 c 0
 306.5 136.25 307.333333333 117.583333333 307 98.75 c 0
 306.666666667 79.9166666667 306.833333333 61.8333333333 307.5 44.5 c 0
 308.166666667 27.1666666667 310.333333333 11.0833333333 314 -3.75 c 0
 317.666666667 -18.5833333333 324.666666667 -31 335 -41 c 0
 342.666666667 -48.6666666667 352.083333333 -54.3333333333 363.25 -58 c 0
 374.416666667 -61.6666666667 385.166666667 -64.3333333333 395.5 -66 c 0
 407.5 -67.6666666667 419.666666667 -68.5 432 -68.5 c 0
 432 -125 l 0
EndSplineSet
EndChar

StartChar: bar
Encoding: 95 124 95
Width: 407
VWidth: 500
Flags: HW
LayerCount: 2
Fore
SplineSet
160 -264 m 0
 160 815 l 0
 247.5 815 l 0
 247.5 -264 l 0
 160 -264 l 0
EndSplineSet
EndChar

StartChar: braceright
Encoding: 96 125 96
Width: 507
VWidth: 500
Flags: HW
LayerCount: 2
Fore
SplineSet
465 268.5 m 0
 450.666666667 270.166666667 436.833333333 270.333333333 423.5 269 c 0
 411.833333333 267.666666667 399.5 264.916666667 386.5 260.75 c 0
 373.5 256.583333333 362.166666667 249.5 352.5 239.5 c 0
 342.5 229.166666667 335.833333333 216 332.5 200 c 0
 329.166666667 184 327.25 166.333333333 326.75 147 c 0
 326.25 127.666666667 326.25 107.416666667 326.75 86.25 c 0
 327.25 65.0833333333 326.416666667 44.25 324.25 23.75 c 0
 322.083333333 3.25 317.583333333 -16.25 310.75 -34.75 c 0
 303.916666667 -53.25 292.833333333 -69.3333333333 277.5 -83 c 0
 268.833333333 -90.6666666667 258.416666667 -97 246.25 -102 c 0
 234.083333333 -107 221.166666667 -111.083333333 207.5 -114.25 c 0
 193.833333333 -117.416666667 180 -119.75 166 -121.25 c 0
 152 -122.75 138.916666667 -123.75 126.75 -124.25 c 0
 114.583333333 -124.75 103.833333333 -125 94.5 -125 c 0
 75 -125 l 0
 75 -68.5 l 0
 87.3333333333 -68.5 99.5 -67.6666666667 111.5 -66 c 0
 121.833333333 -64.3333333333 132.5 -61.6666666667 143.5 -58 c 0
 154.5 -54.3333333333 164 -48.6666666667 172 -41 c 0
 182.333333333 -31 189.333333333 -18.6666666667 193 -4 c 0
 196.666666667 10.6666666667 198.833333333 26.6666666667 199.5 44 c 0
 200.166666667 61.3333333333 200.333333333 79.4166666667 200 98.25 c 0
 199.666666667 117.083333333 200.416666667 135.75 202.25 154.25 c 0
 204.083333333 172.75 208.083333333 190.5 214.25 207.5 c 0
 220.416666667 224.5 230.5 239.666666667 244.5 253 c 0
 255.166666667 263 266.166666667 271 277.5 277 c 0
 288.833333333 283 299.583333333 287.583333333 309.75 290.75 c 0
 319.916666667 293.916666667 328.833333333 296 336.5 297 c 0
 344.166666667 298 349.5 298.666666667 352.5 299 c 0
 350.166666667 299 345.25 299.333333333 337.75 300 c 0
 330.25 300.666666667 321.416666667 302.5 311.25 305.5 c 0
 301.083333333 308.5 290.166666667 313 278.5 319 c 0
 266.833333333 325 255.5 333.333333333 244.5 344 c 0
 230.5 357.333333333 220.416666667 372.5 214.25 389.5 c 0
 208.083333333 406.5 204.083333333 424.25 202.25 442.75 c 0
 200.416666667 461.25 199.666666667 480 200 499 c 0
 200.333333333 518 200.166666667 536.25 199.5 553.75 c 0
 198.833333333 571.25 196.666666667 587.333333333 193 602 c 0
 189.333333333 616.666666667 182.333333333 629 172 639 c 0
 164 646.666666667 154.5 652.333333333 143.5 656 c 0
 132.5 659.666666667 121.833333333 662.333333333 111.5 664 c 0
 99.5 665.666666667 87.3333333333 666.5 75 666.5 c 0
 75 723 l 0
 94.5 723 l 0
 103.833333333 723 114.583333333 722.75 126.75 722.25 c 0
 138.916666667 721.75 152 720.75 166 719.25 c 0
 180 717.75 193.833333333 715.416666667 207.5 712.25 c 0
 221.166666667 709.083333333 234.166666667 705 246.5 700 c 0
 258.833333333 695 269.166666667 688.666666667 277.5 681 c 0
 292.833333333 667 303.916666667 650.75 310.75 632.25 c 0
 317.583333333 613.75 322.083333333 594.25 324.25 573.75 c 0
 326.416666667 553.25 327.25 532.333333333 326.75 511 c 0
 326.25 489.666666667 326.25 469.333333333 326.75 450 c 0
 327.25 430.666666667 329.166666667 412.916666667 332.5 396.75 c 0
 335.833333333 380.583333333 342.5 367.5 352.5 357.5 c 0
 362.166666667 347.5 373.5 340.416666667 386.5 336.25 c 0
 399.5 332.083333333 411.833333333 329.5 423.5 328.5 c 0
 436.833333333 327.166666667 450.666666667 327.5 465 329.5 c 0
 465 268.5 l 0
EndSplineSet
EndChar

StartChar: asciitilde
Encoding: 97 126 97
Width: 853
VWidth: 500
Flags: HW
LayerCount: 2
Fore
SplineSet
382.5 153.5 m 0
 372.166666667 146.166666667 362.541666667 140 353.625 135 c 0
 344.708333333 130 336.291666667 126 328.375 123 c 0
 320.458333333 120 312.833333333 117.875 305.5 116.625 c 0
 298.166666667 115.375 290.916666667 114.75 283.75 114.75 c 0
 271.25 114.75 259.125 116.541666667 247.375 120.125 c 0
 235.625 123.708333333 223.958333333 127.625 212.375 131.875 c 0
 200.791666667 136.125 189.083333333 140.041666667 177.25 143.625 c 0
 165.416666667 147.208333333 153.25 149 140.75 149 c 0
 128.916666667 149 115.166666667 145.375 99.5 138.125 c 0
 83.8333333333 130.875 65.3333333333 119.166666667 44 103 c 0
 44 151.5 l 0
 63.3333333333 166.166666667 81.3333333333 176.416666667 98 182.25 c 0
 114.666666667 188.083333333 129.916666667 191 143.75 191 c 0
 153.416666667 191 162.833333333 189.958333333 172 187.875 c 0
 181.166666667 185.791666667 190.208333333 183.25 199.125 180.25 c 0
 208.041666667 177.25 216.916666667 174.041666667 225.75 170.625 c 0
 234.583333333 167.208333333 243.5 164.25 252.5 161.75 c 0
 257.833333333 160.25 263.166666667 159.041666667 268.5 158.125 c 0
 273.833333333 157.208333333 279.083333333 156.75 284.25 156.75 c 0
 289.75 156.75 295.666666667 157.416666667 302 158.75 c 0
 308.333333333 160.083333333 315.458333333 162.458333333 323.375 165.875 c 0
 331.291666667 169.291666667 340.083333333 173.958333333 349.75 179.875 c 0
 359.416666667 185.791666667 370.333333333 193.25 382.5 202.25 c 0
 382.5 153.5 l 0
EndSplineSet
EndChar

StartChar: inherent
Encoding: 103 -1 98
Width: 172
Flags: HW
LayerCount: 2
Fore
SplineSet
183 735 m 2
 183 695 164.666666667 660.666666667 128 632 c 1
 110.666666667 617.333333333 91.3333333333 606.5 70 599.5 c 128
 48.6666666667 592.5 22.6666666667 589 -8 589 c 1
 -8 695 l 1
 11.3333333333 695 24.6666666667 699.666666667 32 709 c 1
 42.6666666667 717 48 725.666666667 48 735 c 2
 48 806 l 1
 183 806 l 1
 183 735 l 2
EndSplineSet
EndChar

StartChar: makewide
Encoding: 104 -1 99
Width: 347
Flags: HW
LayerCount: 2
Fore
SplineSet
459 138 m 2
 459 102.666666667 446.666666667 70.8333333333 422 42.5 c 128
 397.333333333 14.1666666667 368 0 334 0 c 2
 185 1 l 2
 167.666666667 1 151.333333333 3.16666666667 136 7.5 c 128
 120.666666667 11.8333333333 104 18.6666666667 86 28 c 128
 68 37.3333333333 53 47.6666666667 41 59 c 128
 29 70.3333333333 14.3333333333 86 -3 106 c 1
 -3 260 l 1
 16 264 l 1
 38.6666666667 217.333333333 67.8333333333 180.166666667 103.5 152.5 c 128
 139.166666667 124.833333333 173.333333333 111 206 111 c 2
 299 111 l 2
 306.333333333 111 311.333333333 114.666666667 314 122 c 1
 320 132.666666667 323 143 323 153 c 2
 323 491 l 2
 323 510.333333333 315.666666667 528.333333333 301 545 c 1
 287 557.666666667 269 564 247 564 c 2
 138 564 l 1
 138 677 l 1
 385 677 l 1
 413 582 l 1
 443.666666667 555.333333333 459 526.666666667 459 496 c 2
 459 138 l 2
EndSplineSet
EndChar

StartChar: shortrr
Encoding: 105 -1 100
Width: 821
Flags: HW
LayerCount: 2
Fore
SplineSet
842 569 m 1
 352 569 l 2
 339.333333333 569 329.5 566.5 322.5 561.5 c 128
 315.5 556.5 312 550 312 542 c 2
 311 464 l 1
 312.333333333 451.333333333 318.5 440.833333333 329.5 432.5 c 128
 340.5 424.166666667 353 420 367 420 c 2
 555 420 l 1
 555 307 l 1
 367 307 l 2
 350.333333333 307 337 303.333333333 327 296 c 128
 317 288.666666667 312 278.666666667 312 266 c 2
 311 168 l 1
 312.333333333 153.333333333 316.666666667 141.5 324 132.5 c 128
 331.333333333 123.5 338 118.666666667 344 118 c 1
 440 118 l 1
 440 5 l 1
 299 5 l 2
 266.333333333 5 237.5 16.3333333333 212.5 39 c 128
 187.5 61.6666666667 175 88.6666666667 175 120 c 2
 175 274 l 2
 175 298.666666667 184.333333333 321 203 341 c 0
 207.666666667 345.666666667 214.166666667 350.333333333 222.5 355 c 128
 230.833333333 359.666666667 238 363.666666667 244 367 c 1
 236.666666667 369.666666667 231.333333333 372.333333333 228 375 c 0
 216 383 207.666666667 388.333333333 203 391 c 1
 184.333333333 411 175 432.666666667 175 456 c 2
 175 575 l 2
 175 609 188.333333333 634.666666667 215 652 c 1
 237.666666667 671.333333333 268.333333333 681 307 681 c 2
 839 681 l 1
 842 569 l 1
EndSplineSet
EndChar

StartChar: anusvara
Encoding: 107 3202 101
Width: 786
Flags: HW
LayerCount: 2
Fore
SplineSet
798 156 m 2
 798 114.666666667 784.333333333 78.5 757 47.5 c 128
 729.666666667 16.5 696.666666667 1 658 1 c 2
 344 1 l 2
 298.666666667 1 259.666666667 18 227 52 c 1
 193.666666667 82.6666666667 177 121.666666667 177 169 c 2
 177 535 l 2
 177 577 193.666666667 612 227 640 c 1
 241.666666667 654 258.666666667 664.5 278 671.5 c 128
 297.333333333 678.5 319 682 343 682 c 2
 629 682 l 2
 675.666666667 682 715.5 666.666666667 748.5 636 c 128
 781.5 605.333333333 798 567.666666667 798 523 c 2
 798 156 l 2
663 178 m 1
 663 515 l 2
 663 529.666666667 658 543 648 555 c 1
 638 564.333333333 625.666666667 569 611 569 c 2
 382 569 l 2
 362.666666667 569 345.666666667 564.333333333 331 555 c 1
 319 545.666666667 313 535 313 523 c 2
 313 178 l 2
 313 162.666666667 320.666666667 148.333333333 336 135 c 128
 351.333333333 121.666666667 368.666666667 115 388 115 c 2
 612 115 l 2
 626 115 637.666666667 121 647 133 c 1
 659 145.666666667 664.333333333 160.666666667 663 178 c 1
EndSplineSet
EndChar

StartChar: u0C83
Encoding: 108 3203 102
Width: 508
Flags: HW
LayerCount: 2
Fore
SplineSet
547 461 m 2
 547 432.333333333 536 408.333333333 514 389 c 1
 494.666666667 369 469.333333333 359 438 359 c 2
 279 359 l 2
 243.666666667 359 215 370 193 392 c 1
 169 413.333333333 157 439.333333333 157 470 c 2
 157 575 l 2
 157 606.333333333 169.333333333 632 194 652 c 128
 218.666666667 672 247.333333333 682 280 682 c 2
 424 682 l 2
 448 682 468.333333333 677 485 667 c 1
 494.333333333 663.666666667 502.5 658.5 509.5 651.5 c 128
 516.5 644.5 524.833333333 634.333333333 534.5 621 c 128
 544.166666667 607.666666667 549 590.333333333 549 569 c 2
 547 461 l 2
549 117 m 1
 549 85.6666666667 539 58.6666666667 519 36 c 128
 499 13.3333333333 475 2 447 2 c 2
 279 3 l 2
 247.666666667 3 219.5 13.6666666667 194.5 35 c 128
 169.5 56.3333333333 157 82.3333333333 157 113 c 2
 157 218 l 2
 157 249.333333333 169.5 275.166666667 194.5 295.5 c 128
 219.5 315.833333333 247.666666667 326 279 326 c 2
 423 326 l 2
 459 326 488 314.333333333 510 291 c 1
 534.666666667 267 547 238.333333333 547 205 c 1
 549 117 l 1
412 489 m 1
 412 549 l 2
 412 553.666666667 411.166666667 557.333333333 409.5 560 c 128
 407.833333333 562.666666667 406.166666667 564.833333333 404.5 566.5 c 128
 402.833333333 568.166666667 398 569 390 569 c 2
 325 569 l 2
 315 569 307 567 301 563 c 128
 295 559 292 554.333333333 292 549 c 2
 291 498 l 1
 293.666666667 490 296.666666667 484.333333333 300 481 c 1
 307.333333333 476.333333333 313.666666667 474 319 474 c 2
 390 474 l 1
 395.333333333 475.333333333 400.333333333 476.833333333 405 478.5 c 128
 409.666666667 480.166666667 412.166666667 481.833333333 412.5 483.5 c 128
 412.833333333 485.166666667 412.666666667 487 412 489 c 1
413 131 m 1
 413 192 l 2
 413 199.333333333 411.666666667 204.333333333 409 207 c 2
 404 211 l 1
 319 211 l 2
 311 211 305.5 210.166666667 302.5 208.5 c 128
 299.5 206.833333333 297.166666667 204.833333333 295.5 202.5 c 128
 293.833333333 200.166666667 293 198.666666667 293 198 c 2
 292 141 l 1
 300 122 l 2
 301.333333333 118.666666667 302.833333333 116.833333333 304.5 116.5 c 128
 306.166666667 116.166666667 307.666666667 116 309 116 c 2
 395 116 l 2
 399.666666667 116 404.333333333 117.333333333 409 120 c 1
 413 131 l 1
EndSplineSet
EndChar

StartChar: avowel
Encoding: 109 3205 103
Width: 1021
Flags: HW
LayerCount: 2
Fore
SplineSet
1065 144 m 2
 1065 104 1049.33333333 70.6666666667 1018 44 c 1
 991.333333333 15.3333333333 955.666666667 1 911 1 c 2
 357 2 l 2
 309.666666667 2 269.5 15.5 236.5 42.5 c 128
 203.5 69.5 187 103.333333333 187 144 c 2
 187 541 l 2
 187 583 201.666666667 617 231 643 c 128
 260.333333333 669 296 682 338 682 c 2
 535 682 l 1
 535 450 l 1
 401 450 l 1
 401 569 l 1
 366 569 l 2
 353.333333333 569 343.333333333 563.666666667 336 553 c 0
 326 538.333333333 321 521.333333333 321 502 c 2
 321 179 l 2
 321 165 328 150.333333333 342 135 c 1
 360.666666667 122.333333333 378.666666667 116 396 116 c 2
 860 116 l 2
 872.666666667 116 884.333333333 119.666666667 895 127 c 0
 899.666666667 130.333333333 908 140.666666667 920 158 c 1
 926 170 929 183.333333333 929 198 c 2
 929 528 l 2
 929 538 924.333333333 548.333333333 915 559 c 1
 907.666666667 565 896.666666667 568 882 568 c 2
 850 568 l 1
 850 508 l 2
 850 475.333333333 873.666666667 443.333333333 921 412 c 1
 921 305 l 1
 469 305 l 1
 469 418 l 1
 757 418 l 1
 728.333333333 449.333333333 714 476.666666667 714 500 c 2
 714 681 l 1
 894 681 l 2
 924.666666667 681 953.166666667 675 979.5 663 c 128
 1005.83333333 651 1026 635.333333333 1040 616 c 1
 1055.33333333 596.666666667 1063 574 1063 548 c 2
 1065 144 l 2
EndSplineSet
EndChar

StartChar: aavowel
Encoding: 110 3206 104
Width: 1093
Flags: HW
LayerCount: 2
Fore
SplineSet
1139 485 m 1
 1139 445 1125.66666667 412 1099 386 c 1
 1071 356.666666667 1038 342 1000 342 c 2
 981 342 l 1
 1001 318.666666667 1011 300.666666667 1011 288 c 2
 1011 112 l 2
 1011 80.6666666667 997 54 969 32 c 1
 954.333333333 21.3333333333 938.833333333 13.5 922.5 8.5 c 128
 906.166666667 3.5 886 1 862 1 c 2
 332 5 l 2
 292 5 258 19 230 47 c 1
 202 71.6666666667 188 105 188 147 c 2
 188 544 l 2
 188 584 205 618 239 646 c 1
 276.333333333 672 319.666666667 685 369 685 c 2
 522 685 l 1
 522 453 l 1
 388 453 l 1
 388 572 l 1
 374 572 l 2
 358.666666667 572 346.333333333 568 337 560 c 1
 327.666666667 550 323 539 323 527 c 2
 323 182 l 2
 323 165.333333333 328 150 338 136 c 1
 352.666666667 123.333333333 367.333333333 117 382 117 c 2
 813 117 l 2
 828.333333333 117 841.333333333 123.333333333 852 136 c 1
 858 142 861.666666667 146.666666667 863 150 c 1
 868.333333333 158 871 168 871 180 c 2
 871 291 l 2
 871 305 861 323 841 345 c 1
 542 345 l 1
 542 458 l 1
 789 458 l 1
 777 476.666666667 771 490 771 498 c 2
 771 577 l 2
 771 607.666666667 784.5 632.333333333 811.5 651 c 128
 838.5 669.666666667 871 679 909 679 c 2
 1001 679 l 2
 1020.33333333 679 1037.33333333 676.5 1052 671.5 c 128
 1066.66666667 666.5 1080.33333333 658 1093 646 c 0
 1119.66666667 622 1133 593.333333333 1133 560 c 1
 1139 485 l 1
996 493 m 1
 996 539 l 2
 996 558.333333333 990.666666667 568 980 568 c 2
 937 568 l 2
 926.333333333 568 918.5 565 913.5 559 c 128
 908.5 553 906 546.333333333 906 539 c 2
 906 507 l 2
 906 489.666666667 913.333333333 473.333333333 928 458 c 1
 971 458 l 2
 978.333333333 458 984.5 461.666666667 989.5 469 c 128
 994.5 476.333333333 996.666666667 484.333333333 996 493 c 1
EndSplineSet
EndChar

StartChar: ivowel
Encoding: 111 3207 105
Width: 824
Flags: HW
LayerCount: 2
Fore
SplineSet
863 0 m 1
 781 0 l 2
 745 0 712.333333333 11 683 33 c 1
 656.333333333 57 643 84.3333333333 643 115 c 2
 643 171 l 1
 538 171 l 2
 502.666666667 171 474 180.666666667 452 200 c 1
 440 208 430.833333333 218 424.5 230 c 128
 418.166666667 242 415 254.333333333 415 267 c 2
 415 338 l 2
 415 348.666666667 417.666666667 358.666666667 423 368 c 128
 428.333333333 377.333333333 436.333333333 386 447 394 c 1
 471 406.666666667 498.333333333 413 529 413 c 2
 652 413 l 2
 673.333333333 413 692.666666667 407 710 395 c 1
 728 381 l 1
 728 530 l 2
 728 539.333333333 723.666666667 547.166666667 715 553.5 c 128
 706.333333333 559.833333333 692.333333333 563 673 563 c 2
 595 563 l 2
 576.333333333 563 561 559 549 551 c 1
 539.666666667 543 535 533.666666667 535 523 c 2
 535 446 l 1
 401 446 l 1
 401 518 l 2
 401 530 395.5 540.666666667 384.5 550 c 128
 373.5 559.333333333 358.333333333 564 339 564 c 2
 244 564 l 2
 228.666666667 564 216.333333333 560.333333333 207 553 c 128
 197.666666667 545.666666667 193 535.666666667 193 523 c 2
 192 459 l 1
 193.333333333 443.666666667 197.666666667 433.666666667 205 429 c 1
 212.333333333 419.666666667 220.666666667 415 230 415 c 2
 265 415 l 1
 265 302 l 1
 202 303 l 2
 161.333333333 303 127.666666667 316.333333333 101 343 c 1
 72.3333333333 369 58 400.666666667 58 438 c 2
 58 537 l 2
 58 563.666666667 65.3333333333 587.666666667 80 609 c 1
 94 632.333333333 113.333333333 649 138 659 c 1
 161.333333333 671 187.333333333 677 216 677 c 2
 353 677 l 2
 385.666666667 677 411.666666667 670.666666667 431 658 c 1
 445 652 457.333333333 641.333333333 468 626 c 1
 472.666666667 634 477.5 640.5 482.5 645.5 c 128
 487.5 650.5 493 654.333333333 499 657 c 1
 517.666666667 671 540 678 566 678 c 2
 696 678 l 2
 720.666666667 678 742.333333333 675 761 669 c 128
 779.666666667 663 796.666666667 652.666666667 812 638 c 1
 845.333333333 611.333333333 862 576.333333333 862 533 c 2
 862 367 l 2
 862 307.666666667 833.333333333 252 776 200 c 1
 776 137 l 2
 776 129.666666667 777.666666667 124.333333333 781 121 c 1
 789 115.666666667 794.666666667 113 798 113 c 2
 861 113 l 1
 863 0 l 1
639 285 m 1
 639 297.666666667 633 304 621 304 c 2
 556 304 l 2
 551.333333333 304 548.666666667 303.666666667 548 303 c 2
 547 296 l 1
 548 291 l 1
 556 286 l 1
 639 285 l 1
EndSplineSet
EndChar

StartChar: iivowel
Encoding: 112 3208 106
Width: 1281
Flags: HW
LayerCount: 2
Fore
SplineSet
1324 404 m 2
 1324 376 1313 348 1291 320 c 1
 1271.66666667 298 1246.66666667 280.666666667 1216 268 c 1
 1268.66666667 210.666666667 1295 172.666666667 1295 154 c 2
 1295 87 l 2
 1295 67.6666666667 1287.66666667 48.3333333333 1273 29 c 1
 1257.66666667 11.6666666667 1239.33333333 3 1218 3 c 2
 973 3 l 1
 973 116 l 1
 1134 116 l 2
 1139.33333333 116 1145 119.333333333 1151 126 c 128
 1157 132.666666667 1160 137.333333333 1160 140 c 2
 1160 145 l 2
 1160 159 1151.33333333 172.333333333 1134 185 c 1
 1067 253 l 1
 852 253 l 1
 852 139 l 2
 852 103 837.666666667 71 809 43 c 128
 780.333333333 15 745.666666667 1 705 1 c 2
 346 2 l 2
 312 2 282 13.8333333333 256 37.5 c 128
 230 61.1666666667 217 90.6666666667 217 126 c 2
 217 253 l 1
 104 253 l 1
 104 366 l 1
 217 366 l 1
 217 443 l 2
 217 486.333333333 238.666666667 528.666666667 282 570 c 1
 203 570 l 1
 203 683 l 1
 729 683 l 2
 739.666666667 683 746.666666667 686 750 692 c 1
 756 698 759 704.666666667 759 712 c 2
 759 775 l 1
 896 775 l 1
 896 712 l 2
 896 676 882.666666667 644.666666667 856 618 c 1
 837.333333333 594.666666667 812.333333333 579 781 571 c 1
 800.333333333 557 816 542.666666667 828 528 c 0
 844.666666667 506.666666667 853 487.333333333 853 470 c 2
 853 365 l 1
 967 365 l 1
 952.333333333 385 945 408.333333333 945 435 c 2
 945 507 l 2
 945 540.333333333 957 568.833333333 981 592.5 c 128
 1005 616.166666667 1034.66666667 628 1070 628 c 2
 1190 628 l 2
 1228 628 1259 615.666666667 1283 591 c 1
 1311 566.333333333 1325 536 1325 500 c 2
 1324 404 l 2
1188 416 m 2
 1188 488 l 2
 1188 492.666666667 1186.66666667 497 1184 501 c 128
 1181.33333333 505 1179.66666667 507.333333333 1179 508 c 0
 1175.66666667 512.666666667 1170 515 1162 515 c 2
 1106 515 l 2
 1096.66666667 515 1091.33333333 513.333333333 1090 510 c 0
 1085.33333333 502.666666667 1083 497.333333333 1083 494 c 2
 1082 418 l 1
 1082.66666667 408.666666667 1086 400 1092 392 c 1
 1139 364 l 1
 1149.66666667 366.666666667 1159.66666667 372 1169 380 c 1
 1181.66666667 392.666666667 1188 404.666666667 1188 416 c 2
715 367 m 1
 715 477 l 2
 715 517 693.333333333 549 650 573 c 1
 432 573 l 1
 377.333333333 535.666666667 350 494.333333333 350 449 c 2
 350 367 l 1
 715 367 l 1
716 180 m 1
 716 254 l 1
 350 254 l 1
 350 166 l 2
 350 154 355 142.5 365 131.5 c 128
 375 120.5 385 115 395 115 c 2
 652 115 l 2
 659.333333333 115 666.166666667 116.5 672.5 119.5 c 128
 678.833333333 122.5 685.666666667 126.666666667 693 132 c 1
 707 147.333333333 714.666666667 163.333333333 716 180 c 1
EndSplineSet
EndChar

StartChar: uvowel
Encoding: 113 3209 107
Width: 1535
Flags: HW
LayerCount: 2
Fore
SplineSet
1580 152 m 2
 1580 125.333333333 1573.66666667 100 1561 76 c 1
 1553.66666667 64 1545.66666667 53.6666666667 1537 45 c 128
 1528.33333333 36.3333333333 1518 29 1506 23 c 0
 1480 9 1454.66666667 2 1430 2 c 2
 1234 2 l 2
 1219.33333333 2 1204.83333333 3.83333333333 1190.5 7.5 c 128
 1176.16666667 11.1666666667 1162.83333333 16 1150.5 22 c 128
 1138.16666667 28 1126.5 35.8333333333 1115.5 45.5 c 128
 1104.5 55.1666666667 1095 65.3333333333 1087 76 c 1
 1071.66666667 102 1064 127.333333333 1064 152 c 2
 1064 535 l 2
 1064 540.333333333 1061 548.333333333 1055 559 c 1
 1045.66666667 564.333333333 1035 567 1023 567 c 2
 836 567 l 2
 823.333333333 567 814.333333333 564 809 558 c 128
 803.666666667 552 801 544 801 534 c 2
 801 143 l 2
 801 129 799.5 117.166666667 796.5 107.5 c 128
 793.5 97.8333333333 787.333333333 85.6666666667 778 71 c 1
 764 51 743.333333333 34.3333333333 716 21 c 128
 688.666666667 7.66666666667 661 1 633 1 c 2
 374 2 l 2
 324.666666667 2 282.333333333 17.3333333333 247 48 c 0
 229.666666667 62.6666666667 216.833333333 80 208.5 100 c 128
 200.166666667 120 196 141 196 163 c 2
 196 527 l 2
 196 555.666666667 201.333333333 582 212 606 c 1
 226.666666667 632 246.833333333 651 272.5 663 c 128
 298.166666667 675 322.666666667 681 346 681 c 2
 572 681 l 1
 572 481 l 2
 572 445.666666667 558.833333333 413.833333333 532.5 385.5 c 128
 506.166666667 357.166666667 475 343 439 343 c 2
 351 343 l 1
 351 456 l 1
 409 456 l 2
 415 456 421 458.666666667 427 464 c 128
 433 469.333333333 436 474.666666667 436 480 c 2
 436 566 l 1
 373 566 l 2
 358.333333333 566 348 562.333333333 342 555 c 0
 332.666666667 544.333333333 328 534.333333333 328 525 c 2
 328 161 l 2
 328 151 333.333333333 140.333333333 344 129 c 128
 354.666666667 117.666666667 367 112 381 112 c 2
 624 112 l 2
 636.666666667 112 645.666666667 116 651 124 c 1
 660.333333333 134.666666667 665 144.666666667 665 154 c 2
 665 533 l 2
 665 577.666666667 678.333333333 612 705 636 c 1
 733 664.666666667 767.333333333 679 808 679 c 2
 1037 679 l 2
 1067.66666667 679 1095.33333333 673 1120 661 c 128
 1144.66666667 649 1164 632.333333333 1178 611 c 0
 1186 598.333333333 1191.5 587 1194.5 577 c 128
 1197.5 567 1199 554.666666667 1199 540 c 2
 1199 162 l 2
 1199 148 1203 136.333333333 1211 127 c 1
 1223 117 1234 112 1244 112 c 2
 1407 112 l 2
 1419.66666667 112 1428.66666667 116 1434 124 c 1
 1443.33333333 133.333333333 1448 143.333333333 1448 154 c 2
 1448 525 l 2
 1448 532.333333333 1444.16666667 539 1436.5 545 c 128
 1428.83333333 551 1419 554 1407 554 c 2
 1377 554 l 1
 1377 680 l 1
 1449 680 l 2
 1487.66666667 680 1519 667.666666667 1543 643 c 1
 1569 618.333333333 1582 588.333333333 1582 553 c 2
 1580 152 l 2
EndSplineSet
EndChar

StartChar: uuvowel
Encoding: 114 3210 108
Width: 1840
Flags: HW
LayerCount: 2
Fore
SplineSet
1882 144 m 2
 1882 103.333333333 1868 70.6666666667 1840 46 c 1
 1812 16.6666666667 1779.66666667 2 1743 2 c 2
 1685 2 l 2
 1651 2 1618.66666667 15 1588 41 c 0
 1575.33333333 51.6666666667 1565.83333333 65.1666666667 1559.5 81.5 c 128
 1553.16666667 97.8333333333 1550 114.333333333 1550 131 c 2
 1550 233 l 1
 1685 233 l 1
 1685 131 l 2
 1685 125.666666667 1685.66666667 122.166666667 1687 120.5 c 128
 1688.33333333 118.833333333 1690.33333333 117.833333333 1693 117.5 c 128
 1695.66666667 117.166666667 1698.33333333 116.666666667 1701 116 c 1
 1736 116 l 1
 1740.66666667 118.666666667 1743.33333333 120.666666667 1744 122 c 2
 1748 140 l 1
 1748 516 l 2
 1748 530.666666667 1743.33333333 543.333333333 1734 554 c 128
 1724.66666667 564.666666667 1713.66666667 570 1701 570 c 2
 1559 570 l 2
 1540.33333333 570 1525.66666667 564.666666667 1515 554 c 128
 1504.33333333 543.333333333 1499 530.666666667 1499 516 c 2
 1499 165 l 2
 1499 147.666666667 1496.33333333 131.333333333 1491 116 c 0
 1490.33333333 113.333333333 1486 103.333333333 1478 86 c 1
 1462.66666667 59.3333333333 1445 40 1425 28 c 0
 1399 12.6666666667 1373 5 1347 5 c 2
 1139 5 l 2
 1098.33333333 5 1064 19.8333333333 1036 49.5 c 128
 1008 79.1666666667 994 116.333333333 994 161 c 2
 994 532 l 2
 994 544.666666667 989.666666667 554.666666667 981 562 c 128
 972.333333333 569.333333333 961 573 947 573 c 2
 803 573 l 2
 789 573 777.833333333 568.333333333 769.5 559 c 128
 761.166666667 549.666666667 757 539 757 527 c 2
 757 173 l 2
 757 127 739.333333333 88.3333333333 704 57 c 1
 670 23 629 6 581 6 c 2
 390 7 l 2
 338 7 291.666666667 22.3333333333 251 53 c 1
 232.333333333 68.3333333333 218.666666667 85.5 210 104.5 c 128
 201.333333333 123.5 197 144.666666667 197 168 c 2
 197 540 l 2
 197 583.333333333 213.333333333 618 246 644 c 1
 262.666666667 658.666666667 281 669.166666667 301 675.5 c 128
 321 681.833333333 343 685 367 685 c 2
 574 685 l 1
 574 504 l 2
 574 466 558.666666667 433 528 405 c 1
 500 376.333333333 465.666666667 362 425 362 c 2
 367 362 l 1
 367 475 l 1
 411 475 l 2
 415.666666667 475 419.5 475.833333333 422.5 477.5 c 128
 425.5 479.166666667 427.333333333 480.333333333 428 481 c 0
 434 486.333333333 437 491.666666667 437 497 c 2
 437 571 l 1
 381 571 l 2
 365.666666667 571 353.166666667 566.833333333 343.5 558.5 c 128
 333.833333333 550.166666667 329 540.666666667 329 530 c 2
 329 172 l 2
 329 157.333333333 335.5 144.5 348.5 133.5 c 128
 361.5 122.5 377.333333333 117 396 117 c 2
 576 117 l 2
 586 117 597 122 609 132 c 1
 618.333333333 142 623 155.333333333 623 172 c 2
 623 530 l 2
 623 560.666666667 631.333333333 587 648 609 c 1
 664.666666667 635 686.166666667 654 712.5 666 c 128
 738.833333333 678 766.333333333 684 795 684 c 2
 953 684 l 2
 983.666666667 684 1013 677.666666667 1041 665 c 0
 1055.66666667 659 1067.83333333 651.666666667 1077.5 643 c 128
 1087.16666667 634.333333333 1096.16666667 623.5 1104.5 610.5 c 128
 1112.83333333 597.5 1119.33333333 584.833333333 1124 572.5 c 128
 1128.66666667 560.166666667 1131 546.666666667 1131 532 c 2
 1131 161 l 2
 1131 149 1134.83333333 138.833333333 1142.5 130.5 c 128
 1150.16666667 122.166666667 1161 118 1175 118 c 2
 1309 118 l 2
 1323 118 1336 123 1348 133 c 1
 1353.33333333 139 1357.5 145.166666667 1360.5 151.5 c 128
 1363.5 157.833333333 1365 164.666666667 1365 172 c 2
 1365 517 l 2
 1365 546.333333333 1372 574.333333333 1386 601 c 1
 1402.66666667 627.666666667 1424 648 1450 662 c 128
 1476 676 1504.66666667 683 1536 683 c 2
 1702 683 l 2
 1734.66666667 683 1765 676 1793 662 c 0
 1805.66666667 656 1817.5 648 1828.5 638 c 128
 1839.5 628 1849 616 1857 602 c 0
 1874.33333333 574 1883 545.666666667 1883 517 c 2
 1882 144 l 2
EndSplineSet
EndChar

StartChar: rvocalicvowel.part
Encoding: 116 -1 110
Width: 1051
Flags: HW
LayerCount: 2
Fore
SplineSet
1090 152 m 2
 1090 132 1087.5 113.666666667 1082.5 97 c 128
 1077.5 80.3333333333 1069.66666667 64.3333333333 1059 49 c 1
 1033 17.6666666667 1004.66666667 2 974 2 c 2
 760 2 l 2
 731.333333333 2 702.333333333 9.33333333333 673 24 c 1
 651.666666667 33.3333333333 633.666666667 48 619 68 c 1
 608.333333333 50.6666666667 596 36.6666666667 582 26 c 0
 562 10.6666666667 543.333333333 3 526 3 c 2
 281 4 l 2
 245 4 216.333333333 14 195 34 c 1
 169 56.6666666667 156 82.6666666667 156 112 c 2
 156 299 l 1
 339 299 l 2
 361 299 379 297 393 293 c 128
 407 289 420.333333333 281.666666667 433 271 c 1
 462.333333333 249.666666667 477 223.666666667 477 193 c 2
 477 136 l 1
 342 136 l 1
 342 180 l 2
 342 185.333333333 336.666666667 188 326 188 c 2
 293 188 l 1
 292 146 l 1
 292.666666667 138 295.666666667 131 301 125 c 1
 309 119 317 116 325 116 c 2
 480 116 l 2
 489.333333333 116 497.666666667 117.333333333 505 120 c 128
 512.333333333 122.666666667 518.666666667 126 524 130 c 0
 536 137.333333333 542 146.333333333 542 157 c 2
 542 544 l 2
 542 552 537.166666667 558.5 527.5 563.5 c 128
 517.833333333 568.5 505.333333333 571 490 571 c 2
 338 571 l 2
 324 571 312 568.333333333 302 563 c 1
 296 562.333333333 293 558.333333333 293 551 c 2
 293 487 l 1
 326 487 l 2
 329.333333333 487 332.833333333 487.833333333 336.5 489.5 c 128
 340.166666667 491.166666667 343.333333333 492.666666667 346 494 c 1
 352 500 355 506.666666667 355 514 c 2
 355 551 l 1
 490 551 l 1
 490 508 l 2
 490 472 477.666666667 440 453 412 c 1
 426.333333333 384 395.333333333 370 360 370 c 2
 155 370 l 1
 155 567 l 2
 155 598.333333333 169 626.333333333 197 651 c 1
 223.666666667 671 256 681 294 681 c 2
 525 681 l 2
 567 681 602.666666667 668.666666667 632 644 c 1
 662.666666667 616 678 584 678 548 c 2
 678 183 l 1
 688 163 702.5 146.166666667 721.5 132.5 c 128
 740.5 118.833333333 757.666666667 112 773 112 c 2
 908 112 l 2
 920 112 930.833333333 117.333333333 940.5 128 c 128
 950.166666667 138.666666667 955 152.333333333 955 169 c 2
 955 502 l 2
 955 523.333333333 948.5 540 935.5 552 c 128
 922.5 564 906.666666667 570 888 570 c 2
 726 570 l 1
 726 683 l 1
 902 683 l 2
 912.666666667 683 924.333333333 688.333333333 937 699 c 1
 947.666666667 711.666666667 953 725 953 739 c 2
 953 802 l 1
 1088 802 l 1
 1088 725 l 2
 1088 699 1080.66666667 676.666666667 1066 658 c 1
 1056 640.666666667 1043.66666667 628 1029 620 c 1
 1038.33333333 614.666666667 1045.5 609.5 1050.5 604.5 c 128
 1055.5 599.5 1061 592 1067 582 c 1
 1081 562.666666667 1088 540.666666667 1088 516 c 2
 1090 152 l 2
EndSplineSet
EndChar

StartChar: lvocalicvowel.part
Encoding: 118 -1 112
Width: 824
Flags: HW
LayerCount: 2
Fore
SplineSet
1012 217 m 1
 881 58 l 1
 864.333333333 31.3333333333 842.666666667 15.3333333333 816 10 c 0
 813.333333333 9.33333333333 808 9 800 9 c 0
 780.666666667 9 758.5 12.8333333333 733.5 20.5 c 128
 708.5 28.1666666667 687.333333333 39.3333333333 670 54 c 1
 650 72 636 87 628 99 c 0
 617.333333333 115.666666667 612 134 612 154 c 0
 612 159.333333333 631 192.333333333 669 253 c 0
 681 272.333333333 700.333333333 302 727 342 c 1
 732.333333333 356 735.833333333 371.166666667 737.5 387.5 c 128
 739.166666667 403.833333333 740 421.666666667 740 441 c 0
 740 461 739.166666667 478.333333333 737.5 493 c 128
 735.833333333 507.666666667 734.333333333 520.333333333 733 531 c 1
 733 540.333333333 728.666666667 548.166666667 720 554.5 c 128
 711.333333333 560.833333333 697.333333333 564 678 564 c 2
 600 564 l 2
 581.333333333 564 566 560 554 552 c 1
 544.666666667 544 540 534.666666667 540 524 c 2
 540 447 l 1
 406 447 l 1
 406 519 l 2
 406 531 400.5 541.666666667 389.5 551 c 128
 378.5 560.333333333 363.333333333 565 344 565 c 2
 249 565 l 2
 233.666666667 565 221.333333333 561.333333333 212 554 c 128
 202.666666667 546.666666667 198 536.666666667 198 524 c 2
 197 460 l 1
 198.333333333 444.666666667 202.666666667 434.666666667 210 430 c 1
 217.333333333 420.666666667 225.666666667 416 235 416 c 2
 270 416 l 1
 270 303 l 1
 207 304 l 2
 166.333333333 304 132.666666667 317.333333333 106 344 c 1
 77.3333333333 370 63 401.666666667 63 439 c 2
 63 538 l 2
 63 564.666666667 70.3333333333 588.666666667 85 610 c 1
 99 633.333333333 118.333333333 650 143 660 c 1
 166.333333333 672 192.333333333 678 221 678 c 2
 358 678 l 2
 390.666666667 678 416.666666667 671.666666667 436 659 c 1
 450 653 462.333333333 642.333333333 473 627 c 1
 477.666666667 635 482.5 641.5 487.5 646.5 c 128
 492.5 651.5 498 655.333333333 504 658 c 1
 522.666666667 672 545 679 571 679 c 2
 701 679 l 2
 725.666666667 679 747.333333333 676 766 670 c 128
 784.666666667 664 801.666666667 653.666666667 817 639 c 1
 850.333333333 612.333333333 867 577.333333333 867 534 c 2
 867 368 l 2
 867 348.666666667 861.666666667 328 851 306 c 0
 848.333333333 301.333333333 824.333333333 266 779 200 c 1
 771.666666667 190.666666667 766.666666667 184.333333333 764 181 c 0
 753.333333333 166.333333333 748 157.666666667 748 155 c 0
 748 143 751 135.666666667 757 133 c 128
 763 130.333333333 768.666666667 129 774 129 c 0
 786 129 795 133 801 141 c 2
 911 283 l 1
 1012 217 l 1
EndSplineSet
EndChar

StartChar: evowel
Encoding: 119 3214 113
Width: 996
Flags: HW
LayerCount: 2
Fore
SplineSet
1038 152 m 2
 1038 110 1024.33333333 74.1666666667 997 44.5 c 128
 969.666666667 14.8333333333 937 0 899 0 c 2
 681 1 l 2
 654.333333333 1 630.333333333 8 609 22 c 1
 597 28 588 36.3333333333 582 47 c 1
 574 35 565.333333333 26 556 20 c 0
 536.666666667 6 516.333333333 -1 495 -1 c 2
 329 0 l 2
 283 0 243.666666667 13.5 211 40.5 c 128
 178.333333333 67.5 162 101.333333333 162 142 c 2
 162 416 l 1
 343 416 l 2
 365 416 385.333333333 408.666666667 404 394 c 0
 413.333333333 386.666666667 422.333333333 378.166666667 431 368.5 c 128
 439.666666667 358.833333333 446.666666667 348 452 336 c 1
 466.666666667 308 476.333333333 277 481 243 c 1
 357 210 l 1
 354.333333333 226.666666667 350.5 240.5 345.5 251.5 c 128
 340.5 262.5 334.333333333 273 327 283 c 0
 323.666666667 287.666666667 319.5 291.5 314.5 294.5 c 128
 309.5 297.5 304 299.666666667 298 301 c 1
 297 169 l 1
 297.666666667 154.333333333 303.333333333 141 314 129 c 1
 326.666666667 118.333333333 340.666666667 113 356 113 c 2
 465 113 l 2
 479.666666667 113 491 118 499 128 c 0
 511 142 517 155.333333333 517 168 c 2
 517 245 l 1
 654 245 l 1
 654 177 l 2
 654 160.333333333 661.166666667 145.5 675.5 132.5 c 128
 689.833333333 119.5 705.333333333 113 722 113 c 2
 842 113 l 2
 859.333333333 113 873.666666667 119.666666667 885 133 c 128
 896.333333333 146.333333333 902 160.666666667 902 176 c 2
 902 493 l 2
 902 515 894.666666667 532.666666667 880 546 c 128
 865.333333333 559.333333333 846 566 822 566 c 2
 717 566 l 1
 717 679 l 1
 836 679 l 2
 873.333333333 679 907.333333333 671.666666667 938 657 c 128
 968.666666667 642.333333333 993 621 1011 593 c 128
 1029 565 1038 536.333333333 1038 507 c 2
 1038 152 l 2
EndSplineSet
EndChar

StartChar: eevowel
Encoding: 120 3215 114
Width: 993
Flags: HW
LayerCount: 2
Fore
SplineSet
1036 166 m 2
 1036 138 1026.66666667 109.666666667 1008 81 c 1
 993.333333333 56.3333333333 970.666666667 36.3333333333 940 21 c 1
 925.333333333 15 909.5 10 892.5 6 c 128
 875.5 2 857 0 837 0 c 2
 683 4 l 2
 659 4 636.333333333 11 615 25 c 1
 601 35.6666666667 590.333333333 48.6666666667 583 64 c 1
 555 22.6666666667 517 2 469 2 c 2
 341 2 l 2
 291 2 248.333333333 17.1666666667 213 47.5 c 128
 177.666666667 77.8333333333 160 114.666666667 160 158 c 2
 160 419 l 1
 342 419 l 2
 364 419 383.833333333 412 401.5 398 c 128
 419.166666667 384 435.666666667 364 451 338 c 1
 463 316 473 285 481 245 c 1
 353 213 l 1
 347 246.333333333 337 270.333333333 323 285 c 0
 313.666666667 295 304 301.333333333 294 304 c 1
 293 172 l 1
 295.666666667 156.666666667 302 143.666666667 312 133 c 1
 326 121 340.333333333 115 355 115 c 2
 462 115 l 2
 476.666666667 115 489.333333333 121.166666667 500 133.5 c 128
 510.666666667 145.833333333 516 158.333333333 516 171 c 2
 516 248 l 1
 653 248 l 1
 653 180 l 2
 653 165.333333333 658.333333333 150.333333333 669 135 c 1
 683.666666667 122.333333333 699.333333333 116 716 116 c 2
 840 116 l 2
 855.333333333 116 868.333333333 122.333333333 879 135 c 1
 885 141 888.666666667 145.666666667 890 149 c 1
 895.333333333 157 898 167 898 179 c 2
 898 496 l 2
 898 517.333333333 890.333333333 535 875 549 c 128
 859.666666667 563 839.666666667 570 815 570 c 2
 719 570 l 1
 719 549 l 2
 719 520.333333333 705 497.333333333 677 480 c 1
 664.333333333 470.666666667 650.833333333 463.666666667 636.5 459 c 128
 622.166666667 454.333333333 605.333333333 452 586 452 c 2
 452 452 l 2
 411.333333333 452 375.666666667 464.333333333 345 489 c 1
 314.333333333 515.666666667 299 546 299 580 c 2
 299 682 l 1
 434 682 l 1
 434 594 l 2
 434 588 437 581 443 573 c 1
 452.333333333 567.666666667 459.666666667 565 465 565 c 2
 557 565 l 2
 561.666666667 565 567.666666667 568.666666667 575 576 c 1
 580.333333333 583.333333333 583 592.333333333 583 603 c 2
 583 682 l 1
 828 682 l 2
 866.666666667 682 901.5 674.666666667 932.5 660 c 128
 963.5 645.333333333 987.333333333 624.666666667 1004 598 c 1
 1023.33333333 571.333333333 1033 542.333333333 1033 511 c 2
 1036 166 l 2
EndSplineSet
EndChar

StartChar: aivowel
Encoding: 121 3216 115
Width: 1054
Flags: HW
LayerCount: 2
Fore
SplineSet
1093 154 m 2
 1093 111.333333333 1076.33333333 75.3333333333 1043 46 c 1
 1009.66666667 14.6666666667 967 -1 915 -1 c 1
 763 3 l 1
 732.333333333 3 705.333333333 10 682 24 c 128
 658.666666667 38 640.666666667 53.6666666667 628 71 c 1
 613.333333333 51.6666666667 597.333333333 36.6666666667 580 26 c 0
 556.666666667 10.6666666667 533 3 509 3 c 2
 329 4 l 2
 283 4 243.666666667 17.5 211 44.5 c 128
 178.333333333 71.5 162 105.333333333 162 146 c 2
 162 291 l 2
 162 335.666666667 178.333333333 372.333333333 211 401 c 1
 225.666666667 415.666666667 243.5 426.666666667 264.5 434 c 128
 285.5 441.333333333 307 445 329 445 c 2
 540 445 l 1
 540 297 l 2
 540 277.666666667 535.833333333 259.5 527.5 242.5 c 128
 519.166666667 225.5 506.666666667 208.833333333 490 192.5 c 128
 473.333333333 176.166666667 455.666666667 164.166666667 437 156.5 c 128
 418.333333333 148.833333333 394.666666667 145 366 145 c 1
 331 255 l 1
 345.666666667 255 356.5 256.166666667 363.5 258.5 c 128
 370.5 260.833333333 378 265 386 271 c 0
 398 280.333333333 404 290 404 300 c 2
 404 329 l 1
 365 329 l 2
 343 329 326.166666667 324.166666667 314.5 314.5 c 128
 302.833333333 304.833333333 297 294 297 282 c 2
 296 182 l 2
 296 165.333333333 302 149.666666667 314 135 c 128
 326 120.333333333 340.333333333 113 357 113 c 2
 480 113 l 2
 501.333333333 113 520.333333333 120.166666667 537 134.5 c 128
 553.666666667 148.833333333 562 164.666666667 562 182 c 2
 562 231 l 1
 699 231 l 1
 699 182 l 2
 699 165.333333333 706 149.333333333 720 134 c 1
 735.333333333 120 752.333333333 113 771 113 c 2
 909 113 l 2
 921 113 932.833333333 120 944.5 134 c 128
 956.166666667 148 962 164.333333333 962 183 c 2
 962 514 l 2
 962 523.333333333 959.666666667 532.666666667 955 542 c 0
 954.333333333 543.333333333 950.833333333 547.833333333 944.5 555.5 c 128
 938.166666667 563.166666667 926.666666667 567 910 567 c 2
 787 567 l 2
 773 567 761.333333333 563 752 555 c 1
 744.666666667 547 741 536 741 522 c 2
 741 476 l 1
 606 476 l 1
 606 526 l 2
 606 536 599 546 585 556 c 1
 571 563.333333333 552.333333333 567 529 567 c 2
 352 567 l 2
 344.666666667 567 338 566.166666667 332 564.5 c 128
 326 562.833333333 320 559 314 553 c 1
 301.333333333 543 290 525.666666667 280 501 c 1
 175 565 l 1
 193.666666667 603.666666667 216.5 632.666666667 243.5 652 c 128
 270.5 671.333333333 299.666666667 681 331 681 c 2
 555 681 l 2
 589 681 615.333333333 674 634 660 c 1
 650.666666667 650.666666667 664 637.666666667 674 621 c 1
 679.333333333 629 685 636 691 642 c 128
 697 648 704.666666667 653.666666667 714 659 c 1
 734 673 757.333333333 680 784 680 c 2
 926 680 l 2
 956.666666667 680 984.333333333 674 1009 662 c 1
 1035.66666667 651.333333333 1056.33333333 634.666666667 1071 612 c 128
 1085.66666667 589.333333333 1093 565.666666667 1093 541 c 2
 1093 154 l 2
EndSplineSet
EndChar

StartChar: ovowel
Encoding: 122 3218 116
Width: 964
Flags: HW
LayerCount: 2
Fore
SplineSet
1002 124 m 2
 1002 90.6666666667 991.166666667 61.6666666667 969.5 37 c 128
 947.833333333 12.3333333333 921.333333333 0 890 0 c 2
 671 0 l 2
 647 0 625.666666667 7 607 21 c 1
 596.333333333 27 587.333333333 35.3333333333 580 46 c 1
 574.666666667 35.3333333333 567.333333333 27 558 21 c 0
 538.666666667 7 519.666666667 0 501 0 c 2
 300 0 l 2
 262.666666667 0 228.666666667 11.1666666667 198 33.5 c 128
 167.333333333 55.8333333333 152 83.3333333333 152 116 c 2
 152 268 l 1
 282 347 l 1
 303.333333333 361 323.666666667 374.166666667 343 386.5 c 128
 362.333333333 398.833333333 376.666666667 409 386 417 c 0
 401.333333333 429 409 441 409 453 c 2
 409 538 l 2
 409 544 406.333333333 550.666666667 401 558 c 1
 395.666666667 562.666666667 388 565 378 565 c 2
 289 565 l 1
 289 523 l 2
 289 517.666666667 292 511.5 298 504.5 c 128
 304 497.5 311.666666667 494 321 494 c 2
 346 494 l 1
 346 381 l 1
 286 381 l 2
 248.666666667 381 217.666666667 395.333333333 193 424 c 1
 166.333333333 450 153 483 153 523 c 2
 153 678 l 1
 407 678 l 2
 431 678 453.5 673.833333333 474.5 665.5 c 128
 495.5 657.166666667 512.666666667 644.5 526 627.5 c 128
 539.333333333 610.5 546 592 546 572 c 2
 546 420 l 2
 546 402.666666667 536 384.333333333 516 365 c 0
 499.333333333 349.666666667 456.666666667 321 388 279 c 2
 290 218 l 1
 290 157 l 2
 290 147 294 137 302 127 c 1
 312 119 323 115 335 115 c 2
 465 115 l 2
 474.333333333 115 484.333333333 119.666666667 495 129 c 1
 505.666666667 141.666666667 511 153.333333333 511 164 c 2
 511 218 l 1
 646 218 l 1
 646 169 l 2
 646 155 651 142 661 130 c 1
 673.666666667 119.333333333 688.333333333 114 705 114 c 2
 819 114 l 2
 828.333333333 114 838.333333333 118.666666667 849 128 c 1
 859.666666667 138.666666667 865 150.333333333 865 163 c 2
 865 256 l 2
 865 268 861.333333333 276.666666667 854 282 c 128
 846.666666667 287.333333333 837.666666667 290 827 290 c 2
 780 290 l 1
 780 402 l 1
 889 402 l 2
 923 402 949.333333333 392.666666667 968 374 c 1
 990 354.666666667 1001 330.333333333 1001 301 c 2
 1002 124 l 2
EndSplineSet
EndChar

StartChar: oovowel
Encoding: 123 3219 117
Width: 964
Flags: HW
LayerCount: 2
Fore
SplineSet
1002 140 m 2
 1002 115.333333333 995.666666667 93 983 73 c 1
 972.333333333 51 957.666666667 33.8333333333 939 21.5 c 128
 920.333333333 9.16666666667 900 3 878 3 c 2
 671 3 l 2
 647 3 625.666666667 10 607 24 c 1
 593 32 583 42 577 54 c 1
 574.333333333 50.6666666667 569.333333333 45.3333333333 562 38 c 0
 558.666666667 34.6666666667 553.333333333 30 546 24 c 1
 527.333333333 11.3333333333 507.333333333 5 486 5 c 2
 300 5 l 2
 262.666666667 5 228.666666667 16.1666666667 198 38.5 c 128
 167.333333333 60.8333333333 152 88.6666666667 152 122 c 2
 152 275 l 1
 282 354 l 1
 304 368.666666667 325.166666667 382.666666667 345.5 396 c 128
 365.833333333 409.333333333 379 418.666666667 385 424 c 0
 400.333333333 436 408 448.333333333 408 461 c 2
 408 533 l 2
 408 543 403.666666667 552.333333333 395 561 c 128
 386.333333333 569.666666667 375 574 361 574 c 2
 287 574 l 1
 287 532 l 2
 287 526 290 519.5 296 512.5 c 128
 302 505.5 309.666666667 502 319 502 c 2
 344 502 l 1
 344 388 l 1
 284 388 l 2
 248 388 217 402.333333333 191 431 c 1
 164.333333333 457.666666667 151 491.333333333 151 532 c 2
 151 687 l 1
 236 687 l 1
 179.333333333 724.333333333 151 755.333333333 151 780 c 2
 151 864 l 2
 151 890.666666667 164 912.333333333 190 929 c 1
 212 945.666666667 240.666666667 954 276 954 c 2
 416 954 l 1
 416 840 l 1
 314 840 l 1
 293 836 l 1
 289.666666667 833.333333333 288 829.666666667 288 825 c 2
 288 785 l 2
 288 763 323.333333333 730.666666667 394 688 c 1
 405 688 l 2
 429 688 451.5 683.833333333 472.5 675.5 c 128
 493.5 667.166666667 510.666666667 654 524 636 c 128
 537.333333333 618 544 599.666666667 544 581 c 2
 544 426 l 2
 544 408.666666667 534 390.333333333 514 371 c 0
 497.333333333 355.666666667 454.666666667 327 386 285 c 1
 364.666666667 270.333333333 343.333333333 256.666666667 322 244 c 0
 306.666666667 234.666666667 296 228.333333333 290 225 c 1
 290 162 l 2
 290 152 294 142 302 132 c 1
 312.666666667 122.666666667 323.333333333 118 334 118 c 2
 464 118 l 2
 472 118 482 123 494 133 c 1
 504.666666667 145.666666667 510 157.333333333 510 168 c 2
 510 224 l 1
 645 224 l 1
 645 161 l 2
 645 149 651 138.666666667 663 130 c 128
 675 121.333333333 688.666666667 117 704 117 c 2
 818 117 l 2
 826 117 835.833333333 122.333333333 847.5 133 c 128
 859.166666667 143.666666667 865 155.333333333 865 168 c 2
 865 263 l 2
 865 275 861.333333333 283.5 854 288.5 c 128
 846.666666667 293.5 837.666666667 296 827 296 c 2
 780 296 l 1
 780 410 l 1
 876 410 l 2
 911.333333333 410 941 396.833333333 965 370.5 c 128
 989 344.166666667 1001 314.333333333 1001 281 c 2
 1002 140 l 2
EndSplineSet
EndChar

StartChar: auvowel
Encoding: 124 3220 118
Width: 960
Flags: HW
LayerCount: 2
Fore
SplineSet
1027 508 m 1
 705 508 l 2
 671 508 641 521.166666667 615 547.5 c 128
 589 573.833333333 576 607.333333333 576 648 c 2
 576 768 l 1
 856 768 l 1
 856 655 l 1
 698 655 l 1
 698 648 l 2
 698 644.666666667 699.166666667 641.5 701.5 638.5 c 128
 703.833333333 635.5 705.333333333 633.333333333 706 632 c 0
 712 626 719.666666667 623 729 623 c 2
 891 623 l 1
 891 796 l 2
 891 808.666666667 885.666666667 819.666666667 875 829 c 128
 864.333333333 838.333333333 851.333333333 843 836 843 c 2
 563 843 l 1
 566.333333333 837 568 830.333333333 568 823 c 2
 568 797 l 2
 568 773.666666667 560.666666667 753.666666667 546 737 c 1
 529.333333333 720.333333333 511.333333333 712 492 712 c 2
 161 712 l 1
 161 825 l 1
 443 825 l 2
 448.333333333 825 452.166666667 826.5 454.5 829.5 c 128
 456.833333333 832.5 458.333333333 834.666666667 459 836 c 128
 460 838 460 838 461 840 c 1
 453 840.666666667 446.333333333 841.666666667 441 843 c 1
 160 842 l 1
 160 956 l 1
 850 956 l 2
 881.333333333 956 910.333333333 950.666666667 937 940 c 1
 965 926 986.333333333 909.333333333 1001 890 c 0
 1008.33333333 879.333333333 1014.33333333 868.5 1019 857.5 c 128
 1023.66666667 846.5 1026 835 1026 823 c 2
 1027 508 l 1
998 128 m 2
 998 111.333333333 995.5 96 990.5 82 c 128
 985.5 68 978 54 968 40 c 1
 946 15.3333333333 919.333333333 3 888 3 c 2
 664 3 l 2
 642 3 621.666666667 10 603 24 c 1
 591 31.3333333333 581 41 573 53 c 1
 570.333333333 47.6666666667 566.333333333 42.3333333333 561 37 c 0
 559.666666667 35.6666666667 555 31.3333333333 547 24 c 1
 529.666666667 11.3333333333 512.666666667 5 496 5 c 2
 309 6 l 2
 267.666666667 6 231 20.1666666667 199 48.5 c 128
 167 76.8333333333 151 110.333333333 151 149 c 2
 151 274 l 1
 282 353 l 1
 313.333333333 374.333333333 334.333333333 388.666666667 345 396 c 0
 366.333333333 410 379.333333333 419.333333333 384 424 c 1
 399.333333333 436 407 448.333333333 407 461 c 2
 407 558 l 2
 407 568.666666667 396.333333333 574 375 574 c 2
 286 574 l 1
 286 532 l 2
 286 526 289 519.5 295 512.5 c 128
 301 505.5 308.666666667 502 318 502 c 2
 357 502 l 1
 357 388 l 1
 280 388 l 2
 244.666666667 388 214 402.333333333 188 431 c 128
 162 459.666666667 149 493.333333333 149 532 c 2
 149 687 l 1
 403 687 l 2
 427 687 450.166666667 682.333333333 472.5 673 c 128
 494.833333333 663.666666667 511 651.333333333 521 636 c 1
 535 617.333333333 542 598.666666667 542 580 c 2
 542 425 l 2
 542 410.333333333 534.666666667 396 520 382 c 1
 508 367.333333333 492.333333333 354 473 342 c 1
 457.666666667 330 425 308.666666667 375 278 c 1
 287 222 l 1
 287 159 l 2
 287 147 291 137.333333333 299 130 c 1
 307 120 318 115 332 115 c 2
 476 115 l 2
 483.333333333 115 490.166666667 120 496.5 130 c 128
 502.833333333 140 506.333333333 146.5 507 149.5 c 128
 507.666666667 152.5 508 157.666666667 508 165 c 2
 508 221 l 1
 642 221 l 1
 642 158 l 2
 642 148.666666667 646.166666667 139 654.5 129 c 128
 662.833333333 119 674 114 688 114 c 2
 802 114 l 2
 817.333333333 114 831.333333333 119.333333333 844 130 c 1
 856.666666667 144.666666667 863 156 863 164 c 2
 863 259 l 2
 863 269 858.833333333 277 850.5 283 c 128
 842.166666667 289 832.666666667 292 822 292 c 2
 778 292 l 1
 778 406 l 1
 888 406 l 2
 906.666666667 406 921.833333333 404 933.5 400 c 128
 945.166666667 396 956.333333333 388.666666667 967 378 c 1
 988.333333333 358.666666667 999 334.333333333 999 305 c 2
 998 128 l 2
EndSplineSet
EndChar

StartChar: ka.base
Encoding: 126 -1 120
Width: 554
Flags: HW
AnchorPoint: "s" 278 -62 basechar 0
LayerCount: 2
Fore
SplineSet
764 385 m 1
 581 385 l 1
 595.666666667 375 608.333333333 365 619 355 c 128
 629.666666667 345 641 333.666666667 653 321 c 1
 677.666666667 290.333333333 690 262 690 236 c 2
 690 136 l 2
 690 100.666666667 677.666666667 71 653 47 c 128
 628.333333333 23 600.666666667 9.66666666667 570 7 c 1
 300 6 l 2
 266.666666667 6 239.333333333 15.6666666667 218 35 c 0
 205.333333333 45.6666666667 196.666666667 56.3333333333 192 67 c 128
 187.333333333 77.6666666667 185 90.6666666667 185 106 c 2
 185 225 l 2
 185 267.666666667 223 321.666666667 299 387 c 1
 98 387 l 1
 98 500 l 1
 369 500 l 1
 369 571 l 1
 98 571 l 1
 98 684 l 1
 593 684 l 1
 593 571 l 1
 505 571 l 1
 505 500 l 1
 764 500 l 1
 764 385 l 1
556 162 m 1
 556 222 l 2
 556 245.333333333 545.333333333 268 524 290 c 0
 512 302.666666667 499.5 314.333333333 486.5 325 c 128
 473.5 335.666666667 457.666666667 345.666666667 439 355 c 1
 359 313 319 271 319 229 c 2
 319 158 l 2
 319 148.666666667 322.666666667 139 330 129 c 1
 332.666666667 127.666666667 336 126.166666667 340 124.5 c 128
 344 122.833333333 351 122 361 122 c 2
 530 118 l 2
 534 118 539 121 545 127 c 1
 550.333333333 137.666666667 554 149.333333333 556 162 c 1
EndSplineSet
EndChar

StartChar: ka.imathra
Encoding: 127 -1 121
Width: 651
Flags: HW
AnchorPoint: "s" 270 -80 basechar 0
LayerCount: 2
Fore
SplineSet
695 386 m 1
 560 386 l 1
 575.333333333 376 590 364.666666667 604 352 c 0
 614 342.666666667 626 330.333333333 640 315 c 1
 666 281 679 249.666666667 679 221 c 2
 679 107 l 2
 679 93 676.5 80.1666666667 671.5 68.5 c 128
 666.5 56.8333333333 658.666666667 45.6666666667 648 35 c 1
 626 15 599.666666667 5 569 5 c 2
 296 6 l 2
 262.666666667 6 233.666666667 15.6666666667 209 35 c 1
 185 56.3333333333 173 80.3333333333 173 107 c 2
 173 237 l 2
 173 249 176.666666667 261 184 273 c 0
 186.666666667 276.333333333 192.333333333 283.5 201 294.5 c 128
 209.666666667 305.5 225.333333333 321.166666667 248 341.5 c 128
 270.666666667 361.833333333 287.333333333 377 298 387 c 1
 143 387 l 1
 143 501 l 1
 404 501 l 1
 486 598 l 1
 486 738 l 2
 486 739.333333333 485.333333333 740.666666667 484 742 c 128
 482 744 482 744 481 745 c 1
 421 745 l 1
 421 698 l 1
 425 691 l 1
 439 686 l 1
 464 686 l 1
 464 573 l 1
 397 573 l 2
 368.333333333 573 342.666666667 582 320 600 c 128
 297.333333333 618 286 639 286 663 c 2
 286 859 l 1
 511 859 l 2
 542.333333333 859 568.666666667 850 590 832 c 128
 611.333333333 814 622 789.333333333 622 758 c 2
 621 576 l 1
 557 501 l 1
 695 501 l 1
 695 386 l 1
544 144 m 1
 544 223 l 2
 544 247 504 289.666666667 424 351 c 1
 346 287.666666667 307 243 307 217 c 2
 307 131 l 2
 307 126.333333333 309.666666667 122.166666667 315 118.5 c 128
 320.333333333 114.833333333 326 113 332 113 c 2
 523 113 l 2
 527.666666667 113 532 116.333333333 536 123 c 128
 540 129.666666667 542.666666667 136.666666667 544 144 c 1
EndSplineSet
LCarets2: 1 0
EndChar

StartChar: ka.sub
Encoding: 128 -1 122
Width: 172
Flags: HW
AnchorPoint: "Sub" -192 290 mark 0
AnchorPoint: "Sub" 304 -402 basemark 0
LayerCount: 2
Fore
SplineSet
358 -154 m 1
 251 -154 l 1
 287.666666667 -182.666666667 306 -209.333333333 306 -234 c 2
 306 -312 l 2
 306 -338 293.666666667 -361.666666667 269 -383 c 1
 241.666666667 -401.666666667 212.666666667 -411 182 -411 c 2
 10 -411 l 1
 -21.3333333333 -408.333333333 -50 -396.333333333 -76 -375 c 128
 -102 -353.666666667 -115 -328.333333333 -115 -299 c 2
 -115 -255 l 2
 -115 -224.333333333 -94.6666666667 -190 -54 -152 c 1
 -177 -152 l 1
 -177 -53 l 1
 48 -53 l 1
 113 14 l 1
 162 65 l 1
 168 72.3333333333 171 79.6666666667 171 87 c 2
 171 214 l 2
 171 231.333333333 148.333333333 248.666666667 103 266 c 1
 188 334 l 1
 257.333333333 288.666666667 292 252 292 224 c 2
 292 70 l 2
 292 62.6666666667 290 55.3333333333 286 48 c 128
 282 40.6666666667 275.333333333 31.6666666667 266 21 c 1
 185 -57 l 1
 358 -57 l 1
 358 -154 l 1
186 -285 m 2
 186 -238 l 2
 186 -232 184 -225.833333333 180 -219.5 c 128
 176 -213.166666667 169.333333333 -205 160 -195 c 1
 144.666666667 -182.333333333 121.666666667 -170.666666667 91 -160 c 1
 65 -168 44.6666666667 -180.5 30 -197.5 c 128
 15.3333333333 -214.5 8 -233 8 -253 c 2
 8 -292 l 2
 8 -299.333333333 10.6666666667 -305.666666667 16 -311 c 1
 26 -317 36.3333333333 -320 47 -320 c 2
 160 -320 l 2
 167.333333333 -320 173.5 -316.333333333 178.5 -309 c 128
 183.5 -301.666666667 186 -293.666666667 186 -285 c 2
EndSplineSet
LCarets2: 1 0
EndChar

StartChar: ka_rvocalicmatra.sub
Encoding: 129 -1 123
Width: 341
Flags: HW
LayerCount: 2
Fore
SplineSet
697 -268 m 1
 697 -308 683.666666667 -341.333333333 657 -368 c 1
 631 -396.666666667 596.666666667 -411 554 -411 c 2
 155 -409 l 2
 121.666666667 -409 92.6666666667 -397.833333333 68 -375.5 c 128
 43.3333333333 -353.166666667 31 -327.333333333 31 -298 c 2
 31 -111 l 1
 152 -111 l 1
 117 -89 l 1
 97.6666666667 -72.3333333333 88 -56.6666666667 88 -42 c 2
 88 51 l 2
 88 77.6666666667 104.666666667 104.333333333 138 131 c 1
 46 131 l 1
 46 231 l 1
 249 231 l 1
 249 337 l 1
 383 337 l 1
 383 231 l 1
 583 231 l 1
 583 131 l 1
 470 131 l 1
 479.333333333 127 488 121 496 113 c 1
 501.333333333 105.666666667 507 98.3333333333 513 91 c 1
 521 78.3333333333 525 65.6666666667 525 53 c 2
 525 -5 l 2
 525 -40.3333333333 511.666666667 -69 485 -91 c 1
 459 -117 427.333333333 -130 390 -130 c 2
 309 -130 l 1
 309 -208 l 1
 153 -208 l 1
 153 -283 l 1
 155.666666667 -290.333333333 158.333333333 -294.333333333 161 -295 c 1
 171.666666667 -302.333333333 180.666666667 -306 188 -306 c 2
 532 -306 l 2
 537.333333333 -306 542.666666667 -300 548 -288 c 1
 555.333333333 -276 559 -260.666666667 559 -242 c 2
 559 24 l 2
 559 36.6666666667 543.666666667 50 513 64 c 1
 604 145 l 1
 619.333333333 137 632 129.5 642 122.5 c 128
 652 115.5 661 107 669 97 c 1
 684.333333333 73.6666666667 692 50.3333333333 692 27 c 2
 697 -268 l 1
399 9 m 1
 399 53 l 2
 399 60.3333333333 397.666666667 68.3333333333 395 77 c 128
 392.333333333 85.6666666667 388 93 382 99 c 1
 374 112.333333333 360 122.666666667 340 130 c 1
 263 130 l 1
 246.333333333 120 233 109 223 97 c 1
 220.333333333 92.3333333333 217.5 86.5 214.5 79.5 c 128
 211.5 72.5 210 65 210 57 c 2
 210 -10 l 2
 210 -17.3333333333 212.333333333 -22.3333333333 217 -25 c 2
 230 -33 l 1
 384 -32 l 2
 387.333333333 -32 391 -28.1666666667 395 -20.5 c 128
 399 -12.8333333333 400.333333333 -3 399 9 c 1
EndSplineSet
EndChar

StartChar: kha
Encoding: 130 3222 124
Width: 981
Flags: HW
LayerCount: 2
Fore
SplineSet
1019 113 m 2
 1019 85 1011.33333333 58.6666666667 996 34 c 1
 974.666666667 10 953.333333333 -2 932 -2 c 2
 779 -2 l 2
 753 -2 723 10 689 34 c 1
 615 81 l 1
 609.666666667 69 603.5 58.8333333333 596.5 50.5 c 128
 589.5 42.1666666667 580 34 568 26 c 0
 541.333333333 7.33333333333 512.333333333 -2 481 -2 c 2
 237 -2 l 1
 225 -0.666666666667 212.833333333 2 200.5 6 c 128
 188.166666667 10 176.5 15.8333333333 165.5 23.5 c 128
 154.5 31.1666666667 146 40.3333333333 140 51 c 128
 134 61.6666666667 131 72.3333333333 131 83 c 2
 131 214 l 2
 131 242 140.666666667 265.333333333 160 284 c 1
 182 300.666666667 206.333333333 309 233 309 c 2
 440 309 l 2
 466 309 486.333333333 304.333333333 501 295 c 1
 501 524 l 2
 501 536 498.333333333 547 493 557 c 1
 488.333333333 562.333333333 483.333333333 565 478 565 c 2
 348 565 l 1
 343 561 l 1
 340.333333333 555.666666667 339 546 339 532 c 2
 339 422 l 1
 202 422 l 1
 202 571 l 2
 202 602.333333333 214 628 238 648 c 1
 258 667.333333333 287.333333333 677 326 677 c 2
 505 677 l 2
 541 677 572 663.833333333 598 637.5 c 128
 624 611.166666667 637 580 637 544 c 2
 637 208 l 1
 732 131 l 1
 751.333333333 114.333333333 772.666666667 106 796 106 c 2
 861 106 l 2
 868.333333333 106 874 110.166666667 878 118.5 c 128
 882 126.833333333 884 137 884 149 c 2
 884 534 l 2
 884 544 880.5 551.333333333 873.5 556 c 128
 866.5 560.666666667 857.666666667 563 847 563 c 2
 714 563 l 1
 714 675 l 1
 894 675 l 2
 911.333333333 675 927.166666667 672.666666667 941.5 668 c 128
 955.833333333 663.333333333 969 655 981 643 c 1
 1007 619.666666667 1020 592.333333333 1020 561 c 2
 1019 113 l 2
497 137 m 1
 497 165 l 1
 481.666666667 183.666666667 456.333333333 193 421 193 c 2
 293 193 l 2
 282.333333333 193 274.333333333 191.666666667 269 189 c 1
 262 187 l 1
 262 125 l 1
 264.666666667 119.666666667 266.666666667 116.666666667 268 116 c 0
 274 111.333333333 280 109 286 109 c 2
 459 109 l 2
 469 109 477.666666667 112.666666667 485 120 c 1
 492.333333333 125.333333333 496.333333333 131 497 137 c 1
EndSplineSet
LCarets2: 1 0
EndChar

StartChar: kha.base
Encoding: 131 -1 125
Width: 812
Flags: HW
LayerCount: 2
Fore
SplineSet
1021 113 m 2
 1021 82.3333333333 1012.16666667 55.5 994.5 32.5 c 128
 976.833333333 9.5 955.666666667 -2 931 -2 c 1
 929 0 l 1
 778 0 l 2
 752 0 722 12 688 36 c 1
 623 75 l 1
 617 55.6666666667 601 38.3333333333 575 23 c 128
 549 7.66666666667 518.333333333 0 483 0 c 2
 248 0 l 2
 216.666666667 0 189.333333333 7.66666666667 166 23 c 1
 155.333333333 31 147 40.3333333333 141 51 c 128
 135 61.6666666667 132 72.3333333333 132 83 c 2
 132 214 l 2
 132 242 142.166666667 264.833333333 162.5 282.5 c 128
 182.833333333 300.166666667 208.666666667 309 240 309 c 2
 441 309 l 2
 467 309 487.333333333 304.333333333 502 295 c 1
 502 538 l 2
 502 545.333333333 499.666666667 551.666666667 495 557 c 128
 490.333333333 562.333333333 484.333333333 565 477 565 c 2
 363 565 l 2
 355.666666667 565 349.666666667 563.333333333 345 560 c 1
 340.333333333 552.666666667 338 543.666666667 338 533 c 2
 338 423 l 1
 203 423 l 1
 203 572 l 2
 203 603.333333333 215 629 239 649 c 1
 249 658.333333333 261.833333333 665.5 277.5 670.5 c 128
 293.166666667 675.5 309.333333333 678 326 678 c 2
 506 678 l 2
 542 678 572.833333333 665 598.5 639 c 128
 624.166666667 613 637 581.333333333 637 544 c 2
 637 207 l 1
 732 146 l 1
 760.666666667 120 782.333333333 107 797 107 c 2
 878 107 l 2
 883.333333333 107 886 110.666666667 886 118 c 2
 886 463 l 2
 886 493.666666667 875.333333333 517.333333333 854 534 c 1
 832 553.333333333 806.333333333 563 777 563 c 2
 717 563 l 1
 717 675 l 1
 844 675 l 1
 879.333333333 670.333333333 911 658 939 638 c 1
 965.666666667 616 986.333333333 591 1001 563 c 1
 1008.33333333 544.333333333 1013.83333333 528 1017.5 514 c 128
 1021.16666667 500 1023 483.333333333 1023 464 c 2
 1021 113 l 2
500 138 m 1
 500 157 l 1
 472 181 440 193 404 193 c 2
 280 193 l 2
 274.666666667 193 270.666666667 192.333333333 268 191 c 1
 266 187 l 1
 266 125 l 1
 267.333333333 119.666666667 268.666666667 116.666666667 270 116 c 0
 276 111.333333333 282 109 288 109 c 2
 461 109 l 2
 469 109 477.166666667 112 485.5 118 c 128
 493.833333333 124 498.666666667 130.666666667 500 138 c 1
EndSplineSet
EndChar

StartChar: kha.imathra
Encoding: 132 -1 126
Width: 981
Flags: HW
LayerCount: 2
Fore
SplineSet
1021 114 m 2
 1021 82.6666666667 1012.16666667 55.5 994.5 32.5 c 128
 976.833333333 9.5 955.666666667 -2 931 -2 c 1
 929 0 l 1
 778 0 l 2
 752 0 722 12 688 36 c 1
 614 82 l 1
 604.666666667 60 590.666666667 41.6666666667 572 27 c 1
 545.333333333 9.66666666667 518.666666667 1 492 1 c 2
 248 1 l 2
 216.666666667 1 189.333333333 8.66666666667 166 24 c 1
 155.333333333 32 147 41.3333333333 141 52 c 128
 135 62.6666666667 132 73.3333333333 132 84 c 2
 132 217 l 2
 132 245 142.666666667 267.666666667 164 285 c 1
 182.666666667 302.333333333 208.333333333 311 241 311 c 2
 442 311 l 2
 462 311 482 302.333333333 502 285 c 1
 502 528 l 2
 502 538.666666667 498.333333333 548.666666667 491 558 c 0
 487.666666667 561.333333333 484 563.833333333 480 565.5 c 128
 476 567.166666667 471.333333333 568 466 568 c 2
 364 568 l 2
 358.666666667 568 353 565.666666667 347 561 c 1
 342.333333333 553.666666667 340 545 340 535 c 2
 340 423 l 1
 205 423 l 1
 205 574 l 2
 205 606.666666667 217 632.333333333 241 651 c 1
 251.666666667 661.666666667 264.666666667 669.333333333 280 674 c 128
 295.333333333 678.666666667 311.333333333 681 328 681 c 2
 508 681 l 2
 544 681 574.833333333 668 600.5 642 c 128
 626.166666667 616 639 584 639 546 c 2
 639 211 l 1
 718 147 l 1
 760 121 796.666666667 108 828 108 c 2
 864 108 l 2
 870 108 875.333333333 110.5 880 115.5 c 128
 884.666666667 120.5 887 126 887 132 c 2
 887 624 l 2
 887 634 885 642 881 648 c 128
 877 654 871.333333333 657 864 657 c 2
 828 657 l 2
 820 657 814.666666667 656.666666667 812 656 c 1
 811 651 l 1
 810 632 l 1
 811.333333333 620 813.333333333 612.5 816 609.5 c 128
 818.666666667 606.5 820.833333333 604.333333333 822.5 603 c 128
 824.166666667 601.666666667 825.666666667 601 827 601 c 2
 881 601 l 1
 881 488 l 1
 776 488 l 2
 748 488 724 498.666666667 704 520 c 1
 684 539.333333333 674 563.333333333 674 592 c 2
 674 684 l 2
 674 710 685.666666667 731.333333333 709 748 c 128
 732.333333333 764.666666667 760.333333333 773 793 773 c 2
 907 773 l 2
 939.666666667 773 967.333333333 761.333333333 990 738 c 128
 1012.66666667 714.666666667 1024 686 1024 652 c 2
 1021 114 l 2
501 139 m 1
 501 154 l 1
 468.333333333 180.666666667 438.666666667 194 412 194 c 2
 291 194 l 2
 280.333333333 194 273.333333333 193.333333333 270 192 c 1
 268 188 l 1
 268 134 l 1
 272 116 l 1
 279 109 l 1
 466 109 l 2
 473.333333333 109 481.333333333 112.166666667 490 118.5 c 128
 498.666666667 124.833333333 502.333333333 131.666666667 501 139 c 1
EndSplineSet
LCarets2: 1 0
EndChar

